SplineFontDB: 3.0
FontName: Oblivion
FullName: Oblivion
FamilyName: Oblivion
Weight: Book
Copyright: Font outlines by Steve Deffeyes 2003, based on the banners of Vvardenfell. Letterforms originally created by Bethesda Softworks. Distribute freely, do not modify or sell without permission.
Version: 1.1; 2003
ItalicAngle: 0
UnderlinePosition: -128
UnderlineWidth: 51.2
Ascent: 922
Descent: 102
InvalidEm: 0
sfntRevision: 0x00010001
LayerCount: 2
Layer: 0 1 "Back" 1
Layer: 1 1 "Fore" 0
XUID: [1021 334 2127345828 6656247]
StyleMap: 0x0000
FSType: 0
OS2Version: 0
OS2_WeightWidthSlopeOnly: 0
OS2_UseTypoMetrics: 0
CreationTime: 1049212800
ModificationTime: 1559315907
PfmFamily: 17
TTFWeight: 400
TTFWidth: 5
LineGap: 0
VLineGap: 0
Panose: 2 0 5 6 2 0 0 2 0 4
OS2TypoAscent: 922
OS2TypoAOffset: 0
OS2TypoDescent: -102
OS2TypoDOffset: 0
OS2TypoLinegap: 77
OS2WinAscent: 1043
OS2WinAOffset: 0
OS2WinDescent: 129
OS2WinDOffset: 0
HheadAscent: 0
HheadAOffset: 0
HheadDescent: 0
HheadDOffset: 0
OS2SubXSize: 209
OS2SubYSize: 209
OS2SubXOff: 0
OS2SubYOff: 293
OS2SupXSize: 209
OS2SupYSize: 209
OS2SupXOff: 0
OS2SupYOff: 293
OS2StrikeYSize: 51
OS2StrikeYPos: 256
OS2Vendor: 'PYRS'
OS2UnicodeRanges: 80000001.00000000.00000000.00000000
Lookup: 258 0 0 "'kern' Horizontal Kerning in Latin lookup 0" { "'kern' Horizontal Kerning in Latin lookup 0 subtable"  } ['kern' ('DFLT' <'dflt' > 'latn' <'dflt' > ) ]
MarkAttachClasses: 1
DEI: 91125
TtTable: prep
PUSHW_1
 0
CALL
SVTCA[y-axis]
PUSHW_3
 1
 1
 2
CALL
SVTCA[x-axis]
PUSHW_3
 2
 1
 2
CALL
PUSHW_7
 2
 110
 90
 70
 50
 30
 8
CALL
PUSHW_7
 1
 55
 45
 35
 25
 15
 8
CALL
EndTTInstrs
TtTable: fpgm
PUSHW_1
 0
FDEF
MPPEM
PUSHW_1
 9
LT
IF
PUSHB_2
 1
 1
INSTCTRL
EIF
PUSHW_1
 511
SCANCTRL
PUSHW_1
 68
SCVTCI
PUSHW_2
 9
 3
SDS
SDB
ENDF
PUSHW_1
 1
FDEF
DUP
DUP
RCVT
ROUND[Black]
WCVTP
PUSHB_1
 1
ADD
ENDF
PUSHW_1
 2
FDEF
PUSHW_1
 1
LOOPCALL
POP
ENDF
PUSHW_1
 3
FDEF
DUP
GC[cur]
PUSHB_1
 3
CINDEX
GC[cur]
GT
IF
SWAP
EIF
DUP
ROLL
DUP
ROLL
MD[grid]
ABS
ROLL
DUP
GC[cur]

StartChar: A
Encoding: 65 65 0
Width: 619
Flags: W
LayerCount: 2
Fore
SplineSet
136 782 m 0,0,1
 127 788 127 788 115 790 c 128,-1,2
 103 792 103 792 93.5 793 c 128,-1,3
 84 794 84 794 77 795.5 c 128,-1,4
 70 797 70 797 70 803 c 0,5,6
 70 814 70 814 84 816.5 c 128,-1,7
 98 819 98 819 127.5 818 c 128,-1,8
 157 817 157 817 204.5 814.5 c 128,-1,9
 252 812 252 812 320 812 c 0,10,11
 386 812 386 812 430 814 c 128,-1,12
 474 816 474 816 500.5 818 c 128,-1,13
 527 820 527 820 538 820.5 c 128,-1,14
 549 821 549 821 549 817 c 0,15,16
 549 806 549 806 544 799 c 128,-1,17
 539 792 539 792 532.5 787 c 128,-1,18
 526 782 526 782 518.5 779 c 128,-1,19
 511 776 511 776 504 773 c 0,20,21
 481 754 481 754 455.5 719 c 128,-1,22
 430 684 430 684 414 643 c 0,23,24
 407 625 407 625 401 609 c 128,-1,25
 395 593 395 593 395 579 c 0,26,27
 395 555 395 555 398 539 c 128,-1,28
 401 523 401 523 390 523 c 256,29,30
 379 523 379 523 372 546 c 128,-1,31
 365 569 365 569 365 603 c 0,32,33
 365 626 365 626 373 653 c 128,-1,34
 381 680 381 680 390 702 c 0,35,36
 396 722 396 722 401 740 c 128,-1,37
 406 758 406 758 403 770.5 c 128,-1,38
 400 783 400 783 383.5 790.5 c 128,-1,39
 367 798 367 798 329 798 c 0,40,41
 292 798 292 798 271.5 771 c 128,-1,42
 251 744 251 744 240 702 c 0,43,44
 225 653 225 653 220 590.5 c 128,-1,45
 215 528 215 528 215 468 c 0,46,47
 215 420 215 420 218 386 c 128,-1,48
 221 352 221 352 227 325.5 c 128,-1,49
 233 299 233 299 242 275.5 c 128,-1,50
 251 252 251 252 265 224 c 0,51,52
 281 188 281 188 293 163.5 c 128,-1,53
 305 139 305 139 313.5 124 c 128,-1,54
 322 109 322 109 328 101.5 c 128,-1,55
 334 94 334 94 340 94 c 0,56,57
 353 94 353 94 363 111 c 128,-1,58
 373 128 373 128 382.5 149 c 128,-1,59
 392 170 392 170 399.5 187 c 128,-1,60
 407 204 407 204 414 204 c 0,61,62
 418 204 418 204 417.5 196 c 128,-1,63
 417 188 417 188 414.5 177.5 c 128,-1,64
 412 167 412 167 409 155 c 128,-1,65
 406 143 406 143 405 134 c 0,66,67
 401 116 401 116 393 104.5 c 128,-1,68
 385 93 385 93 385 75 c 0,69,70
 385 37 385 37 382.5 18.5 c 128,-1,71
 380 0 380 0 369 0 c 256,72,73
 358 0 358 0 336.5 26 c 128,-1,74
 315 52 315 52 290.5 90 c 128,-1,75
 266 128 266 128 241.5 170 c 128,-1,76
 217 212 217 212 200 244 c 0,77,78
 185 270 185 270 167.5 303 c 128,-1,79
 150 336 150 336 135 368.5 c 128,-1,80
 120 401 120 401 110 430.5 c 128,-1,81
 100 460 100 460 100 478 c 0,82,83
 100 512 100 512 110 538.5 c 128,-1,84
 120 565 120 565 136 603 c 0,85,86
 147 633 147 633 161.5 658 c 128,-1,87
 176 683 176 683 176 697 c 0,88,89
 176 735 176 735 165 755 c 128,-1,90
 154 775 154 775 136 782 c 0,0,1
EndSplineSet
EndChar

StartChar: a
Encoding: 97 97 1
Width: 499
Flags: W
LayerCount: 2
Fore
SplineSet
123 586 m 0,0,1
 114 589 114 589 105 590.5 c 128,-1,2
 96 592 96 592 88 592.5 c 128,-1,3
 80 593 80 593 75 594.5 c 128,-1,4
 70 596 70 596 70 600 c 0,5,6
 70 609 70 609 81.5 611.5 c 128,-1,7
 93 614 93 614 116 613.5 c 128,-1,8
 139 613 139 613 174 611 c 128,-1,9
 209 609 209 609 259 609 c 256,10,11
 308 609 308 609 340.5 610.5 c 128,-1,12
 373 612 373 612 392.5 613 c 128,-1,13
 412 614 412 614 420.5 613.5 c 128,-1,14
 429 613 429 613 429 609 c 0,15,16
 429 595 429 595 418 589.5 c 128,-1,17
 407 584 407 584 399 575 c 0,18,19
 382 561 382 561 362 537 c 128,-1,20
 342 513 342 513 327 484 c 0,21,22
 323 470 323 470 320 456 c 128,-1,23
 317 442 317 442 317 431 c 0,24,25
 317 417 317 417 318.5 404.5 c 128,-1,26
 320 392 320 392 312 392 c 0,27,28
 305 392 305 392 298.5 410 c 128,-1,29
 292 428 292 428 292 451 c 0,30,31
 292 468 292 468 298.5 489 c 128,-1,32
 305 510 305 510 312 527 c 0,33,34
 316 541 316 541 319.5 553.5 c 128,-1,35
 323 566 323 566 320.5 575.5 c 128,-1,36
 318 585 318 585 305 590 c 128,-1,37
 292 595 292 595 264 595 c 0,38,39
 216 595 216 595 201 527 c 0,40,41
 190 491 190 491 186 443.5 c 128,-1,42
 182 396 182 396 182 348 c 0,43,44
 182 314 182 314 184 290 c 128,-1,45
 186 266 186 266 190.5 246.5 c 128,-1,46
 195 227 195 227 202 209 c 128,-1,47
 209 191 209 191 221 170 c 0,48,49
 243 115 243 115 254.5 94 c 128,-1,50
 266 73 266 73 274 73 c 0,51,52
 284 73 284 73 293 85.5 c 128,-1,53
 302 98 302 98 308 114 c 128,-1,54
 314 130 314 130 318.5 143 c 128,-1,55
 323 156 323 156 327 156 c 0,56,57
 330 156 330 156 330.5 150 c 128,-1,58
 331 144 331 144 329.5 136 c 128,-1,59
 328 128 328 128 326 119 c 128,-1,60
 324 110 324 110 322 102 c 0,61,62
 318 88 318 88 313 80.5 c 128,-1,63
 308 73 308 73 308 58 c 0,64,65
 308 32 308 32 307 16.5 c 128,-1,66
 306 1 306 1 298 1 c 0,67,68
 289 1 289 1 272.5 21 c 128,-1,69
 256 41 256 41 237.5 69 c 128,-1,70
 219 97 219 97 201 129 c 128,-1,71
 183 161 183 161 172 184 c 0,72,73
 161 203 161 203 147.5 228 c 128,-1,74
 134 253 134 253 122.5 277 c 128,-1,75
 111 301 111 301 103 322.5 c 128,-1,76
 95 344 95 344 95 358 c 0,77,78
 95 384 95 384 101.5 404.5 c 128,-1,79
 108 425 108 425 119 451 c 0,80,81
 130 473 130 473 141.5 492 c 128,-1,82
 153 511 153 511 153 522 c 0,83,84
 153 552 153 552 145 565 c 128,-1,85
 137 578 137 578 123 586 c 0,0,1
EndSplineSet
EndChar

StartChar: b
Encoding: 98 98 2
Width: 542
Flags: W
LayerCount: 2
Fore
SplineSet
86 176 m 0,0,1
 86 209 86 209 83 248.5 c 128,-1,2
 80 288 80 288 78 322 c 128,-1,3
 76 356 76 356 77 379 c 128,-1,4
 78 402 78 402 86 402 c 256,5,6
 93 402 93 402 97.5 383 c 128,-1,7
 102 364 102 364 106 335 c 128,-1,8
 110 306 110 306 114.5 272.5 c 128,-1,9
 119 239 119 239 126.5 210 c 128,-1,10
 134 181 134 181 144.5 161.5 c 128,-1,11
 155 142 155 142 173 142 c 0,12,13
 209 142 209 142 224.5 170 c 128,-1,14
 240 198 240 198 240 233 c 0,15,16
 240 259 240 259 233 276 c 128,-1,17
 226 293 226 293 215 306 c 128,-1,18
 204 319 204 319 191.5 331 c 128,-1,19
 179 343 179 343 168 357 c 128,-1,20
 157 371 157 371 150 390 c 128,-1,21
 143 409 143 409 143 436 c 0,22,23
 143 455 143 455 144 475.5 c 128,-1,24
 145 496 145 496 145 513 c 256,25,26
 145 530 145 530 141.5 545.5 c 128,-1,27
 138 561 138 561 129 572 c 0,28,29
 122 582 122 582 111.5 588.5 c 128,-1,30
 101 595 101 595 91.5 598.5 c 128,-1,31
 82 602 82 602 76 604.5 c 128,-1,32
 70 607 70 607 70 610 c 0,33,34
 70 618 70 618 121 614 c 128,-1,35
 172 610 172 610 274 610 c 0,36,37
 332 610 332 610 370 611.5 c 128,-1,38
 408 613 408 613 430.5 614 c 128,-1,39
 453 615 453 615 462.5 614.5 c 128,-1,40
 472 614 472 614 472 610 c 2,41,-1
 472 519 l 2,42,43
 472 484 472 484 453 462 c 128,-1,44
 434 440 434 440 411.5 428.5 c 128,-1,45
 389 417 389 417 370 416 c 128,-1,46
 351 415 351 415 351 422 c 0,47,48
 351 427 351 427 360.5 428.5 c 128,-1,49
 370 430 370 430 382.5 435.5 c 128,-1,50
 395 441 395 441 404.5 455 c 128,-1,51
 414 469 414 469 414 500 c 0,52,53
 414 547 414 547 382.5 569 c 128,-1,54
 351 591 351 591 308 591 c 0,55,56
 292 591 292 591 271 590.5 c 128,-1,57
 250 590 250 590 233 587.5 c 128,-1,58
 216 585 216 585 203.5 578.5 c 128,-1,59
 191 572 191 572 191 562 c 0,60,61
 191 540 191 540 212.5 510 c 128,-1,62
 234 480 234 480 259 443 c 128,-1,63
 284 406 284 406 305.5 362.5 c 128,-1,64
 327 319 327 319 327 272 c 0,65,66
 327 244 327 244 309 213 c 128,-1,67
 291 182 291 182 264.5 152.5 c 128,-1,68
 238 123 238 123 206.5 95.5 c 128,-1,69
 175 68 175 68 147 47.5 c 128,-1,70
 119 27 119 27 98.5 14.5 c 128,-1,71
 78 2 78 2 75 2 c 0,72,73
 73 2 73 2 74.5 15.5 c 128,-1,74
 76 29 76 29 78 52.5 c 128,-1,75
 80 76 80 76 83 107.5 c 128,-1,76
 86 139 86 139 86 176 c 0,0,1
EndSplineSet
EndChar

StartChar: c
Encoding: 99 99 3
Width: 544
Flags: W
LayerCount: 2
Fore
SplineSet
80 611 m 0,0,1
 82 613 82 613 91 613 c 0,2,3
 100 613 100 613 121.5 612.5 c 128,-1,4
 143 612 143 612 179.5 611.5 c 128,-1,5
 216 611 216 611 274 611 c 0,6,7
 330 611 330 611 366.5 611.5 c 128,-1,8
 403 612 403 612 425.5 612.5 c 128,-1,9
 448 613 448 613 458 613 c 256,10,11
 468 613 468 613 472 611 c 0,12,13
 474 608 474 608 474 591 c 256,14,15
 474 574 474 574 473.5 540 c 128,-1,16
 473 506 473 506 472.5 453 c 128,-1,17
 472 400 472 400 472 327 c 0,18,19
 472 145 472 145 470.5 54.5 c 128,-1,20
 469 -36 469 -36 457 -36 c 0,21,22
 450 -36 450 -36 448 -1.5 c 128,-1,23
 446 33 446 33 444 88.5 c 128,-1,24
 442 144 442 144 438 216.5 c 128,-1,25
 434 289 434 289 423 366 c 0,26,27
 416 415 416 415 403.5 440.5 c 128,-1,28
 391 466 391 466 378 478 c 128,-1,29
 365 490 365 490 356 493.5 c 128,-1,30
 347 497 347 497 347 501 c 0,31,32
 347 504 347 504 358.5 506.5 c 128,-1,33
 370 509 370 509 385 515.5 c 128,-1,34
 400 522 400 522 411.5 536 c 128,-1,35
 423 550 423 550 423 578 c 1,36,-1
 119 578 l 1,37,38
 119 556 119 556 133 542.5 c 128,-1,39
 147 529 147 529 163 521 c 128,-1,40
 179 513 179 513 192.5 508.5 c 128,-1,41
 206 504 206 504 206 501 c 0,42,43
 206 497 206 497 198 493.5 c 128,-1,44
 190 490 190 490 178 479 c 128,-1,45
 166 468 166 468 152.5 444 c 128,-1,46
 139 420 139 420 129 375 c 0,47,48
 117 315 117 315 110 244 c 128,-1,49
 103 173 103 173 99.5 111.5 c 128,-1,50
 96 50 96 50 93.5 9 c 128,-1,51
 91 -32 91 -32 86 -32 c 256,52,53
 81 -32 81 -32 77.5 -13 c 128,-1,54
 74 6 74 6 72.5 37.5 c 128,-1,55
 71 69 71 69 70.5 108.5 c 128,-1,56
 70 148 70 148 70 189 c 256,57,58
 70 230 70 230 70 268 c 0,59,60
 70 307 70 307 70 336 c 0,61,62
 70 411 70 411 70 461 c 0,63,64
 70 512 70 512 71 544.5 c 128,-1,65
 72 577 72 577 74 592.5 c 128,-1,66
 76 608 76 608 80 611 c 0,0,1
EndSplineSet
EndChar

StartChar: d
Encoding: 100 100 4
Width: 479
Flags: W
LayerCount: 2
Fore
SplineSet
143 612 m 0,0,1
 150 615 150 615 185.5 613.5 c 128,-1,2
 221 612 221 612 268 612 c 0,3,4
 294 612 294 612 317.5 612.5 c 128,-1,5
 341 613 341 613 359 613.5 c 128,-1,6
 377 614 377 614 389 613.5 c 128,-1,7
 401 613 401 613 403 612 c 0,8,9
 404 611 404 611 404.5 595.5 c 128,-1,10
 405 580 405 580 405 555 c 256,11,12
 405 530 405 530 405 500 c 256,13,14
 405 469 405 469 404.5 436.5 c 128,-1,15
 404 404 404 404 403.5 374 c 128,-1,16
 403 344 403 344 403 322 c 0,17,18
 403 263 403 263 405 200 c 128,-1,19
 407 137 407 137 408.5 86 c 128,-1,20
 410 35 410 35 409.5 2 c 128,-1,21
 409 -31 409 -31 403 -31 c 0,22,23
 398 -31 398 -31 393 2 c 128,-1,24
 388 35 388 35 383.5 84.5 c 128,-1,25
 379 134 379 134 376.5 191.5 c 128,-1,26
 374 249 374 249 374 298 c 0,27,28
 374 341 374 341 372.5 379 c 128,-1,29
 371 417 371 417 364.5 448.5 c 128,-1,30
 358 480 358 480 345.5 505 c 128,-1,31
 333 530 333 530 312 549 c 0,32,33
 279 579 279 579 244 590.5 c 128,-1,34
 209 602 209 602 177 602 c 0,35,36
 161 602 161 602 154 596.5 c 128,-1,37
 147 591 147 591 147 582 c 256,38,39
 147 573 147 573 151.5 561.5 c 128,-1,40
 156 550 156 550 161 540 c 0,41,42
 172 526 172 526 188 513 c 128,-1,43
 204 500 204 500 230 496 c 1,44,45
 216 485 216 485 206.5 465 c 128,-1,46
 197 445 197 445 186 423 c 0,47,48
 181 409 181 409 180 394.5 c 128,-1,49
 179 380 179 380 178.5 368 c 128,-1,50
 178 356 178 356 176 348.5 c 128,-1,51
 174 341 174 341 166 341 c 0,52,53
 163 341 163 341 161.5 353 c 128,-1,54
 160 365 160 365 159 382.5 c 128,-1,55
 158 400 158 400 157.5 420.5 c 128,-1,56
 157 441 157 441 155 459 c 128,-1,57
 153 477 153 477 149 489 c 128,-1,58
 145 501 145 501 138 501 c 256,59,60
 131 501 131 501 124.5 489 c 128,-1,61
 118 477 118 477 115 455.5 c 128,-1,62
 112 434 112 434 112.5 405 c 128,-1,63
 113 376 113 376 118 341 c 0,64,65
 121 308 121 308 135 277.5 c 128,-1,66
 149 247 149 247 167.5 222.5 c 128,-1,67
 186 198 186 198 205.5 180.5 c 128,-1,68
 225 163 225 163 239 158 c 1,69,70
 235 132 235 132 236 107 c 128,-1,71
 237 82 237 82 248 56 c 0,72,73
 257 38 257 38 268.5 22 c 128,-1,74
 280 6 280 6 289 -5.5 c 128,-1,75
 298 -17 298 -17 300 -24 c 128,-1,76
 302 -31 302 -31 292 -31 c 0,77,78
 288 -31 288 -31 272 -19.5 c 128,-1,79
 256 -8 256 -8 232.5 14 c 128,-1,80
 209 36 209 36 182.5 67 c 128,-1,81
 156 98 156 98 133 138 c 0,82,83
 119 164 119 164 107 194.5 c 128,-1,84
 95 225 95 225 86.5 259 c 128,-1,85
 78 293 78 293 74 327 c 128,-1,86
 70 361 70 361 70 394 c 0,87,88
 70 434 70 434 81 472.5 c 128,-1,89
 92 511 92 511 104.5 541 c 128,-1,90
 117 571 117 571 129 590.5 c 128,-1,91
 141 610 141 610 143 612 c 0,0,1
EndSplineSet
EndChar

StartChar: e
Encoding: 101 101 5
Width: 507
Flags: W
LayerCount: 2
Fore
SplineSet
70 611 m 0,0,1
 70 614 70 614 96.5 616 c 128,-1,2
 123 618 123 618 163.5 619 c 128,-1,3
 204 620 204 620 251.5 619 c 128,-1,4
 299 618 299 618 339 617 c 128,-1,5
 379 616 379 616 406 615.5 c 0,6,-1
 433 615 l 1,7,-1
 437 176 l 1,8,9
 434 189.5 l 0,10,11
 431 203 431 203 424 221 c 128,-1,12
 417 239 417 239 406.5 257 c 128,-1,13
 396 275 396 275 379 287 c 0,14,15
 370 293 370 293 355 296 c 128,-1,16
 340 299 340 299 323 300.5 c 128,-1,17
 306 302 306 302 288 302 c 256,18,19
 271 302 271 302 259 302 c 0,20,21
 219 302 219 302 187 299 c 128,-1,22
 155 296 155 296 138 278 c 0,23,24
 124 264 124 264 118.5 242.5 c 128,-1,25
 113 221 113 221 113 196 c 0,26,27
 113 185 113 185 115 169.5 c 128,-1,28
 117 154 117 154 120.5 138 c 128,-1,29
 124 122 124 122 129.5 107.5 c 128,-1,30
 135 93 135 93 142 84 c 0,31,32
 160 58 160 58 187.5 44.5 c 128,-1,33
 215 31 215 31 273 31 c 0,34,35
 346 31 346 31 379.5 32 c 128,-1,36
 413 33 413 33 413 22 c 0,37,38
 413 17 413 17 388.5 14.5 c 128,-1,39
 364 12 364 12 326.5 11.5 c 128,-1,40
 289 11 289 11 246 11.5 c 128,-1,41
 203 12 203 12 166 13 c 128,-1,42
 129 14 129 14 104 15 c 0,43,-1
 79 16 l 1,44,-1
 74 461 l 1,45,46
 82 428 82 428 95.5 406 c 128,-1,47
 109 384 109 384 123 370 c 0,48,49
 135 359 135 359 149 354 c 128,-1,50
 163 349 163 349 178 348.5 c 128,-1,51
 193 348 193 348 209.5 349 c 128,-1,52
 226 350 226 350 244 350 c 0,53,54
 291 350 291 350 323.5 352.5 c 128,-1,55
 356 355 356 355 374 370 c 256,56,57
 392 384 392 384 395.5 405.5 c 128,-1,58
 399 427 399 427 399 457 c 0,59,60
 399 479 399 479 396 507 c 128,-1,61
 393 535 393 535 374 553 c 0,62,63
 344 579 344 579 312 587.5 c 128,-1,64
 280 596 280 596 229 596 c 0,65,66
 196 596 196 596 167.5 595 c 128,-1,67
 139 594 139 594 117.5 594.5 c 128,-1,68
 96 595 96 595 83 598.5 c 128,-1,69
 70 602 70 602 70 611 c 0,0,1
EndSplineSet
EndChar

StartChar: f
Encoding: 102 102 6
Width: 587
Flags: W
LayerCount: 2
Fore
SplineSet
517.666992188 417 m 1,0,1
 503.666992188 403 503.666992188 403 497.166992188 370 c 128,-1,2
 490.666992188 337 490.666992188 337 493.666992188 301 c 0,3,4
 493.666992188 277 493.666992188 277 495.666992188 254 c 128,-1,5
 497.666992188 231 497.666992188 231 499.666992188 214 c 128,-1,6
 501.666992188 197 501.666992188 197 501.666992188 185 c 0,7,8
 501.666992188 175 501.666992188 175 498.666992188 175 c 0,9,10
 489.666992188 175 489.666992188 175 484.666992188 193.5 c 128,-1,11
 479.666992188 212 479.666992188 212 473.666992188 235.5 c 128,-1,12
 467.666992188 259 467.666992188 259 456.166992188 281 c 128,-1,13
 444.666992188 303 444.666992188 303 420.666992188 310 c 0,14,15
 404.666992188 315 404.666992188 315 386.166992188 317 c 128,-1,16
 367.666992188 319 367.666992188 319 344.666992188 320 c 128,-1,17
 321.666992188 321 321.666992188 321 292.666992188 320 c 128,-1,18
 263.666992188 319 263.666992188 319 228.666992188 319 c 1,19,20
 184.666992188 242 184.666992188 242 148.166992188 146 c 128,-1,21
 111.666992188 50 111.666992188 50 97.6669921875 -67 c 1,22,23
 85.6669921875 -38 85.6669921875 -38 84.6669921875 4 c 256,24,25
 84.6669921875 46 84.6669921875 46 94.6669921875 96.5 c 128,-1,26
 104.666992188 147 104.666992188 147 123.166992188 204 c 128,-1,27
 141.666992188 261 141.666992188 261 164.666992188 319 c 0,28,29
 183.666992188 366 183.666992188 366 207.666992188 406.5 c 128,-1,30
 231.666992188 447 231.666992188 447 254.666992188 479.5 c 128,-1,31
 277.666992188 512 277.666992188 512 297.666992188 535.5 c 128,-1,32
 317.666992188 559 317.666992188 559 329.666992188 571 c 1,33,34
 320.666992188 576 320.666992188 576 296.166992188 578 c 128,-1,35
 271.666992188 580 271.666992188 580 241.166992188 576.5 c 128,-1,36
 210.666992188 573 210.666992188 573 180.666992188 565 c 128,-1,37
 150.666992188 557 150.666992188 557 130.666992188 543 c 0,38,39
 116.666992188 534 116.666992188 534 108.666992188 516 c 128,-1,40
 100.666992188 498 100.666992188 498 94.6669921875 480.5 c 128,-1,41
 88.6669921875 463 88.6669921875 463 84.6669921875 449.5 c 128,-1,42
 80.6669921875 436 80.6669921875 436 73.6669921875 436 c 0,43,44
 70.6669921875 436 70.6669921875 436 70.1669921875 454.5 c 128,-1,45
 69.6669921875 473 69.6669921875 473 70.6669921875 498.5 c 128,-1,46
 71.6669921875 524 71.6669921875 524 73.1669921875 551.5 c 128,-1,47
 74.6669921875 579 74.6669921875 579 76.1669921875 596 c 128,-1,48
 77.6669921875 613 77.6669921875 613 77.6669921875 614 c 2,49,-1
 489.666992188 620 l 1,50,-1
 498.666992188 591 l 1,51,52
 489.666992188 603 489.666992188 603 469.666992188 596 c 128,-1,53
 449.666992188 589 449.666992188 589 421.166992188 564.5 c 128,-1,54
 392.666992188 540 392.666992188 540 358.166992188 499.5 c 128,-1,55
 323.666992188 459 323.666992188 459 285.666992188 407 c 1,56,57
 343.666992188 407 343.666992188 407 382.166992188 405.5 c 128,-1,58
 420.666992188 404 420.666992188 404 446.666992188 404 c 0,59,60
 473.666992188 404 473.666992188 404 489.666992188 407 c 128,-1,61
 505.666992188 410 505.666992188 410 517.666992188 417 c 1,0,1
EndSplineSet
EndChar

StartChar: g
Encoding: 103 103 7
Width: 460
Flags: W
LayerCount: 2
Fore
SplineSet
70 614 m 1,0,1
 112 616 112 616 150 616 c 0,2,3
 189 616 189 616 227.5 615.5 c 128,-1,4
 266 615 266 615 304.5 614.5 c 128,-1,5
 343 614 343 614 385 614 c 1,6,7
 385 603 385 603 378.5 598.5 c 128,-1,8
 372 594 372 594 365 590.5 c 128,-1,9
 358 587 358 587 352 582 c 128,-1,10
 346 577 346 577 346 566 c 0,11,12
 346 555 346 555 352.5 545 c 128,-1,13
 359 535 359 535 367.5 519 c 128,-1,14
 376 503 376 503 383 479 c 128,-1,15
 390 455 390 455 390 417 c 0,16,17
 390 383 390 383 375.5 336 c 128,-1,18
 361 289 361 289 338 238 c 128,-1,19
 315 187 315 187 285.5 138 c 128,-1,20
 256 89 256 89 224.5 50.5 c 128,-1,21
 193 12 193 12 163 -10.5 c 128,-1,22
 133 -33 133 -33 109 -29 c 1,23,24
 149 2 149 2 186 45.5 c 128,-1,25
 223 89 223 89 250.5 139.5 c 128,-1,26
 278 190 278 190 295 246 c 128,-1,27
 312 302 312 302 312 358 c 0,28,29
 312 391 312 391 308.5 423 c 128,-1,30
 305 455 305 455 297 482 c 128,-1,31
 289 509 289 509 277.5 529.5 c 128,-1,32
 266 550 266 550 249 561 c 1,33,34
 223 561 223 561 192 560.5 c 128,-1,35
 161 560 161 560 129 557 c 1,36,37
 111 546 111 546 99 520.5 c 128,-1,38
 87 495 87 495 75 465 c 1,39,40
 75 509 75 509 72.5 541.5 c 128,-1,41
 70 574 70 574 70 614 c 1,0,1
EndSplineSet
EndChar

StartChar: h
Encoding: 104 104 8
Width: 570
Flags: W
LayerCount: 2
Fore
SplineSet
379 614 m 1,0,1
 395 618 395 618 411.5 626 c 128,-1,2
 428 634 428 634 442 642 c 128,-1,3
 456 650 456 650 467.5 656.5 c 128,-1,4
 479 663 479 663 486 663 c 0,5,6
 497 663 497 663 499.5 639.5 c 128,-1,7
 502 616 502 616 495 585 c 128,-1,8
 488 554 488 554 471.5 522 c 128,-1,9
 455 490 455 490 429 474 c 1,10,11
 439 500 439 500 439.5 530.5 c 128,-1,12
 440 561 440 561 433 575 c 1,13,-1
 336 575 l 1,14,15
 325 564 325 564 318.5 547 c 128,-1,16
 312 530 312 530 312 508 c 0,17,18
 312 494 312 494 322.5 473 c 128,-1,19
 333 452 333 452 349.5 432 c 128,-1,20
 366 412 366 412 385.5 397.5 c 128,-1,21
 405 383 405 383 423 383 c 1,22,23
 427 375 427 375 428 362 c 256,24,25
 428 350 428 350 423 339 c 1,26,27
 411 339 411 339 397.5 306.5 c 128,-1,28
 384 274 384 274 362 224 c 128,-1,29
 340 174 340 174 305 114.5 c 128,-1,30
 270 55 270 55 216 1 c 1,31,32
 183 1 183 1 145 -2 c 128,-1,33
 107 -5 107 -5 70 -9 c 1,34,35
 118 2 118 2 150 16 c 128,-1,36
 182 30 182 30 196 44 c 0,37,38
 222 70 222 70 244 108 c 128,-1,39
 266 146 266 146 282.5 189 c 128,-1,40
 299 232 299 232 308 274 c 128,-1,41
 317 316 317 316 317 349 c 0,42,43
 317 416 317 416 297.5 461 c 128,-1,44
 278 506 278 506 248.5 536 c 128,-1,45
 219 566 219 566 183 584 c 128,-1,46
 147 602 147 602 114 614 c 1,47,-1
 379 614 l 1,0,1
EndSplineSet
EndChar

StartChar: i
Encoding: 105 105 9
Width: 415
Flags: W
LayerCount: 2
Fore
SplineSet
342 614 m 0,0,1
 350 610 350 610 338.5 592 c 128,-1,2
 327 574 327 574 313 556 c 0,3,4
 299 530 299 530 288 512 c 128,-1,5
 277 494 277 494 269 494 c 0,6,7
 262 494 262 494 255 501.5 c 128,-1,8
 248 509 248 509 231 513 c 1,9,10
 242 499 242 499 251.5 481 c 128,-1,11
 261 463 261 463 265 440 c 1,12,13
 253 400 253 400 242.5 343 c 128,-1,14
 232 286 232 286 223.5 218.5 c 128,-1,15
 215 151 215 151 207 76.5 c 128,-1,16
 199 2 199 2 192 -72 c 1,17,18
 188 -1 188 -1 187.5 78.5 c 128,-1,19
 187 158 187 158 188 236.5 c 128,-1,20
 189 315 189 315 190.5 389 c 128,-1,21
 192 463 192 463 192 522 c 1,22,-1
 182 522 l 2,23,24
 156 522 156 522 137.5 508 c 128,-1,25
 119 494 119 494 106.5 478 c 128,-1,26
 94 462 94 462 85 449.5 c 128,-1,27
 76 437 76 437 71 440 c 0,28,29
 70 443 70 443 70 462 c 0,30,31
 70 481 70 481 71 505.5 c 128,-1,32
 72 530 72 530 73 556 c 128,-1,33
 74 582 74 582 75 597.5 c 128,-1,34
 76 613 76 613 76 614 c 1,35,36
 78 614 78 614 103 615 c 128,-1,37
 128 616 128 616 167 617 c 128,-1,38
 206 618 206 618 244 619 c 128,-1,39
 282 620 282 620 310.5 618.5 c 128,-1,40
 339 617 339 617 342 614 c 0,0,1
EndSplineSet
EndChar

StartChar: j
Encoding: 106 106 10
Width: 534
Flags: W
LayerCount: 2
Fore
SplineSet
139.333007812 614 m 1,0,1
 167.333007812 616 167.333007812 616 204.833007812 617 c 128,-1,2
 242.333007812 618 242.333007812 618 282.333007812 618 c 0,3,4
 323.333007812 618 323.333007812 618 363.833007812 617 c 128,-1,5
 404.333007812 616 404.333007812 616 439.333007812 614 c 1,6,7
 448.333007812 609 448.333007812 609 444.833007812 604.5 c 128,-1,8
 441.333007812 600 441.333007812 600 433.833007812 595 c 128,-1,9
 426.333007812 590 426.333007812 590 418.833007812 581.5 c 128,-1,10
 411.333007812 573 411.333007812 573 411.333007812 561 c 256,11,12
 411.333007812 549 411.333007812 549 418.833007812 528.5 c 128,-1,13
 426.333007812 508 426.333007812 508 434.833007812 479 c 128,-1,14
 443.333007812 450 443.333007812 450 451.333007812 410.5 c 128,-1,15
 459.333007812 371 459.333007812 371 459.333007812 319 c 0,16,17
 459.333007812 279 459.333007812 279 459.333007812 237 c 256,18,19
 459.333007812 194 459.333007812 194 459.833007812 152 c 128,-1,20
 460.333007812 110 460.333007812 110 461.333007812 71 c 128,-1,21
 462.333007812 32 462.333007812 32 464.333007812 1 c 1,22,23
 424.333007812 8 424.333007812 8 383.833007812 6.5 c 128,-1,24
 343.333007812 5 343.333007812 5 299.333007812 1 c 1,25,26
 339.333007812 11 339.333007812 11 362.333007812 44.5 c 128,-1,27
 385.333007812 78 385.333007812 78 396.833007812 119.5 c 128,-1,28
 408.333007812 161 408.333007812 161 411.833007812 205 c 128,-1,29
 415.333007812 249 415.333007812 249 415.333007812 282 c 0,30,31
 415.333007812 340 415.333007812 340 407.333007812 382.5 c 128,-1,32
 399.333007812 425 399.333007812 425 384.833007812 455.5 c 128,-1,33
 370.333007812 486 370.333007812 486 348.833007812 507 c 128,-1,34
 327.333007812 528 327.333007812 528 299.333007812 543 c 1,35,36
 277.333007812 546 277.333007812 546 248.833007812 545.5 c 128,-1,37
 220.333007812 545 220.333007812 545 187.333007812 538 c 1,38,39
 163.333007812 527 163.333007812 527 146.333007812 498.5 c 128,-1,40
 129.333007812 470 129.333007812 470 117.833007812 434.5 c 128,-1,41
 106.333007812 399 106.333007812 399 99.8330078125 362 c 128,-1,42
 93.3330078125 325 93.3330078125 325 91.3330078125 296 c 1,43,44
 80.3330078125 327 80.3330078125 327 75.8330078125 364.5 c 128,-1,45
 71.3330078125 402 71.3330078125 402 70.3330078125 440 c 128,-1,46
 69.3330078125 478 69.3330078125 478 71.3330078125 511.5 c 128,-1,47
 73.3330078125 545 73.3330078125 545 77.3330078125 566 c 1,48,-1
 139.333007812 614 l 1,0,1
EndSplineSet
EndChar

StartChar: k
Encoding: 107 107 11
Width: 510
Flags: W
LayerCount: 2
Fore
SplineSet
142 614 m 1,0,1
 212 611 212 611 281 613 c 128,-1,2
 350 615 350 615 437 620 c 1,3,4
 444 608 444 608 437 600 c 1,5,6
 426 600 426 600 414.5 590.5 c 128,-1,7
 403 581 403 581 403 566 c 0,8,9
 400 544 400 544 404.5 521.5 c 128,-1,10
 409 499 409 499 416 472.5 c 128,-1,11
 423 446 423 446 430 417 c 128,-1,12
 437 388 437 388 437 353 c 0,13,14
 437 322 437 322 433 290 c 128,-1,15
 429 258 429 258 418.5 228 c 128,-1,16
 408 198 408 198 391.5 172.5 c 128,-1,17
 375 147 375 147 350 131 c 1,18,19
 362 150 362 150 372.5 169 c 128,-1,20
 383 188 383 188 389.5 210.5 c 128,-1,21
 396 233 396 233 399.5 263 c 128,-1,22
 403 293 403 293 403 335 c 0,23,24
 403 362 403 362 394 394.5 c 128,-1,25
 385 427 385 427 371 458 c 128,-1,26
 357 489 357 489 340 516 c 128,-1,27
 323 543 323 543 307 557 c 0,28,29
 295 567 295 567 272 574 c 128,-1,30
 249 581 249 581 227.5 583.5 c 128,-1,31
 206 586 206 586 189.5 585.5 c 128,-1,32
 173 585 173 585 172 581 c 0,33,34
 165 576 165 576 170 569 c 128,-1,35
 175 562 175 562 185 555 c 128,-1,36
 195 548 195 548 206 542.5 c 128,-1,37
 217 537 217 537 220 532 c 1,38,39
 202 532 202 532 185.5 525.5 c 128,-1,40
 169 519 169 519 156 498.5 c 128,-1,41
 143 478 143 478 135.5 439 c 128,-1,42
 128 400 128 400 128 335 c 0,43,44
 128 298 128 298 135.5 255 c 128,-1,45
 143 212 143 212 154.5 175 c 128,-1,46
 166 138 166 138 178.5 113 c 128,-1,47
 191 88 191 88 200 88 c 0,48,49
 218 88 218 88 229 109 c 128,-1,50
 240 130 240 130 246 155.5 c 128,-1,51
 252 181 252 181 256 202 c 128,-1,52
 260 223 260 223 263 223 c 0,53,54
 265 223 265 223 267.5 211 c 128,-1,55
 270 199 270 199 272.5 180.5 c 128,-1,56
 275 162 275 162 276.5 139.5 c 128,-1,57
 278 117 278 117 278 97 c 0,58,59
 278 61 278 61 273 33.5 c 128,-1,60
 268 6 268 6 253 6 c 0,61,62
 237 6 237 6 216.5 23 c 128,-1,63
 196 40 196 40 175.5 68.5 c 128,-1,64
 155 97 155 97 136 134 c 128,-1,65
 117 171 117 171 102.5 211 c 128,-1,66
 88 251 88 251 79 290.5 c 128,-1,67
 70 330 70 330 70 364 c 0,68,69
 70 390 70 390 73 423 c 128,-1,70
 76 456 76 456 84.5 490.5 c 128,-1,71
 93 525 93 525 106.5 557.5 c 128,-1,72
 120 590 120 590 142 614 c 1,0,1
EndSplineSet
EndChar

StartChar: l
Encoding: 108 108 12
Width: 532
Flags: W
LayerCount: 2
Fore
SplineSet
70 614 m 1,0,1
 172 625 172 625 271.5 624 c 128,-1,2
 371 623 371 623 462 618 c 1,3,4
 462 612 462 612 458 596.5 c 128,-1,5
 454 581 454 581 446 560.5 c 128,-1,6
 438 540 438 540 426.5 518 c 128,-1,7
 415 496 415 496 401.5 477.5 c 128,-1,8
 388 459 388 459 371.5 447 c 128,-1,9
 355 435 355 435 336 435 c 1,10,11
 354 447 354 447 364.5 465.5 c 128,-1,12
 375 484 375 484 376.5 503.5 c 128,-1,13
 378 523 378 523 369.5 542 c 128,-1,14
 361 561 361 561 342 575 c 1,15,16
 324 577 324 577 307 578.5 c 128,-1,17
 290 580 290 580 273.5 579.5 c 128,-1,18
 257 579 257 579 238.5 576.5 c 128,-1,19
 220 574 220 574 196 570 c 1,20,21
 214 558 214 558 231 538.5 c 128,-1,22
 248 519 248 519 262 495 c 128,-1,23
 276 471 276 471 284 443.5 c 128,-1,24
 292 416 292 416 292 387 c 2,25,-1
 292 140 l 2,26,27
 292 111 292 111 305.5 89 c 128,-1,28
 319 67 319 67 341.5 50 c 128,-1,29
 364 33 364 33 392.5 21.5 c 128,-1,30
 421 10 421 10 452 5 c 1,31,32
 412 5 412 5 375 6 c 128,-1,33
 338 7 338 7 310.5 7.5 c 128,-1,34
 283 8 283 8 266 9 c 0,35,-1
 249 10 l 1,36,-1
 249 314 l 2,37,38
 249 375 249 375 230.5 423 c 128,-1,39
 212 471 212 471 184 507.5 c 128,-1,40
 156 544 156 544 125 570 c 128,-1,41
 94 596 94 596 70 614 c 1,0,1
EndSplineSet
EndChar

StartChar: m
Encoding: 109 109 13
Width: 551
Flags: W
LayerCount: 2
Fore
SplineSet
75.625 615 m 1,0,1
 103.625 613 103.625 613 124.625 612 c 128,-1,2
 145.625 611 145.625 611 164.625 611 c 256,3,4
 183.625 611 183.625 611 203.625 612 c 128,-1,5
 223.625 613 223.625 613 249.625 615 c 1,6,7
 227.625 607 227.625 607 210.125 592 c 128,-1,8
 192.625 577 192.625 577 192.625 562 c 0,9,10
 192.625 540 192.625 540 199.125 513.5 c 128,-1,11
 205.625 487 205.625 487 217.625 462 c 128,-1,12
 229.625 437 229.625 437 245.125 417 c 128,-1,13
 260.625 397 260.625 397 279.625 388 c 1,14,15
 295.625 402 295.625 402 309.125 420.5 c 128,-1,16
 322.625 439 322.625 439 332.125 459 c 128,-1,17
 341.625 479 341.625 479 346.625 499 c 128,-1,18
 351.625 519 351.625 519 351.625 538 c 0,19,20
 351.625 564 351.625 564 345.125 582.5 c 128,-1,21
 338.625 601 338.625 601 327.625 615 c 1,22,23
 360.625 615 360.625 615 397.125 615.5 c 128,-1,24
 433.625 616 433.625 616 476.625 620 c 1,25,26
 476.625 594 476.625 594 477.625 557.5 c 128,-1,27
 478.625 521 478.625 521 479.125 478.5 c 128,-1,28
 479.625 436 479.625 436 480.625 391.5 c 128,-1,29
 481.625 347 481.625 347 481.625 305 c 0,30,31
 481.625 290 481.625 290 480.125 259 c 128,-1,32
 478.625 228 478.625 228 473.125 191.5 c 128,-1,33
 467.625 155 467.625 155 458.125 116 c 128,-1,34
 448.625 77 448.625 77 431.625 45 c 128,-1,35
 414.625 13 414.625 13 390.625 -7.5 c 128,-1,36
 366.625 -28 366.625 -28 332.625 -28 c 1,37,38
 370.625 -12 370.625 -12 389.125 28 c 128,-1,39
 407.625 68 407.625 68 414.125 117 c 128,-1,40
 420.625 166 420.625 166 420.125 216.5 c 128,-1,41
 419.625 267 419.625 267 419.625 305 c 0,42,43
 419.625 334 419.625 334 417.125 363.5 c 128,-1,44
 414.625 393 414.625 393 410.625 416.5 c 128,-1,45
 406.625 440 406.625 440 400.625 455 c 128,-1,46
 394.625 470 394.625 470 389.625 470 c 0,47,48
 380.625 470 380.625 470 368.625 451 c 128,-1,49
 356.625 432 356.625 432 342.125 409.5 c 128,-1,50
 327.625 387 327.625 387 311.625 368 c 128,-1,51
 295.625 349 295.625 349 279.625 349 c 0,52,53
 265.625 349 265.625 349 247.625 366.5 c 128,-1,54
 229.625 384 229.625 384 212.125 404.5 c 128,-1,55
 194.625 425 194.625 425 177.625 442.5 c 128,-1,56
 160.625 460 160.625 460 148.625 460 c 0,57,58
 134.625 460 134.625 460 123.625 433.5 c 128,-1,59
 112.625 407 112.625 407 107.625 371 c 128,-1,60
 102.625 335 102.625 335 105.125 297 c 128,-1,61
 107.625 259 107.625 259 119.625 238 c 1,62,63
 103.625 238 103.625 238 93.125 259 c 128,-1,64
 82.625 280 82.625 280 77.625 313 c 128,-1,65
 72.625 346 72.625 346 71.125 388 c 128,-1,66
 69.625 430 69.625 430 70.125 472 c 128,-1,67
 70.625 514 70.625 514 72.625 551.5 c 128,-1,68
 74.625 589 74.625 589 75.625 615 c 1,0,1
EndSplineSet
EndChar

StartChar: n
Encoding: 110 110 14
Width: 452
Flags: W
LayerCount: 2
Fore
SplineSet
70 614 m 1,0,1
 99 617 99 617 125 619.5 c 128,-1,2
 151 622 151 622 177 622 c 0,3,4
 204 622 204 622 232 619.5 c 128,-1,5
 260 617 260 617 292 614 c 1,6,7
 256 606 256 606 236 590 c 128,-1,8
 216 574 216 574 216 542 c 0,9,10
 216 528 216 528 224 501.5 c 128,-1,11
 232 475 232 475 244.5 449.5 c 128,-1,12
 257 424 257 424 271 405.5 c 128,-1,13
 285 387 285 387 298 387 c 256,14,15
 310 387 310 387 321.5 402 c 128,-1,16
 333 417 333 417 341.5 442 c 128,-1,17
 350 467 350 467 355 499 c 128,-1,18
 360 531 360 531 360 565 c 1,19,20
 369 554 369 554 374 537 c 128,-1,21
 379 520 379 520 381 500.5 c 128,-1,22
 383 481 383 481 382 461 c 128,-1,23
 381 441 381 441 379 425 c 0,24,25
 376 406 376 406 367 379.5 c 128,-1,26
 358 353 358 353 347 330 c 128,-1,27
 336 307 336 307 325 291 c 128,-1,28
 314 275 314 275 307 275 c 0,29,30
 296 275 296 275 285.5 288.5 c 128,-1,31
 275 302 275 302 265 321 c 128,-1,32
 255 340 255 340 246 361 c 128,-1,33
 237 382 237 382 230 396 c 1,34,35
 239 333 239 333 227.5 269.5 c 128,-1,36
 216 206 216 206 192.5 149 c 128,-1,37
 169 92 169 92 137.5 46 c 128,-1,38
 106 0 106 0 75 -29 c 1,39,40
 108 21 108 21 126.5 63 c 128,-1,41
 145 105 145 105 153.5 145 c 128,-1,42
 162 185 162 185 164 228 c 128,-1,43
 166 271 166 271 166 324 c 0,44,45
 166 371 166 371 151.5 418 c 128,-1,46
 137 465 137 465 118.5 505 c 128,-1,47
 100 545 100 545 85 574 c 128,-1,48
 70 603 70 603 70 614 c 1,0,1
EndSplineSet
EndChar

StartChar: o
Encoding: 111 111 15
Width: 574
Flags: W
LayerCount: 2
Fore
SplineSet
70 614 m 1,0,1
 136 616 136 616 188.5 617 c 128,-1,2
 241 618 241 618 290 618 c 0,3,4
 340 618 340 618 391.5 617 c 128,-1,5
 443 616 443 616 504 614 c 1,6,7
 495 611 495 611 484 605 c 128,-1,8
 473 599 473 599 462 591 c 128,-1,9
 451 583 451 583 444 572.5 c 128,-1,10
 437 562 437 562 437 552 c 0,11,12
 437 543 437 543 444.5 533.5 c 128,-1,13
 452 524 452 524 461.5 502.5 c 128,-1,14
 471 481 471 481 478.5 441.5 c 128,-1,15
 486 402 486 402 486 334 c 0,16,17
 486 260 486 260 478 202.5 c 128,-1,18
 470 145 470 145 451 101.5 c 128,-1,19
 432 58 432 58 400 25.5 c 128,-1,20
 368 -7 368 -7 321 -33 c 1,21,22
 339 -17 339 -17 358 6 c 128,-1,23
 377 29 377 29 392.5 56 c 128,-1,24
 408 83 408 83 418 113.5 c 128,-1,25
 428 144 428 144 428 175 c 0,26,27
 428 198 428 198 427 231 c 128,-1,28
 426 264 426 264 421.5 302.5 c 128,-1,29
 417 341 417 341 409.5 382 c 128,-1,30
 402 423 402 423 388 461 c 128,-1,31
 374 499 374 499 352.5 531.5 c 128,-1,32
 331 564 331 564 302 586 c 1,33,34
 285 590 285 590 269 590 c 256,35,36
 254 590 254 590 225 586 c 1,37,38
 228 578 228 578 237.5 570.5 c 128,-1,39
 247 563 247 563 259 552 c 1,40,41
 233 530 233 530 214.5 495 c 128,-1,42
 196 460 196 460 184.5 420.5 c 128,-1,43
 173 381 173 381 167 341.5 c 128,-1,44
 161 302 161 302 161 271 c 0,45,46
 161 216 161 216 184.5 157.5 c 128,-1,47
 208 99 208 99 263 30 c 1,48,49
 239 37 239 37 217.5 56.5 c 128,-1,50
 196 76 196 76 178.5 102.5 c 128,-1,51
 161 129 161 129 147.5 160 c 128,-1,52
 134 191 134 191 124 223 c 128,-1,53
 114 255 114 255 109 283.5 c 128,-1,54
 104 312 104 312 104 334 c 0,55,56
 104 395 104 395 108.5 435 c 128,-1,57
 113 475 113 475 118 499.5 c 128,-1,58
 123 524 123 524 128 537 c 128,-1,59
 133 550 133 550 133 557 c 0,60,61
 133 573 133 573 126 583 c 128,-1,62
 119 593 119 593 110 598.5 c 128,-1,63
 101 604 101 604 90 607.5 c 128,-1,64
 79 611 79 611 70 614 c 1,0,1
297 417 m 256,65,66
 308 417 308 417 315 411.5 c 128,-1,67
 322 406 322 406 326.5 397 c 128,-1,68
 331 388 331 388 333 378 c 128,-1,69
 335 368 335 368 335 358 c 0,70,71
 335 340 335 340 325 320 c 128,-1,72
 315 300 315 300 297 300 c 0,73,74
 290 300 290 300 283 305 c 128,-1,75
 276 310 276 310 270.5 317.5 c 128,-1,76
 265 325 265 325 262 333.5 c 128,-1,77
 259 342 259 342 259 349 c 0,78,79
 259 358 259 358 261 369.5 c 128,-1,80
 263 381 263 381 267 391.5 c 128,-1,81
 271 402 271 402 278.5 409.5 c 128,-1,82
 286 417 286 417 297 417 c 256,65,66
EndSplineSet
EndChar

StartChar: p
Encoding: 112 112 16
Width: 556
Flags: W
LayerCount: 2
Fore
SplineSet
239 421 m 0,0,1
 250 407 250 407 275 401.5 c 128,-1,2
 300 396 300 396 321 396 c 1,3,4
 328 425 328 425 337.5 449.5 c 128,-1,5
 347 474 347 474 355 496 c 128,-1,6
 363 518 363 518 368.5 539.5 c 128,-1,7
 374 561 374 561 374 585 c 1,8,9
 316 589 316 589 262 589 c 0,10,11
 209 589 209 589 143 585 c 1,12,13
 171 561 171 561 185 537.5 c 128,-1,14
 199 514 199 514 207.5 492 c 128,-1,15
 216 470 216 470 222 451.5 c 128,-1,16
 228 433 228 433 239 421 c 0,0,1
486 618 m 1,17,18
 464 576 464 576 440 524 c 128,-1,19
 416 472 416 472 396 417 c 128,-1,20
 376 362 376 362 363.5 309 c 128,-1,21
 351 256 351 256 351 213 c 0,22,23
 351 158 351 158 361.5 93 c 128,-1,24
 372 28 372 28 379 -34 c 1,25,26
 357 -8 357 -8 341 22.5 c 128,-1,27
 325 53 325 53 314.5 86 c 128,-1,28
 304 119 304 119 298 151 c 128,-1,29
 292 183 292 183 292 213 c 0,30,31
 292 264 292 264 298.5 304 c 128,-1,32
 305 344 305 344 312 377 c 1,33,34
 276 370 276 370 242 358 c 128,-1,35
 208 346 208 346 186 324 c 1,36,37
 183 357 183 357 178 392.5 c 128,-1,38
 173 428 173 428 161 465.5 c 128,-1,39
 149 503 149 503 127.5 540.5 c 128,-1,40
 106 578 106 578 70 614 c 1,41,42
 190 621 190 621 291 619.5 c 128,-1,43
 392 618 392 618 486 618 c 1,17,18
EndSplineSet
EndChar

StartChar: q
Encoding: 113 113 17
Width: 503
Flags: W
LayerCount: 2
Fore
SplineSet
424.077148438 127 m 1,0,1
 420.077148438 149 420.077148438 149 411.577148438 164.5 c 128,-1,2
 403.077148438 180 403.077148438 180 385.077148438 195 c 1,3,4
 359.077148438 195 359.077148438 195 334.077148438 192 c 128,-1,5
 309.077148438 189 309.077148438 189 283.077148438 189 c 1,6,7
 285.077148438 161 285.077148438 161 291.077148438 134.5 c 128,-1,8
 297.077148438 108 297.077148438 108 305.077148438 83 c 128,-1,9
 313.077148438 58 313.077148438 58 322.577148438 38 c 128,-1,10
 332.077148438 18 332.077148438 18 342.077148438 6 c 1,11,12
 298.077148438 6 298.077148438 6 257.577148438 7.5 c 128,-1,13
 217.077148438 9 217.077148438 9 177.077148438 6 c 1,14,15
 181.077148438 16 181.077148438 16 187.577148438 36 c 128,-1,16
 194.077148438 56 194.077148438 56 201.577148438 81 c 128,-1,17
 209.077148438 106 209.077148438 106 215.577148438 134 c 128,-1,18
 222.077148438 162 222.077148438 162 225.077148438 189 c 1,19,20
 196.077148438 189 196.077148438 189 170.577148438 189.5 c 128,-1,21
 145.077148438 190 145.077148438 190 119.077148438 195 c 1,22,23
 108.077148438 184 108.077148438 184 96.0771484375 165.5 c 128,-1,24
 84.0771484375 147 84.0771484375 147 75.0771484375 122 c 1,25,26
 71.0771484375 155 71.0771484375 155 70.0771484375 182.5 c 128,-1,27
 69.0771484375 210 69.0771484375 210 81.0771484375 243 c 1,28,29
 117.077148438 239 117.077148438 239 153.077148438 238.5 c 128,-1,30
 189.077148438 238 189.077148438 238 225.077148438 238 c 1,31,32
 225.077148438 301 225.077148438 301 210.577148438 357 c 128,-1,33
 196.077148438 413 196.077148438 413 173.577148438 460.5 c 128,-1,34
 151.077148438 508 151.077148438 508 125.077148438 547 c 128,-1,35
 99.0771484375 586 99.0771484375 586 75.0771484375 614 c 1,36,37
 270.077148438 621 270.077148438 621 429.077148438 614 c 1,38,39
 411.077148438 585 411.077148438 585 387.577148438 535.5 c 128,-1,40
 364.077148438 486 364.077148438 486 342.577148438 431.5 c 128,-1,41
 321.077148438 377 321.077148438 377 304.577148438 324.5 c 128,-1,42
 288.077148438 272 288.077148438 272 283.077148438 238 c 1,43,44
 319.077148438 238 319.077148438 238 355.077148438 238.5 c 128,-1,45
 391.077148438 239 391.077148438 239 424.077148438 243 c 1,46,47
 435.077148438 210 435.077148438 210 433.077148438 181.5 c 128,-1,48
 431.077148438 153 431.077148438 153 424.077148438 127 c 1,0,1
259.077148438 330 m 1,49,50
 270.077148438 366 270.077148438 366 282.077148438 398 c 128,-1,51
 294.077148438 430 294.077148438 430 307.577148438 461 c 128,-1,52
 321.077148438 492 321.077148438 492 336.577148438 522.5 c 128,-1,53
 352.077148438 553 352.077148438 553 370.077148438 586 c 1,54,55
 356.077148438 582 356.077148438 582 344.577148438 575.5 c 128,-1,56
 333.077148438 569 333.077148438 569 322.077148438 561 c 1,57,58
 286.077148438 565 286.077148438 565 259.077148438 563 c 128,-1,59
 232.077148438 561 232.077148438 561 196.077148438 561 c 1,60,61
 192.077148438 569 192.077148438 569 183.077148438 574 c 128,-1,62
 174.077148438 579 174.077148438 579 162.077148438 586 c 1,63,64
 202.077148438 525 202.077148438 525 225.077148438 460.5 c 128,-1,65
 248.077148438 396 248.077148438 396 259.077148438 330 c 1,49,50
EndSplineSet
EndChar

StartChar: r
Encoding: 114 114 18
Width: 538
Flags: W
LayerCount: 2
Fore
SplineSet
70 508 m 1,0,1
 83 532 83 532 106 551.5 c 128,-1,2
 129 571 129 571 157 585 c 128,-1,3
 185 599 185 599 216 606.5 c 128,-1,4
 247 614 247 614 278 614 c 0,5,6
 315 614 315 614 349 607 c 128,-1,7
 383 600 383 600 409.5 584.5 c 128,-1,8
 436 569 436 569 452 546.5 c 128,-1,9
 468 524 468 524 468 494 c 1,10,11
 421 483 421 483 376 470.5 c 128,-1,12
 331 458 331 458 297 438 c 128,-1,13
 263 418 263 418 242 386 c 128,-1,14
 221 354 221 354 221 305 c 0,15,16
 221 269 221 269 223 224.5 c 128,-1,17
 225 180 225 180 229.5 134 c 128,-1,18
 234 88 234 88 241 44.5 c 128,-1,19
 248 1 248 1 260 -33 c 1,20,21
 246 -19 246 -19 231.5 10 c 128,-1,22
 217 39 217 39 203.5 74.5 c 128,-1,23
 190 110 190 110 179.5 149.5 c 128,-1,24
 169 189 169 189 160.5 226.5 c 128,-1,25
 152 264 152 264 147.5 295 c 128,-1,26
 143 326 143 326 143 344 c 0,27,28
 143 370 143 370 151 386.5 c 128,-1,29
 159 403 159 403 173.5 415.5 c 128,-1,30
 188 428 188 428 206 436.5 c 128,-1,31
 224 445 224 445 244 455 c 0,32,33
 274 469 274 469 303.5 485 c 128,-1,34
 333 501 333 501 351 508 c 1,35,36
 325 526 325 526 287.5 541.5 c 128,-1,37
 250 557 250 557 210 557 c 0,38,39
 184 557 184 557 163.5 552 c 128,-1,40
 143 547 143 547 126 539.5 c 128,-1,41
 109 532 109 532 95 523.5 c 128,-1,42
 81 515 81 515 70 508 c 1,0,1
EndSplineSet
EndChar

StartChar: s
Encoding: 115 115 19
Width: 495
Flags: W
LayerCount: 2
Fore
SplineSet
148 613 m 1,0,1
 218 621 218 621 273 622 c 128,-1,2
 328 623 328 623 379 618 c 1,3,4
 395 606 395 606 405 588 c 128,-1,5
 415 570 415 570 420 550.5 c 128,-1,6
 425 531 425 531 425.5 513.5 c 128,-1,7
 426 496 426 496 423 483 c 1,8,9
 414 492 414 492 406.5 504 c 128,-1,10
 399 516 399 516 390 528.5 c 128,-1,11
 381 541 381 541 370.5 552 c 128,-1,12
 360 563 360 563 346 570 c 0,13,14
 329 574 329 574 308 574 c 0,15,16
 289 574 289 574 259 570 c 1,17,18
 288 546 288 546 307.5 516.5 c 128,-1,19
 327 487 327 487 337.5 457 c 128,-1,20
 348 427 348 427 347.5 398.5 c 128,-1,21
 347 370 347 370 336 348 c 1,22,23
 314 374 314 374 282.5 392.5 c 128,-1,24
 251 411 251 411 216 425 c 1,25,26
 245 392 245 392 272.5 353 c 128,-1,27
 300 314 300 314 322 272 c 128,-1,28
 344 230 344 230 357 186.5 c 128,-1,29
 370 143 370 143 370 101 c 0,30,31
 370 77 370 77 357.5 51.5 c 128,-1,32
 345 26 345 26 325.5 2 c 128,-1,33
 306 -22 306 -22 283 -40 c 128,-1,34
 260 -58 260 -58 240 -68 c 1,35,36
 258 -50 258 -50 275 -36.5 c 128,-1,37
 292 -23 292 -23 306 -5.5 c 128,-1,38
 320 12 320 12 328 36.5 c 128,-1,39
 336 61 336 61 336 101 c 0,40,41
 336 160 336 160 307.5 216 c 128,-1,42
 279 272 279 272 237.5 320.5 c 128,-1,43
 196 369 196 369 150.5 407.5 c 128,-1,44
 105 446 105 446 70 474 c 1,45,46
 128 474 128 474 187.5 466 c 128,-1,47
 247 458 247 458 303 439 c 1,48,49
 298 463 298 463 281 488.5 c 128,-1,50
 264 514 264 514 242 537.5 c 128,-1,51
 220 561 220 561 195 581 c 128,-1,52
 170 601 170 601 148 613 c 1,0,1
EndSplineSet
EndChar

StartChar: t
Encoding: 116 116 20
Width: 517
Flags: W
LayerCount: 2
Fore
SplineSet
244 93 m 1,0,1
 275 93 275 93 302 102.5 c 128,-1,2
 329 112 329 112 353.5 127 c 128,-1,3
 378 142 378 142 399.5 162 c 128,-1,4
 421 182 421 182 442 204 c 1,5,6
 426 173 426 173 403 139.5 c 128,-1,7
 380 106 380 106 353.5 78.5 c 128,-1,8
 327 51 327 51 297.5 33 c 128,-1,9
 268 15 268 15 239 15 c 0,10,11
 206 15 206 15 180.5 34.5 c 128,-1,12
 155 54 155 54 136.5 84 c 128,-1,13
 118 114 118 114 106.5 149.5 c 128,-1,14
 95 185 95 185 90 218 c 1,15,16
 120 171 120 171 143.5 140 c 128,-1,17
 167 109 167 109 200 97 c 1,18,19
 208 127 208 127 206.5 163 c 128,-1,20
 205 199 205 199 205 228 c 0,21,22
 205 286 205 286 193.5 342.5 c 128,-1,23
 182 399 182 399 163 450 c 128,-1,24
 144 501 144 501 120 543.5 c 128,-1,25
 96 586 96 586 70 614 c 1,26,-1
 360 620 l 1,27,28
 346 681 346 681 290.5 718 c 128,-1,29
 235 755 235 755 138 784 c 1,30,31
 188 784 188 784 237.5 773 c 128,-1,32
 287 762 287 762 328.5 740.5 c 128,-1,33
 370 719 370 719 401.5 688 c 128,-1,34
 433 657 433 657 447 620 c 1,35,36
 407 580 407 580 365.5 559 c 128,-1,37
 324 538 324 538 287 538 c 0,38,39
 251 538 251 538 218 551.5 c 128,-1,40
 185 565 185 565 152 591 c 1,41,42
 171 573 171 573 194 552 c 128,-1,43
 217 531 217 531 235 505 c 128,-1,44
 253 479 253 479 265.5 445.5 c 128,-1,45
 278 412 278 412 278 369 c 0,46,47
 278 307 278 307 265 238.5 c 128,-1,48
 252 170 252 170 234 93 c 1,49,-1
 244 93 l 1,50,-1
 244 93 l 1,0,1
EndSplineSet
EndChar

StartChar: u
Encoding: 117 117 21
Width: 503
Flags: W
LayerCount: 2
Fore
SplineSet
70 614 m 1,0,1
 161 607 161 607 244 607 c 256,2,3
 327 607 327 607 418 614 c 1,4,5
 392 603 392 603 373.5 594 c 128,-1,6
 355 585 355 585 351 566 c 0,7,8
 348 555 348 555 360 536 c 128,-1,9
 372 517 372 517 388 486.5 c 128,-1,10
 404 456 404 456 418.5 411.5 c 128,-1,11
 433 367 433 367 433 305 c 0,12,13
 433 234 433 234 419 178.5 c 128,-1,14
 405 123 405 123 381 84.5 c 128,-1,15
 357 46 357 46 323 26 c 128,-1,16
 289 6 289 6 249 6 c 0,17,18
 216 6 216 6 185 14 c 128,-1,19
 154 22 154 22 129.5 44 c 128,-1,20
 105 66 105 66 90 104 c 128,-1,21
 75 142 75 142 75 204 c 0,22,23
 75 281 75 281 84 331 c 128,-1,24
 93 381 93 381 114 417 c 1,25,26
 138 410 138 410 151 397 c 128,-1,27
 164 384 164 384 172 369.5 c 128,-1,28
 180 355 180 355 182.5 340.5 c 128,-1,29
 185 326 185 326 187 315 c 1,30,31
 173 329 173 329 161.5 340.5 c 128,-1,32
 150 352 150 352 129 364 c 1,33,34
 122 350 122 350 118 332.5 c 128,-1,35
 114 315 114 315 114 301 c 0,36,37
 114 261 114 261 125.5 218 c 128,-1,38
 137 175 137 175 157 139.5 c 128,-1,39
 177 104 177 104 204 81.5 c 128,-1,40
 231 59 231 59 264 59 c 0,41,42
 286 59 286 59 304.5 70 c 128,-1,43
 323 81 323 81 336.5 106 c 128,-1,44
 350 131 350 131 357.5 173 c 128,-1,45
 365 215 365 215 365 276 c 0,46,47
 365 334 365 334 341.5 388 c 128,-1,48
 318 442 318 442 277.5 487 c 128,-1,49
 237 532 237 532 183 565 c 128,-1,50
 129 598 129 598 70 614 c 1,0,1
240 291 m 0,51,52
 266 291 266 291 277 278.5 c 128,-1,53
 288 266 288 266 288 252 c 256,54,55
 288 238 288 238 275 228 c 128,-1,56
 262 218 262 218 240 218 c 0,57,58
 222 218 222 218 206.5 228 c 128,-1,59
 191 238 191 238 191 252 c 256,60,61
 191 266 191 266 204 278.5 c 128,-1,62
 217 291 217 291 240 291 c 0,51,52
EndSplineSet
EndChar

StartChar: v
Encoding: 118 118 22
Width: 493
Flags: W
LayerCount: 2
Fore
SplineSet
85 614 m 1,0,1
 130 618 130 618 168.5 620 c 128,-1,2
 207 622 207 622 242 622 c 0,3,4
 278 622 278 622 311.5 620 c 128,-1,5
 345 618 345 618 379 614 c 1,6,7
 365 611 365 611 350.5 600 c 128,-1,8
 336 589 336 589 336 571 c 0,9,10
 336 551 336 551 350 526.5 c 128,-1,11
 364 502 364 502 380 470 c 128,-1,12
 396 438 396 438 409.5 398.5 c 128,-1,13
 423 359 423 359 423 310 c 0,14,15
 423 241 423 241 407 185.5 c 128,-1,16
 391 130 391 130 365.5 90 c 128,-1,17
 340 50 340 50 309 27 c 128,-1,18
 278 4 278 4 249 1 c 1,19,20
 271 17 271 17 292.5 41 c 128,-1,21
 314 65 314 65 331.5 94 c 128,-1,22
 349 123 349 123 359.5 155.5 c 128,-1,23
 370 188 370 188 370 223 c 0,24,25
 370 266 370 266 360 315.5 c 128,-1,26
 350 365 350 365 331.5 414 c 128,-1,27
 313 463 313 463 288.5 508.5 c 128,-1,28
 264 554 264 554 235 591 c 1,29,30
 213 565 213 565 195.5 526 c 128,-1,31
 178 487 178 487 165 444.5 c 128,-1,32
 152 402 152 402 145 360.5 c 128,-1,33
 138 319 138 319 138 291 c 0,34,35
 138 255 138 255 144.5 215 c 128,-1,36
 151 175 151 175 163 136 c 128,-1,37
 175 97 175 97 190.5 61 c 128,-1,38
 206 25 206 25 225 -4 c 1,39,40
 194 12 194 12 166 44 c 128,-1,41
 138 76 138 76 117 114.5 c 128,-1,42
 96 153 96 153 83 194.5 c 128,-1,43
 70 236 70 236 70 271 c 0,44,45
 70 329 70 329 79.5 371.5 c 128,-1,46
 89 414 89 414 99.5 446.5 c 128,-1,47
 110 479 110 479 119.5 505 c 128,-1,48
 129 531 129 531 129 557 c 0,49,50
 129 579 129 579 116 593 c 128,-1,51
 103 607 103 607 85 614 c 1,0,1
EndSplineSet
EndChar

StartChar: w
Encoding: 119 119 23
Width: 604
Flags: W
LayerCount: 2
Fore
SplineSet
278 126 m 1,0,1
 290 155 290 155 300.5 186.5 c 128,-1,2
 311 218 311 218 317.5 249.5 c 128,-1,3
 324 281 324 281 327.5 310 c 128,-1,4
 331 339 331 339 331 362 c 0,5,6
 331 388 331 388 322.5 421.5 c 128,-1,7
 314 455 314 455 300.5 484.5 c 128,-1,8
 287 514 287 514 272 535 c 128,-1,9
 257 556 257 556 244 556 c 0,10,11
 230 556 230 556 213 534.5 c 128,-1,12
 196 513 196 513 181.5 483 c 128,-1,13
 167 453 167 453 157.5 419.5 c 128,-1,14
 148 386 148 386 148 362 c 0,15,16
 148 331 148 331 160 297.5 c 128,-1,17
 172 264 172 264 190 232 c 128,-1,18
 208 200 208 200 231 172 c 128,-1,19
 254 144 254 144 278 126 c 1,0,1
520 691 m 1,20,21
 532 671 532 671 534 638.5 c 128,-1,22
 536 606 536 606 528 572.5 c 128,-1,23
 520 539 520 539 500.5 508.5 c 128,-1,24
 481 478 481 478 452 464 c 1,25,26
 456 469 456 469 461 478.5 c 128,-1,27
 466 488 466 488 470.5 500 c 128,-1,28
 475 512 475 512 477 525.5 c 128,-1,29
 479 539 479 539 477 551 c 1,30,31
 463 569 463 569 446 574.5 c 128,-1,32
 429 580 429 580 414 580 c 0,33,34
 391 580 391 580 373.5 564 c 128,-1,35
 356 548 356 548 356 522 c 0,36,37
 356 492 356 492 361 471 c 128,-1,38
 366 450 366 450 380 435 c 2,39,-1
 418 391 l 1,40,41
 411 346 411 346 398 292.5 c 128,-1,42
 385 239 385 239 366.5 185 c 128,-1,43
 348 131 348 131 326 83 c 128,-1,44
 304 35 304 35 278 0 c 1,45,46
 261 4 261 4 225 4 c 0,47,48
 190 4 190 4 157 0 c 1,49,50
 190 7 190 7 215.5 33 c 128,-1,51
 241 59 241 59 260 92 c 1,52,53
 236 108 236 108 205 136.5 c 128,-1,54
 174 165 174 165 146 198.5 c 128,-1,55
 118 232 118 232 99 268.5 c 128,-1,56
 80 305 80 305 80 338 c 0,57,58
 80 352 80 352 90 377.5 c 128,-1,59
 100 403 100 403 111.5 433 c 128,-1,60
 123 463 123 463 133 492.5 c 128,-1,61
 143 522 143 522 143 546 c 0,62,63
 143 560 143 560 136.5 571.5 c 128,-1,64
 130 583 130 583 119.5 591 c 128,-1,65
 109 599 109 599 95.5 604.5 c 128,-1,66
 82 610 82 610 70 613 c 1,67,68
 122 610 122 610 166 608 c 128,-1,69
 210 606 210 606 251.5 605.5 c 128,-1,70
 293 605 293 605 334.5 606 c 128,-1,71
 376 607 376 607 423 609 c 1,72,73
 459 616 459 616 482.5 640.5 c 128,-1,74
 506 665 506 665 520 691 c 1,20,21
EndSplineSet
EndChar

StartChar: x
Encoding: 120 120 24
Width: 597
Flags: W
LayerCount: 2
Fore
SplineSet
357 673 m 1,0,1
 450 624 450 624 488.5 536.5 c 128,-1,2
 527 449 527 449 527 332 c 0,3,4
 527 281 527 281 517.5 229 c 128,-1,5
 508 177 508 177 491 131.5 c 128,-1,6
 474 86 474 86 448.5 51 c 128,-1,7
 423 16 423 16 392 0 c 1,8,9
 362 2 362 2 316.5 5 c 128,-1,10
 271 8 271 8 224 7 c 128,-1,11
 177 6 177 6 135 -3 c 128,-1,12
 93 -12 93 -12 70 -35 c 1,13,14
 70 7 70 7 104 29 c 128,-1,15
 138 51 138 51 191 55 c 1,16,17
 157 101 157 101 136.5 159.5 c 128,-1,18
 116 218 116 218 116 287 c 0,19,20
 116 337 116 337 132 389.5 c 128,-1,21
 148 442 148 442 173 487 c 128,-1,22
 198 532 198 532 228.5 565.5 c 128,-1,23
 259 599 259 599 286 612 c 1,24,25
 273 594 273 594 255 567.5 c 128,-1,26
 237 541 237 541 220.5 506.5 c 128,-1,27
 204 472 204 472 192.5 429.5 c 128,-1,28
 181 387 181 387 181 337 c 0,29,30
 181 268 181 268 197.5 200 c 128,-1,31
 214 132 214 132 251 60 c 1,32,-1
 357 60 l 1,33,34
 372 73 372 73 389.5 99.5 c 128,-1,35
 407 126 407 126 422 166 c 128,-1,36
 437 206 437 206 447 260 c 128,-1,37
 457 314 457 314 457 382 c 0,38,39
 457 443 457 443 451 486.5 c 128,-1,40
 445 530 445 530 432.5 562.5 c 128,-1,41
 420 595 420 595 401.5 620.5 c 128,-1,42
 383 646 383 646 357 673 c 1,0,1
EndSplineSet
EndChar

StartChar: y
Encoding: 121 121 25
Width: 493
Flags: W
LayerCount: 2
Fore
SplineSet
423 610 m 1,0,1
 383 570 383 570 355 510.5 c 128,-1,2
 327 451 327 451 308.5 378.5 c 128,-1,3
 290 306 290 306 279.5 225.5 c 128,-1,4
 269 145 269 145 264 63 c 1,5,6
 290 49 290 49 319.5 34 c 128,-1,7
 349 19 349 19 385 1 c 1,8,9
 340 1 340 1 285 4 c 128,-1,10
 230 7 230 7 182.5 18.5 c 128,-1,11
 135 30 135 30 102.5 52 c 128,-1,12
 70 74 70 74 70 112 c 0,13,14
 70 128 70 128 77 146.5 c 128,-1,15
 84 165 84 165 95 182 c 128,-1,16
 106 199 106 199 121 212 c 128,-1,17
 136 225 136 225 152 232 c 1,18,19
 141 221 141 221 135 205 c 128,-1,20
 129 189 129 189 129 175 c 0,21,22
 129 157 129 157 148 137.5 c 128,-1,23
 167 118 167 118 216 88 c 1,24,25
 225 184 225 184 221 268 c 128,-1,26
 217 352 217 352 201.5 420 c 128,-1,27
 186 488 186 488 161.5 538 c 128,-1,28
 137 588 137 588 104 614 c 1,29,30
 144 618 144 618 174 616 c 128,-1,31
 204 614 204 614 230 614 c 1,32,33
 239 607 239 607 240 596.5 c 128,-1,34
 241 586 241 586 240.5 574.5 c 128,-1,35
 240 563 240 563 239.5 553 c 128,-1,36
 239 543 239 543 244 538 c 1,37,38
 280 549 280 549 322.5 564.5 c 128,-1,39
 365 580 365 580 423 610 c 1,0,1
EndSplineSet
EndChar

StartChar: z
Encoding: 122 122 26
Width: 368
Flags: W
LayerCount: 2
Fore
SplineSet
70 591 m 1,0,1
 79 598 79 598 88 602.5 c 128,-1,2
 97 607 97 607 108.5 609.5 c 128,-1,3
 120 612 120 612 135.5 613 c 128,-1,4
 151 614 151 614 173 614 c 0,5,6
 197 614 197 614 217.5 610 c 128,-1,7
 238 606 238 606 254 599.5 c 128,-1,8
 270 593 270 593 279 584 c 128,-1,9
 288 575 288 575 288 566 c 256,10,11
 288 557 288 557 275.5 558.5 c 128,-1,12
 263 560 263 560 243 560 c 256,13,14
 224 560 224 560 202.5 553 c 128,-1,15
 181 546 181 546 162 518 c 1,16,17
 180 518 180 518 196 518 c 256,18,19
 211 518 211 518 226.5 517 c 128,-1,20
 242 516 242 516 259 514 c 128,-1,21
 276 512 276 512 298 508 c 1,22,23
 265 474 265 474 247.5 409 c 128,-1,24
 230 344 230 344 222 263.5 c 128,-1,25
 214 183 214 183 212 95.5 c 128,-1,26
 210 8 210 8 210 -72 c 1,27,28
 194 18 194 18 182.5 98 c 128,-1,29
 171 178 171 178 158 249.5 c 128,-1,30
 145 321 145 321 129 385 c 128,-1,31
 113 449 113 449 90 508 c 1,32,33
 99 524 99 524 114.5 535 c 128,-1,34
 130 546 130 546 145 552.5 c 128,-1,35
 160 559 160 559 171 563 c 128,-1,36
 182 567 182 567 182 571 c 0,37,38
 182 574 182 574 172.5 579.5 c 128,-1,39
 163 585 163 585 148 588.5 c 128,-1,40
 133 592 133 592 112.5 593 c 128,-1,41
 92 594 92 594 70 591 c 1,0,1
EndSplineSet
EndChar

StartChar: B
Encoding: 66 66 27
Width: 679
Flags: W
LayerCount: 2
Fore
SplineSet
86 231 m 0,0,1
 86 274 86 274 82.5 327 c 128,-1,2
 79 380 79 380 77.5 426.5 c 128,-1,3
 76 473 76 473 78 504.5 c 128,-1,4
 80 536 80 536 90 536 c 0,5,6
 100 536 100 536 106 509.5 c 128,-1,7
 112 483 112 483 117 445 c 128,-1,8
 122 407 122 407 128.5 361 c 128,-1,9
 135 315 135 315 144.5 277 c 128,-1,10
 154 239 154 239 168.5 212.5 c 128,-1,11
 183 186 183 186 205 186 c 0,12,13
 231 186 231 186 248.5 196.5 c 128,-1,14
 266 207 266 207 276 224.5 c 128,-1,15
 286 242 286 242 290 264.5 c 128,-1,16
 294 287 294 287 294 311 c 0,17,18
 294 345 294 345 285 367.5 c 128,-1,19
 276 390 276 390 262 408 c 128,-1,20
 248 426 248 426 232 442 c 128,-1,21
 216 458 216 458 202 476.5 c 128,-1,22
 188 495 188 495 179 519.5 c 128,-1,23
 170 544 170 544 170 581 c 0,24,25
 170 607 170 607 170.5 633 c 128,-1,26
 171 659 171 659 169 683 c 128,-1,27
 167 707 167 707 163 726.5 c 128,-1,28
 159 746 159 746 150 760 c 0,29,30
 139 775 139 775 125 783.5 c 128,-1,31
 111 792 111 792 99 797 c 128,-1,32
 87 802 87 802 78.5 805.5 c 128,-1,33
 70 809 70 809 70 814 c 0,34,35
 70 822 70 822 137.5 820.5 c 128,-1,36
 205 819 205 819 345 819 c 0,37,38
 422 819 422 819 472.5 819.5 c 128,-1,39
 523 820 523 820 553.5 819.5 c 128,-1,40
 584 819 584 819 596.5 817 c 128,-1,41
 609 815 609 815 609 810 c 2,42,-1
 609 690 l 2,43,44
 609 643 609 643 583.5 613.5 c 128,-1,45
 558 584 558 584 526.5 569 c 128,-1,46
 495 554 495 554 469.5 552.5 c 128,-1,47
 444 551 444 551 444 560 c 0,48,49
 444 567 444 567 457.5 569 c 128,-1,50
 471 571 471 571 486.5 579 c 128,-1,51
 502 587 502 587 515.5 605.5 c 128,-1,52
 529 624 529 624 529 665 c 0,53,54
 529 697 529 697 517.5 719 c 128,-1,55
 506 741 506 741 487 756 c 128,-1,56
 468 771 468 771 441 777.5 c 128,-1,57
 414 784 414 784 385 784 c 0,58,59
 365 784 365 784 337 784 c 0,60,61
 311 784 311 784 288.5 781.5 c 128,-1,62
 266 779 266 779 250.5 772 c 128,-1,63
 235 765 235 765 235 750 c 0,64,65
 235 720 235 720 262 679 c 128,-1,66
 289 638 289 638 322 589 c 128,-1,67
 355 540 355 540 382 482 c 128,-1,68
 409 424 409 424 409 360 c 0,69,70
 409 323 409 323 386 282 c 128,-1,71
 363 241 363 241 328 201 c 128,-1,72
 293 161 293 161 251.5 125 c 128,-1,73
 210 89 210 89 174 62 c 128,-1,74
 138 35 138 35 112 18.5 c 128,-1,75
 86 2 86 2 80 2 c 0,76,77
 76 2 76 2 76.5 19 c 128,-1,78
 77 36 77 36 79 66 c 128,-1,79
 81 96 81 96 83.5 138 c 128,-1,80
 86 180 86 180 86 231 c 0,0,1
EndSplineSet
EndChar

StartChar: C
Encoding: 67 67 28
Width: 679
Flags: W
LayerCount: 2
Fore
SplineSet
81 810 m 0,0,1
 84 815 84 815 96 816.5 c 128,-1,2
 108 818 108 818 135.5 817.5 c 128,-1,3
 163 817 163 817 212.5 816 c 128,-1,4
 262 815 262 815 341 815 c 0,5,6
 418 815 418 815 467.5 816.5 c 128,-1,7
 517 818 517 818 546 818.5 c 128,-1,8
 575 819 575 819 588 818.5 c 128,-1,9
 601 818 601 818 605 815 c 0,10,11
 609 811 609 811 609.5 788 c 128,-1,12
 610 765 610 765 609 718.5 c 128,-1,13
 608 672 608 672 606.5 601 c 128,-1,14
 605 530 605 530 605 431 c 0,15,16
 605 190 605 190 602.5 68.5 c 128,-1,17
 600 -53 600 -53 584 -53 c 0,18,19
 575 -53 575 -53 573.5 -7.5 c 128,-1,20
 572 38 572 38 570.5 112.5 c 128,-1,21
 569 187 569 187 564.5 283 c 128,-1,22
 560 379 560 379 545 480 c 0,23,24
 536 548 536 548 518 583 c 128,-1,25
 500 618 500 618 482.5 634.5 c 128,-1,26
 465 651 465 651 452.5 655 c 128,-1,27
 440 659 440 659 440 666 c 0,28,29
 440 669 440 669 456 671.5 c 128,-1,30
 472 674 472 674 490 683 c 128,-1,31
 508 692 508 692 524 710.5 c 128,-1,32
 540 729 540 729 540 765 c 1,33,-1
 136 765 l 1,34,35
 136 737 136 737 154 719.5 c 128,-1,36
 172 702 172 702 193.5 692 c 128,-1,37
 215 682 215 682 232.5 676.5 c 128,-1,38
 250 671 250 671 250 666 c 0,39,40
 250 660 250 660 239.5 656 c 128,-1,41
 229 652 229 652 213.5 637.5 c 128,-1,42
 198 623 198 623 181 591.5 c 128,-1,43
 164 560 164 560 151 501 c 0,44,45
 139 448 139 448 130.5 386 c 128,-1,46
 122 324 122 324 117 263 c 128,-1,47
 112 202 112 202 109 145.5 c 128,-1,48
 106 89 106 89 103 46 c 128,-1,49
 100 3 100 3 96 -22.5 c 128,-1,50
 92 -48 92 -48 86 -48 c 0,51,52
 81 -48 81 -48 77.5 -22.5 c 128,-1,53
 74 3 74 3 72.5 44.5 c 128,-1,54
 71 86 71 86 70.5 138.5 c 128,-1,55
 70 191 70 191 70 246 c 0,56,57
 70 301 70 301 70.5 353.5 c 128,-1,58
 71 406 71 406 71 445 c 0,59,60
 71 544 71 544 71 612 c 256,61,62
 71 680 71 680 72 723 c 128,-1,63
 73 766 73 766 75 786 c 128,-1,64
 77 806 77 806 81 810 c 0,0,1
EndSplineSet
EndChar

StartChar: D
Encoding: 68 68 29
Width: 594
Flags: W
LayerCount: 2
Fore
SplineSet
165 817 m 0,0,1
 168 820 168 820 183 820.5 c 128,-1,2
 198 821 198 821 220.5 820.5 c 128,-1,3
 243 820 243 820 271.5 818.5 c 128,-1,4
 300 817 300 817 329 817 c 0,5,6
 365 817 365 817 398 817.5 c 128,-1,7
 431 818 431 818 456 818.5 c 128,-1,8
 481 819 481 819 496 819 c 256,9,10
 511 819 511 819 514 817 c 0,11,12
 515 814 515 814 516 793 c 128,-1,13
 517 772 517 772 517.5 739 c 128,-1,14
 518 706 518 706 518.5 664.5 c 128,-1,15
 519 623 519 623 519 580 c 0,16,17
 519 538 519 538 519 498 c 256,18,19
 519 458 519 458 519 428 c 0,20,21
 519 375 519 375 520 318 c 128,-1,22
 521 261 521 261 522 208 c 128,-1,23
 523 155 523 155 524 107.5 c 128,-1,24
 525 60 525 60 524.5 25 c 128,-1,25
 524 -10 524 -10 521.5 -30.5 c 128,-1,26
 519 -51 519 -51 514 -51 c 256,27,28
 509 -51 509 -51 504.5 -30 c 128,-1,29
 500 -9 500 -9 496 25 c 128,-1,30
 492 59 492 59 489 105 c 128,-1,31
 486 151 486 151 483.5 200.5 c 128,-1,32
 481 250 481 250 480 299.5 c 128,-1,33
 479 349 479 349 479 393 c 0,34,35
 479 451 479 451 476.5 502 c 128,-1,36
 474 553 474 553 464.5 596 c 128,-1,37
 455 639 455 639 437 673.5 c 128,-1,38
 419 708 419 708 390 732 c 0,39,40
 348 770 348 770 304.5 786 c 128,-1,41
 261 802 261 802 215 802 c 0,42,43
 192 802 192 802 183 794 c 128,-1,44
 174 786 174 786 173.5 774 c 128,-1,45
 173 762 173 762 179.5 747 c 128,-1,46
 186 732 186 732 195 717 c 0,47,48
 206 699 206 699 226.5 682.5 c 128,-1,49
 247 666 247 666 284 657 c 1,50,51
 266 646 266 646 251 619 c 128,-1,52
 236 592 236 592 225 562 c 0,53,54
 219 542 219 542 217.5 523 c 128,-1,55
 216 504 216 504 214.5 489.5 c 128,-1,56
 213 475 213 475 210 466.5 c 128,-1,57
 207 458 207 458 200 458 c 0,58,59
 195 458 195 458 192.5 473 c 128,-1,60
 190 488 190 488 188.5 512 c 128,-1,61
 187 536 187 536 185.5 563 c 128,-1,62
 184 590 184 590 181.5 613.5 c 128,-1,63
 179 637 179 637 174 652.5 c 128,-1,64
 169 668 169 668 160 668 c 0,65,66
 151 668 151 668 143 651 c 128,-1,67
 135 634 135 634 130 604.5 c 128,-1,68
 125 575 125 575 124.5 536.5 c 128,-1,69
 124 498 124 498 130 453 c 0,70,71
 137 410 137 410 157 368.5 c 128,-1,72
 177 327 177 327 201 292.5 c 128,-1,73
 225 258 225 258 250.5 234.5 c 128,-1,74
 276 211 276 211 294 204 c 1,75,76
 286 174 286 174 290 138.5 c 128,-1,77
 294 103 294 103 310 74 c 0,78,79
 321 49 321 49 335.5 27.5 c 128,-1,80
 350 6 350 6 360.5 -10.5 c 128,-1,81
 371 -27 371 -27 374.5 -36.5 c 128,-1,82
 378 -46 378 -46 369 -46 c 0,83,84
 364 -46 364 -46 341.5 -31 c 128,-1,85
 319 -16 319 -16 288.5 12 c 128,-1,86
 258 40 258 40 222.5 82 c 128,-1,87
 187 124 187 124 155 178 c 0,88,89
 135 214 135 214 119 256 c 128,-1,90
 103 298 103 298 92 343 c 128,-1,91
 81 388 81 388 75.5 433.5 c 128,-1,92
 70 479 70 479 70 522 c 0,93,94
 70 578 70 578 84.5 630.5 c 128,-1,95
 99 683 99 683 116.5 724 c 128,-1,96
 134 765 134 765 148.5 790 c 128,-1,97
 163 815 163 815 165 817 c 0,0,1
EndSplineSet
EndChar

StartChar: E
Encoding: 69 69 30
Width: 634
Flags: W
LayerCount: 2
Fore
SplineSet
70 810 m 0,0,1
 70 816 70 816 106 819 c 128,-1,2
 142 822 142 822 195.5 823 c 128,-1,3
 249 824 249 824 312 823.5 c 128,-1,4
 375 823 375 823 429 822 c 128,-1,5
 483 821 483 821 519 820 c 0,6,-1
 555 819 l 1,7,-1
 564 226 l 1,8,9
 560 244.5 l 0,10,11
 556 263 556 263 546.5 287.5 c 128,-1,12
 537 312 537 312 522 337 c 128,-1,13
 507 362 507 362 485 376 c 0,14,15
 472 385 472 385 451.5 390 c 128,-1,16
 431 395 431 395 409 397 c 128,-1,17
 387 399 387 399 364.5 399.5 c 128,-1,18
 342 400 342 400 325 400 c 0,19,20
 269 400 269 400 228.5 394.5 c 128,-1,21
 188 389 188 389 165 366 c 1,22,23
 138 348 138 348 131.5 319 c 128,-1,24
 125 290 125 290 125 256 c 0,25,26
 125 241 125 241 128 221 c 128,-1,27
 131 201 131 201 136.5 180.5 c 128,-1,28
 142 160 142 160 149 141.5 c 128,-1,29
 156 123 156 123 165 112 c 0,30,31
 178 94 178 94 192 79.5 c 128,-1,32
 206 65 206 65 226 55.5 c 128,-1,33
 246 46 246 46 273.5 41.5 c 128,-1,34
 301 37 301 37 340 37 c 0,35,36
 441 37 441 37 487 37 c 0,37,38
 534 37 534 37 534 22 c 0,39,40
 534 16 534 16 501 12.5 c 128,-1,41
 468 9 468 9 418 8 c 128,-1,42
 368 7 368 7 309.5 7.5 c 128,-1,43
 251 8 251 8 201.5 9 c 128,-1,44
 152 10 152 10 119 11 c 0,45,-1
 86 12 l 1,46,-1
 75 610 l 1,47,48
 86 568 86 568 103.5 538.5 c 128,-1,49
 121 509 121 509 141 490 c 0,50,51
 157 475 157 475 175.5 469 c 128,-1,52
 194 463 194 463 215 461 c 128,-1,53
 236 459 236 459 258 460 c 128,-1,54
 280 461 280 461 305 461 c 0,55,56
 370 461 370 461 411.5 464 c 128,-1,57
 453 467 453 467 480 485 c 1,58,59
 503 508 503 508 509 537.5 c 128,-1,60
 515 567 515 567 515 605 c 0,61,62
 515 620 515 620 513.5 637 c 128,-1,63
 512 654 512 654 507.5 671.5 c 128,-1,64
 503 689 503 689 495.5 705.5 c 128,-1,65
 488 722 488 722 475 735 c 0,66,67
 457 753 457 753 437 765 c 128,-1,68
 417 777 417 777 394.5 783.5 c 128,-1,69
 372 790 372 790 345.5 792.5 c 128,-1,70
 319 795 319 795 285 795 c 0,71,72
 240 795 240 795 201 793.5 c 128,-1,73
 162 792 162 792 133 792 c 128,-1,74
 104 792 104 792 87 795.5 c 128,-1,75
 70 799 70 799 70 810 c 0,0,1
EndSplineSet
EndChar

StartChar: F
Encoding: 70 70 31
Width: 738
Flags: W
LayerCount: 2
Fore
SplineSet
668.5 555 m 1,0,1
 654.5 537 654.5 537 644 492 c 128,-1,2
 633.5 447 633.5 447 633.5 395 c 0,3,4
 635.5 363 635.5 363 638.5 333 c 128,-1,5
 641.5 303 641.5 303 643.5 279 c 128,-1,6
 645.5 255 645.5 255 646 240.5 c 128,-1,7
 646.5 226 646.5 226 643.5 226 c 0,8,9
 634.5 226 634.5 226 629.5 238 c 128,-1,10
 624.5 250 624.5 250 619.5 268.5 c 128,-1,11
 614.5 287 614.5 287 609.5 309 c 128,-1,12
 604.5 331 604.5 331 595.5 351.5 c 128,-1,13
 586.5 372 586.5 372 573 388 c 128,-1,14
 559.5 404 559.5 404 538.5 411 c 0,15,16
 518.5 418 518.5 418 493.5 421 c 128,-1,17
 468.5 424 468.5 424 437.5 425 c 128,-1,18
 406.5 426 406.5 426 367.5 425.5 c 128,-1,19
 328.5 425 328.5 425 279.5 425 c 1,20,21
 251.5 375 251.5 375 224 316.5 c 128,-1,22
 196.5 258 196.5 258 173.5 192.5 c 128,-1,23
 150.5 127 150.5 127 132.5 55.5 c 128,-1,24
 114.5 -16 114.5 -16 105.5 -93 c 1,25,26
 88.5 -54 88.5 -54 89 2.5 c 128,-1,27
 89.5 59 89.5 59 103.5 127 c 128,-1,28
 117.5 195 117.5 195 142.5 270.5 c 128,-1,29
 167.5 346 167.5 346 199.5 425 c 0,30,31
 225.5 486 225.5 486 256 540 c 128,-1,32
 286.5 594 286.5 594 316.5 637 c 128,-1,33
 346.5 680 346.5 680 373.5 711 c 128,-1,34
 400.5 742 400.5 742 419.5 760 c 1,35,36
 408.5 767 408.5 767 375 769.5 c 128,-1,37
 341.5 772 341.5 772 301.5 768 c 128,-1,38
 261.5 764 261.5 764 221 753.5 c 128,-1,39
 180.5 743 180.5 743 154.5 725 c 0,40,41
 134.5 712 134.5 712 123 687 c 128,-1,42
 111.5 662 111.5 662 103.5 637 c 128,-1,43
 95.5 612 95.5 612 90 593.5 c 128,-1,44
 84.5 575 84.5 575 75.5 575 c 0,45,46
 71.5 575 71.5 575 70.5 601 c 128,-1,47
 69.5 627 69.5 627 70.5 661.5 c 128,-1,48
 71.5 696 71.5 696 73.5 733 c 128,-1,49
 75.5 770 75.5 770 77.5 793.5 c 128,-1,50
 79.5 817 79.5 817 79.5 819 c 2,51,-1
 633.5 824 l 1,52,-1
 643.5 784 l 1,53,54
 630.5 802 630.5 802 603.5 793.5 c 128,-1,55
 576.5 785 576.5 785 538.5 752.5 c 128,-1,56
 500.5 720 500.5 720 453.5 665.5 c 128,-1,57
 406.5 611 406.5 611 353.5 540 c 1,58,59
 432.5 540 432.5 540 485.5 539 c 128,-1,60
 538.5 538 538.5 538 573 538.5 c 128,-1,61
 607.5 539 607.5 539 629.5 542.5 c 128,-1,62
 651.5 546 651.5 546 668.5 555 c 1,0,1
EndSplineSet
EndChar

StartChar: G
Encoding: 71 71 32
Width: 568
Flags: W
LayerCount: 2
Fore
SplineSet
70 819 m 1,0,1
 126 821 126 821 178 821 c 256,2,3
 229 821 229 821 279.5 820.5 c 128,-1,4
 330 820 330 820 381.5 819.5 c 128,-1,5
 433 819 433 819 489 819 c 1,6,7
 489 804 489 804 480.5 797 c 128,-1,8
 472 790 472 790 461.5 784.5 c 128,-1,9
 451 779 451 779 442.5 773 c 128,-1,10
 434 767 434 767 434 754 c 0,11,12
 434 739 434 739 444 725 c 128,-1,13
 454 711 454 711 466 689.5 c 128,-1,14
 478 668 478 668 488 635 c 128,-1,15
 498 602 498 602 498 550 c 0,16,17
 498 506 498 506 478.5 443.5 c 128,-1,18
 459 381 459 381 427.5 313.5 c 128,-1,19
 396 246 396 246 355.5 180 c 128,-1,20
 315 114 315 114 273 62.5 c 128,-1,21
 231 11 231 11 190.5 -19 c 128,-1,22
 150 -49 150 -49 119 -44 c 1,23,24
 171 -1 171 -1 220 57.5 c 128,-1,25
 269 116 269 116 306.5 184.5 c 128,-1,26
 344 253 344 253 366.5 328 c 128,-1,27
 389 403 389 403 389 480 c 0,28,29
 389 521 389 521 384.5 562.5 c 128,-1,30
 380 604 380 604 371 640.5 c 128,-1,31
 362 677 362 677 346.5 704 c 128,-1,32
 331 731 331 731 309 744 c 1,33,34
 276 748 276 748 233.5 746 c 128,-1,35
 191 744 191 744 150 744 c 1,36,37
 123 725 123 725 104.5 691 c 128,-1,38
 86 657 86 657 74 620 c 1,39,40
 71 676 71 676 70.5 721.5 c 128,-1,41
 70 767 70 767 70 819 c 1,0,1
EndSplineSet
EndChar

StartChar: H
Encoding: 72 72 33
Width: 716
Flags: W
LayerCount: 2
Fore
SplineSet
489 818 m 1,0,1
 512 824 512 824 532.5 835 c 128,-1,2
 553 846 553 846 570 856.5 c 128,-1,3
 587 867 587 867 602 875 c 128,-1,4
 617 883 617 883 628 883 c 0,5,6
 643 883 643 883 646 852 c 128,-1,7
 649 821 649 821 639 779.5 c 128,-1,8
 629 738 629 738 606.5 695.5 c 128,-1,9
 584 653 584 653 548 629 c 1,10,11
 555 645 555 645 559.5 665 c 128,-1,12
 564 685 564 685 565 704 c 128,-1,13
 566 723 566 723 564.5 740 c 128,-1,14
 563 757 563 757 559 768 c 1,15,-1
 429 768 l 1,16,17
 415 754 415 754 407 730 c 128,-1,18
 399 706 399 706 399 679 c 0,19,20
 399 659 399 659 412.5 629.5 c 128,-1,21
 426 600 426 600 447 573.5 c 128,-1,22
 468 547 468 547 493.5 528 c 128,-1,23
 519 509 519 509 543 509 c 1,24,25
 547 498 547 498 547 481 c 256,26,27
 547 465 547 465 543 454 c 1,28,29
 532 454 532 454 520.5 433.5 c 128,-1,30
 509 413 509 413 495 378 c 128,-1,31
 481 343 481 343 461.5 297 c 128,-1,32
 442 251 442 251 415 200.5 c 128,-1,33
 388 150 388 150 351 96.5 c 128,-1,34
 314 43 314 43 264 -5 c 1,35,36
 223 -5 223 -5 171 -7.5 c 128,-1,37
 119 -10 119 -10 70 -14 c 1,38,39
 133 -3 133 -3 177 14.5 c 128,-1,40
 221 32 221 32 239 50 c 0,41,42
 273 86 273 86 303 138 c 128,-1,43
 333 190 333 190 355 247 c 128,-1,44
 377 304 377 304 390.5 360 c 128,-1,45
 404 416 404 416 404 459 c 0,46,47
 404 549 404 549 377.5 610 c 128,-1,48
 351 671 351 671 310 711.5 c 128,-1,49
 269 752 269 752 221 776.5 c 128,-1,50
 173 801 173 801 130 818 c 1,51,-1
 489 818 l 1,0,1
EndSplineSet
EndChar

StartChar: I
Encoding: 73 73 34
Width: 509
Flags: W
LayerCount: 2
Fore
SplineSet
436.625 824 m 0,0,1
 440.625 820 440.625 820 438.625 811.5 c 128,-1,2
 436.625 803 436.625 803 430.625 791 c 128,-1,3
 424.625 779 424.625 779 415.625 766 c 128,-1,4
 406.625 753 406.625 753 396.625 739 c 0,5,6
 387.625 724 387.625 724 378.625 709.5 c 128,-1,7
 369.625 695 369.625 695 361.625 684 c 128,-1,8
 353.625 673 353.625 673 347.625 666 c 128,-1,9
 341.625 659 341.625 659 337.625 659 c 0,10,11
 326.625 659 326.625 659 318.125 668 c 128,-1,12
 309.625 677 309.625 677 287.625 685 c 1,13,14
 302.625 661 302.625 661 314.625 638.5 c 128,-1,15
 326.625 616 326.625 616 337.625 590 c 1,16,17
 319.625 534 319.625 534 304.125 456.5 c 128,-1,18
 288.625 379 288.625 379 275.625 288.5 c 128,-1,19
 262.625 198 262.625 198 252.625 98 c 128,-1,20
 242.625 -2 242.625 -2 233.625 -103 c 1,21,22
 229.625 -6 229.625 -6 229.625 101 c 256,23,24
 229.625 209 229.625 209 231.125 314.5 c 128,-1,25
 232.625 420 232.625 420 233.625 517.5 c 128,-1,26
 234.625 615 234.625 615 233.625 694 c 1,27,-1
 222.625 694 l 2,28,29
 188.625 694 188.625 694 163.125 675.5 c 128,-1,30
 137.625 657 137.625 657 119.625 636 c 128,-1,31
 101.625 615 101.625 615 90.125 599.5 c 128,-1,32
 78.625 584 78.625 584 73.625 590 c 0,33,34
 70.625 593 70.625 593 70.125 617.5 c 128,-1,35
 69.625 642 69.625 642 71.125 675 c 128,-1,36
 72.625 708 72.625 708 74.125 741.5 c 128,-1,37
 75.625 775 75.625 775 77.125 796 c 128,-1,38
 78.625 817 78.625 817 78.625 819 c 2,39,40
 104.125 820 l 0,41,42
 129.625 821 129.625 821 168.125 822.5 c 128,-1,43
 206.625 824 206.625 824 252.125 825.5 c 128,-1,44
 297.625 827 297.625 827 337.625 827.5 c 128,-1,45
 377.625 828 377.625 828 405.125 827 c 128,-1,46
 432.625 826 432.625 826 436.625 824 c 0,0,1
EndSplineSet
EndChar

StartChar: J
Encoding: 74 74 35
Width: 664
Flags: W
LayerCount: 2
Fore
SplineSet
160.571289062 819 m 1,0,1
 198.571289062 823 198.571289062 823 248.571289062 824 c 128,-1,2
 298.571289062 825 298.571289062 825 353.571289062 824.5 c 128,-1,3
 408.571289062 824 408.571289062 824 463.071289062 822.5 c 128,-1,4
 517.571289062 821 517.571289062 821 564.571289062 819 c 1,5,6
 575.571289062 812 575.571289062 812 571.571289062 806 c 128,-1,7
 567.571289062 800 567.571289062 800 558.571289062 792 c 128,-1,8
 549.571289062 784 549.571289062 784 540.071289062 774.5 c 128,-1,9
 530.571289062 765 530.571289062 765 530.571289062 750 c 0,10,11
 530.571289062 733 530.571289062 733 539.571289062 705.5 c 128,-1,12
 548.571289062 678 548.571289062 678 560.071289062 638 c 128,-1,13
 571.571289062 598 571.571289062 598 580.571289062 546 c 128,-1,14
 589.571289062 494 589.571289062 494 589.571289062 426 c 0,15,16
 589.571289062 374 589.571289062 374 590.571289062 315.5 c 128,-1,17
 591.571289062 257 591.571289062 257 592.071289062 200.5 c 128,-1,18
 592.571289062 144 592.571289062 144 593.571289062 92.5 c 128,-1,19
 594.571289062 41 594.571289062 41 594.571289062 2 c 1,20,21
 542.571289062 6 542.571289062 6 489.571289062 6 c 256,22,23
 436.571289062 6 436.571289062 6 375.571289062 2 c 1,24,25
 411.571289062 10 411.571289062 10 437.071289062 32.5 c 128,-1,26
 462.571289062 55 462.571289062 55 480.071289062 86.5 c 128,-1,27
 497.571289062 118 497.571289062 118 507.071289062 154.5 c 128,-1,28
 516.571289062 191 516.571289062 191 521.571289062 229 c 128,-1,29
 526.571289062 267 526.571289062 267 528.571289062 304 c 128,-1,30
 530.571289062 341 530.571289062 341 530.571289062 371 c 0,31,32
 530.571289062 448 530.571289062 448 520.071289062 505 c 128,-1,33
 509.571289062 562 509.571289062 562 490.071289062 604 c 128,-1,34
 470.571289062 646 470.571289062 646 441.571289062 675.5 c 128,-1,35
 412.571289062 705 412.571289062 705 375.571289062 725 c 1,36,37
 345.571289062 729 345.571289062 729 308.071289062 728.5 c 128,-1,38
 270.571289062 728 270.571289062 728 225.571289062 720 c 1,39,40
 195.571289062 703 195.571289062 703 173.571289062 665 c 128,-1,41
 151.571289062 627 151.571289062 627 135.071289062 580.5 c 128,-1,42
 118.571289062 534 118.571289062 534 109.071289062 484.5 c 128,-1,43
 99.5712890625 435 99.5712890625 435 95.5712890625 396 c 1,44,45
 82.5712890625 437 82.5712890625 437 76.5712890625 488 c 128,-1,46
 70.5712890625 539 70.5712890625 539 70.0712890625 588.5 c 128,-1,47
 69.5712890625 638 69.5712890625 638 72.5712890625 682.5 c 128,-1,48
 75.5712890625 727 75.5712890625 727 80.5712890625 755 c 1,49,-1
 160.571289062 819 l 1,0,1
EndSplineSet
EndChar

StartChar: K
Encoding: 75 75 36
Width: 641
Flags: W
LayerCount: 2
Fore
SplineSet
171 819 m 1,0,1
 218 817 218 817 264 817 c 0,2,3
 311 817 311 817 359 818 c 128,-1,4
 407 819 407 819 459.5 820.5 c 128,-1,5
 512 822 512 822 569 824 c 1,6,7
 569 816 569 816 571 812 c 128,-1,8
 573 808 573 808 569 800 c 1,9,10
 551 800 551 800 535.5 788.5 c 128,-1,11
 520 777 520 777 520 755 c 0,12,13
 516 725 516 725 523 693.5 c 128,-1,14
 530 662 530 662 540 627.5 c 128,-1,15
 550 593 550 593 559.5 554 c 128,-1,16
 569 515 569 515 569 470 c 0,17,18
 569 429 569 429 563 385.5 c 128,-1,19
 557 342 557 342 543 302 c 128,-1,20
 529 262 529 262 506.5 228 c 128,-1,21
 484 194 484 194 450 171 c 1,22,23
 466 197 466 197 479 222 c 128,-1,24
 492 247 492 247 501.5 277.5 c 128,-1,25
 511 308 511 308 515.5 347 c 128,-1,26
 520 386 520 386 520 440 c 0,27,28
 520 478 520 478 508.5 523 c 128,-1,29
 497 568 497 568 479 610.5 c 128,-1,30
 461 653 461 653 439 688 c 128,-1,31
 417 723 417 723 395 739 c 0,32,33
 377 754 377 754 346.5 763.5 c 128,-1,34
 316 773 316 773 287 777.5 c 128,-1,35
 258 782 258 782 235 782.5 c 128,-1,36
 212 783 212 783 205 779 c 0,37,38
 199 770 199 770 208.5 760.5 c 128,-1,39
 218 751 218 751 231.5 740.5 c 128,-1,40
 245 730 245 730 259.5 721 c 128,-1,41
 274 712 274 712 280 705 c 1,42,43
 253 707 253 707 229.5 699.5 c 128,-1,44
 206 692 206 692 189 665 c 128,-1,45
 172 638 172 638 161 586 c 128,-1,46
 150 534 150 534 150 445 c 0,47,48
 150 395 150 395 161 337 c 128,-1,49
 172 279 172 279 187 228.5 c 128,-1,50
 202 178 202 178 219.5 145 c 128,-1,51
 237 112 237 112 250 112 c 0,52,53
 266 112 266 112 277.5 125.5 c 128,-1,54
 289 139 289 139 297.5 159.5 c 128,-1,55
 306 180 306 180 311 203.5 c 128,-1,56
 316 227 316 227 319.5 247.5 c 128,-1,57
 323 268 323 268 325 282 c 128,-1,58
 327 296 327 296 330 296 c 256,59,60
 333 296 333 296 338 280 c 128,-1,61
 343 264 343 264 346.5 239.5 c 128,-1,62
 350 215 350 215 352.5 186 c 128,-1,63
 355 157 355 157 355 131 c 0,64,65
 355 104 355 104 353 81 c 128,-1,66
 351 58 351 58 347 40.5 c 128,-1,67
 343 23 343 23 336 12.5 c 128,-1,68
 329 2 329 2 320 2 c 0,69,70
 296 2 296 2 268.5 24.5 c 128,-1,71
 241 47 241 47 213 85 c 128,-1,72
 185 123 185 123 159.5 172 c 128,-1,73
 134 221 134 221 114 274.5 c 128,-1,74
 94 328 94 328 82 381 c 128,-1,75
 70 434 70 434 70 480 c 0,76,77
 70 514 70 514 75 559.5 c 128,-1,78
 80 605 80 605 92 652 c 128,-1,79
 104 699 104 699 123.5 743 c 128,-1,80
 143 787 143 787 171 819 c 1,0,1
EndSplineSet
EndChar

StartChar: L
Encoding: 76 76 37
Width: 669
Flags: W
LayerCount: 2
Fore
SplineSet
70 819 m 1,0,1
 209 834 209 834 342 831 c 128,-1,2
 475 828 475 828 599 824 c 1,3,4
 600 817 600 817 594.5 795.5 c 128,-1,5
 589 774 589 774 579 746.5 c 128,-1,6
 569 719 569 719 553.5 688.5 c 128,-1,7
 538 658 538 658 518.5 633 c 128,-1,8
 499 608 499 608 476.5 591.5 c 128,-1,9
 454 575 454 575 430 575 c 1,10,11
 455 591 455 591 468.5 615.5 c 128,-1,12
 482 640 482 640 484 666 c 128,-1,13
 486 692 486 692 473.5 718 c 128,-1,14
 461 744 461 744 434 765 c 1,15,16
 409 767 409 767 388.5 768 c 128,-1,17
 368 769 368 769 346 768.5 c 128,-1,18
 324 768 324 768 298.5 766 c 128,-1,19
 273 764 273 764 239 760 c 1,20,21
 266 743 266 743 290.5 717.5 c 128,-1,22
 315 692 315 692 333.5 660 c 128,-1,23
 352 628 352 628 363 590 c 128,-1,24
 374 552 374 552 374 511 c 2,25,-1
 374 186 l 2,26,27
 374 145 374 145 391.5 114 c 128,-1,28
 409 83 409 83 438.5 60.5 c 128,-1,29
 468 38 468 38 506.5 23.5 c 128,-1,30
 545 9 545 9 588 2 c 1,31,32
 534 4 534 4 484.5 5 c 128,-1,33
 435 6 435 6 397.5 6.5 c 128,-1,34
 360 7 360 7 337 7 c 256,35,36
 314 7 314 7 315 7 c 1,37,-1
 315 421 l 2,38,39
 315 501 315 501 289 564.5 c 128,-1,40
 263 628 263 628 225 676.5 c 128,-1,41
 187 725 187 725 144.5 759.5 c 128,-1,42
 102 794 102 794 70 819 c 1,0,1
EndSplineSet
EndChar

StartChar: M
Encoding: 77 77 38
Width: 697
Flags: W
LayerCount: 2
Fore
SplineSet
84.142578125 819 m 1,0,1
 119.142578125 815 119.142578125 815 146.642578125 813 c 128,-1,2
 174.142578125 811 174.142578125 811 199.142578125 811 c 0,3,4
 226.142578125 811 226.142578125 811 252.642578125 813 c 128,-1,5
 279.142578125 815 279.142578125 815 313.142578125 819 c 1,6,7
 283.142578125 808 283.142578125 808 260.642578125 787.5 c 128,-1,8
 238.142578125 767 238.142578125 767 238.142578125 744 c 0,9,10
 238.142578125 716 238.142578125 716 247.142578125 681 c 128,-1,11
 256.142578125 646 256.142578125 646 271.142578125 613 c 128,-1,12
 286.142578125 580 286.142578125 580 307.142578125 553 c 128,-1,13
 328.142578125 526 328.142578125 526 353.142578125 515 c 1,14,15
 376.142578125 533 376.142578125 533 393.642578125 557.5 c 128,-1,16
 411.142578125 582 411.142578125 582 424.642578125 609 c 128,-1,17
 438.142578125 636 438.142578125 636 445.142578125 663 c 128,-1,18
 452.142578125 690 452.142578125 690 452.142578125 715 c 0,19,20
 452.142578125 748 452.142578125 748 440.142578125 774 c 128,-1,21
 428.142578125 800 428.142578125 800 412.142578125 819 c 1,22,23
 458.142578125 819 458.142578125 819 509.642578125 819.5 c 128,-1,24
 561.142578125 820 561.142578125 820 617.142578125 824 c 1,25,26
 617.142578125 790 617.142578125 790 618.642578125 741 c 128,-1,27
 620.142578125 692 620.142578125 692 622.142578125 635.5 c 128,-1,28
 624.142578125 579 624.142578125 579 625.642578125 519.5 c 128,-1,29
 627.142578125 460 627.142578125 460 627.142578125 406 c 0,30,31
 627.142578125 384 627.142578125 384 624.642578125 342.5 c 128,-1,32
 622.142578125 301 622.142578125 301 614.142578125 251.5 c 128,-1,33
 606.142578125 202 606.142578125 202 592.142578125 149 c 128,-1,34
 578.142578125 96 578.142578125 96 555.142578125 53.5 c 128,-1,35
 532.142578125 11 532.142578125 11 500.142578125 -16.5 c 128,-1,36
 468.142578125 -44 468.142578125 -44 423.142578125 -44 c 1,37,38
 457.142578125 -31 457.142578125 -31 478.642578125 -1 c 128,-1,39
 500.142578125 29 500.142578125 29 513.642578125 67 c 128,-1,40
 527.142578125 105 527.142578125 105 533.142578125 150.5 c 128,-1,41
 539.142578125 196 539.142578125 196 541.142578125 241.5 c 128,-1,42
 543.142578125 287 543.142578125 287 542.642578125 329.5 c 128,-1,43
 542.142578125 372 542.142578125 372 542.142578125 406 c 0,44,45
 542.142578125 443 542.142578125 443 538.642578125 481 c 128,-1,46
 535.142578125 519 535.142578125 519 529.142578125 550 c 128,-1,47
 523.142578125 581 523.142578125 581 515.142578125 600.5 c 128,-1,48
 507.142578125 620 507.142578125 620 497.142578125 620 c 256,49,50
 488.142578125 620 488.142578125 620 472.642578125 595.5 c 128,-1,51
 457.142578125 571 457.142578125 571 439.142578125 542 c 128,-1,52
 421.142578125 513 421.142578125 513 400.142578125 489 c 128,-1,53
 379.142578125 465 379.142578125 465 358.142578125 465 c 0,54,55
 335.142578125 465 335.142578125 465 310.642578125 487.5 c 128,-1,56
 286.142578125 510 286.142578125 510 262.142578125 537 c 128,-1,57
 238.142578125 564 238.142578125 564 216.142578125 586.5 c 128,-1,58
 194.142578125 609 194.142578125 609 178.142578125 609 c 0,59,60
 165.142578125 609 165.142578125 609 153.642578125 593 c 128,-1,61
 142.142578125 577 142.142578125 577 134.142578125 550 c 128,-1,62
 126.142578125 523 126.142578125 523 121.142578125 490 c 128,-1,63
 116.142578125 457 116.142578125 457 116.142578125 423 c 0,64,65
 116.142578125 390 116.142578125 390 121.642578125 360 c 128,-1,66
 127.142578125 330 127.142578125 330 138.142578125 310 c 1,67,68
 115.142578125 310 115.142578125 310 101.642578125 338.5 c 128,-1,69
 88.142578125 367 88.142578125 367 80.642578125 412.5 c 128,-1,70
 73.142578125 458 73.142578125 458 71.142578125 514 c 128,-1,71
 69.142578125 570 69.142578125 570 70.642578125 627 c 128,-1,72
 72.142578125 684 72.142578125 684 76.142578125 734.5 c 128,-1,73
 80.142578125 785 80.142578125 785 84.142578125 819 c 1,0,1
EndSplineSet
EndChar

StartChar: N
Encoding: 78 78 39
Width: 557
Flags: W
LayerCount: 2
Fore
SplineSet
70 819 m 1,0,1
 110 823 110 823 145 824.5 c 128,-1,2
 180 826 180 826 215 826 c 0,3,4
 251 826 251 826 288 824.5 c 128,-1,5
 325 823 325 823 370 819 c 1,6,7
 321 808 321 808 293 788 c 128,-1,8
 265 768 265 768 265 719 c 0,9,10
 265 701 265 701 275.5 666.5 c 128,-1,11
 286 632 286 632 303 598.5 c 128,-1,12
 320 565 320 565 339 540 c 128,-1,13
 358 515 358 515 375 515 c 0,14,15
 391 515 391 515 405.5 535 c 128,-1,16
 420 555 420 555 431.5 588 c 128,-1,17
 443 621 443 621 450 663 c 128,-1,18
 457 705 457 705 459 750 c 1,19,20
 470 737 470 737 476.5 714.5 c 128,-1,21
 483 692 483 692 485.5 666.5 c 128,-1,22
 488 641 488 641 487.5 614 c 128,-1,23
 487 587 487 587 485 564 c 0,24,25
 481 537 481 537 469 503 c 128,-1,26
 457 469 457 469 442.5 438.5 c 128,-1,27
 428 408 428 408 413.5 387 c 128,-1,28
 399 366 399 366 390 366 c 0,29,30
 375 366 375 366 361 384 c 128,-1,31
 347 402 347 402 333 428.5 c 128,-1,32
 319 455 319 455 306 483 c 128,-1,33
 293 511 293 511 280 529 c 1,34,35
 295 443 295 443 280.5 357 c 128,-1,36
 266 271 266 271 234 194.5 c 128,-1,37
 202 118 202 118 159 56 c 128,-1,38
 116 -6 116 -6 75 -44 c 1,39,40
 118 24 118 24 143.5 79.5 c 128,-1,41
 169 135 169 135 181 189.5 c 128,-1,42
 193 244 193 244 196.5 301.5 c 128,-1,43
 200 359 200 359 200 430 c 0,44,45
 200 473 200 473 190.5 515.5 c 128,-1,46
 181 558 181 558 166.5 598 c 128,-1,47
 152 638 152 638 135 674 c 128,-1,48
 118 710 118 710 104 738.5 c 128,-1,49
 90 767 90 767 80 788 c 128,-1,50
 70 809 70 809 70 819 c 1,0,1
EndSplineSet
EndChar

StartChar: O
Encoding: 79 79 40
Width: 728
Flags: W
LayerCount: 2
Fore
SplineSet
70 819 m 1,0,1
 158 821 158 821 229.5 822 c 128,-1,2
 301 823 301 823 367 823 c 0,3,4
 435 823 435 823 504.5 822 c 128,-1,5
 574 821 574 821 658 819 c 1,6,7
 645 813 645 813 628.5 805 c 128,-1,8
 612 797 612 797 597.5 786 c 128,-1,9
 583 775 583 775 573.5 762.5 c 128,-1,10
 564 750 564 750 564 734 c 0,11,12
 564 725 564 725 568.5 718 c 128,-1,13
 573 711 573 711 580 699.5 c 128,-1,14
 587 688 587 688 596 670 c 128,-1,15
 605 652 605 652 612 623 c 128,-1,16
 619 594 619 594 623.5 550.5 c 128,-1,17
 628 507 628 507 628 444 c 0,18,19
 628 343 628 343 618 266.5 c 128,-1,20
 608 190 608 190 582.5 132 c 128,-1,21
 557 74 557 74 515 30.5 c 128,-1,22
 473 -13 473 -13 409 -49 c 1,23,24
 434 -26 434 -26 458.5 5 c 128,-1,25
 483 36 483 36 503 72.5 c 128,-1,26
 523 109 523 109 535.5 149 c 128,-1,27
 548 189 548 189 548 230 c 0,28,29
 548 260 548 260 547 304.5 c 128,-1,30
 546 349 546 349 541 401 c 128,-1,31
 536 453 536 453 525.5 507.5 c 128,-1,32
 515 562 515 562 496.5 614 c 128,-1,33
 478 666 478 666 449 710.5 c 128,-1,34
 420 755 420 755 379 784 c 1,35,-1
 279 784 l 1,36,37
 283 773 283 773 296.5 763.5 c 128,-1,38
 310 754 310 754 324 739 c 1,39,40
 288 709 288 709 263.5 661.5 c 128,-1,41
 239 614 239 614 223.5 561 c 128,-1,42
 208 508 208 508 201 454.5 c 128,-1,43
 194 401 194 401 194 360 c 0,44,45
 194 288 194 288 225 207 c 128,-1,46
 256 126 256 126 334 36 c 1,47,48
 300 46 300 46 270.5 72 c 128,-1,49
 241 98 241 98 217 134 c 128,-1,50
 193 170 193 170 173.5 212.5 c 128,-1,51
 154 255 154 255 141.5 298 c 128,-1,52
 129 341 129 341 121.5 380.5 c 128,-1,53
 114 420 114 420 114 450 c 0,54,55
 114 531 114 531 120.5 582.5 c 128,-1,56
 127 634 127 634 134.5 666 c 128,-1,57
 142 698 142 698 148 715.5 c 128,-1,58
 154 733 154 733 154 744 c 0,59,60
 154 767 154 767 146 780 c 128,-1,61
 138 793 138 793 125.5 800.5 c 128,-1,62
 113 808 113 808 98 811.5 c 128,-1,63
 83 815 83 815 70 819 c 1,0,1
374 555 m 256,64,65
 389 555 389 555 399.5 547.5 c 128,-1,66
 410 540 410 540 416 528 c 128,-1,67
 422 516 422 516 425.5 502 c 128,-1,68
 429 488 429 488 429 475 c 0,69,70
 429 464 429 464 425 450 c 128,-1,71
 421 436 421 436 415 424 c 128,-1,72
 409 412 409 412 400 403.5 c 128,-1,73
 391 395 391 395 379 395 c 256,74,75
 368 395 368 395 358 402 c 128,-1,76
 348 409 348 409 340 419 c 128,-1,77
 332 429 332 429 328 441.5 c 128,-1,78
 324 454 324 454 324 465 c 256,79,80
 324 476 324 476 326 491.5 c 128,-1,81
 328 507 328 507 334 521.5 c 128,-1,82
 340 536 340 536 349.5 545.5 c 128,-1,83
 359 555 359 555 374 555 c 256,64,65
EndSplineSet
EndChar

StartChar: P
Encoding: 80 80 41
Width: 689
Flags: W
LayerCount: 2
Fore
SplineSet
289 554 m 0,0,1
 296 543 296 543 309.5 536.5 c 128,-1,2
 323 530 323 530 338.5 527 c 128,-1,3
 354 524 354 524 370.5 522.5 c 128,-1,4
 387 521 387 521 400 519 c 1,5,6
 413 559 413 559 426.5 592 c 128,-1,7
 440 625 440 625 450.5 654.5 c 128,-1,8
 461 684 461 684 468 713 c 128,-1,9
 475 742 475 742 475 774 c 1,10,11
 435 777 435 777 398.5 779 c 128,-1,12
 362 781 362 781 325 781.5 c 128,-1,13
 288 782 288 782 249 781 c 128,-1,14
 210 780 210 780 165 779 c 1,15,16
 200 745 200 745 219 713 c 128,-1,17
 238 681 238 681 249.5 652 c 128,-1,18
 261 623 261 623 268.5 597.5 c 128,-1,19
 276 572 276 572 289 554 c 0,0,1
619 819 m 1,20,21
 591 765 591 765 560 695.5 c 128,-1,22
 529 626 529 626 503.5 552.5 c 128,-1,23
 478 479 478 479 461 407 c 128,-1,24
 444 335 444 335 444 275 c 0,25,26
 444 239 444 239 448 199 c 128,-1,27
 452 159 452 159 457.5 116 c 128,-1,28
 463 73 463 73 469.5 28.5 c 128,-1,29
 476 -16 476 -16 479 -59 c 1,30,31
 449 -23 449 -23 427.5 18.5 c 128,-1,32
 406 60 406 60 391.5 104 c 128,-1,33
 377 148 377 148 370.5 192 c 128,-1,34
 364 236 364 236 364 275 c 0,35,36
 364 343 364 343 374 396.5 c 128,-1,37
 384 450 384 450 395 495 c 1,38,39
 343 487 343 487 298 472 c 128,-1,40
 253 457 253 457 220 430 c 1,41,42
 217 473 217 473 211 520 c 128,-1,43
 205 567 205 567 190.5 617 c 128,-1,44
 176 667 176 667 147.5 717.5 c 128,-1,45
 119 768 119 768 70 819 c 1,46,47
 228 826 228 826 361.5 822.5 c 128,-1,48
 495 819 495 819 619 819 c 1,20,21
EndSplineSet
EndChar

StartChar: Q
Encoding: 81 81 42
Width: 627
Flags: W
LayerCount: 2
Fore
SplineSet
541.111328125 162 m 1,0,1
 541.111328125 192 541.111328125 192 528.611328125 215 c 128,-1,2
 516.111328125 238 516.111328125 238 496.111328125 256 c 1,3,4
 458.111328125 256 458.111328125 256 424.611328125 253.5 c 128,-1,5
 391.111328125 251 391.111328125 251 357.111328125 251 c 1,6,7
 361.111328125 215 361.111328125 215 368.611328125 178.5 c 128,-1,8
 376.111328125 142 376.111328125 142 386.611328125 109.5 c 128,-1,9
 397.111328125 77 397.111328125 77 409.111328125 48.5 c 128,-1,10
 421.111328125 20 421.111328125 20 432.111328125 2 c 1,11,12
 376.111328125 6 376.111328125 6 322.611328125 8 c 128,-1,13
 269.111328125 10 269.111328125 10 213.111328125 2 c 1,14,15
 218.111328125 17 218.111328125 17 227.111328125 44.5 c 128,-1,16
 236.111328125 72 236.111328125 72 246.611328125 106 c 128,-1,17
 257.111328125 140 257.111328125 140 265.111328125 177.5 c 128,-1,18
 273.111328125 215 273.111328125 215 277.111328125 251 c 1,19,20
 243.111328125 251 243.111328125 251 207.111328125 251.5 c 128,-1,21
 171.111328125 252 171.111328125 252 138.111328125 256 c 1,22,23
 119.111328125 245 119.111328125 245 104.111328125 220 c 128,-1,24
 89.111328125 195 89.111328125 195 77.111328125 162 c 1,25,26
 69.111328125 203 69.111328125 203 70.111328125 239 c 128,-1,27
 71.111328125 275 71.111328125 275 83.111328125 321 c 1,28,29
 132.111328125 318 132.111328125 318 181.611328125 317 c 128,-1,30
 231.111328125 316 231.111328125 316 277.111328125 316 c 1,31,32
 277.111328125 402 277.111328125 402 257.111328125 477.5 c 128,-1,33
 237.111328125 553 237.111328125 553 207.111328125 616.5 c 128,-1,34
 177.111328125 680 177.111328125 680 142.111328125 731 c 128,-1,35
 107.111328125 782 107.111328125 782 77.111328125 819 c 1,36,37
 340.111328125 834 340.111328125 834 552.111328125 819 c 1,38,39
 536.111328125 794 536.111328125 794 515.611328125 755.5 c 128,-1,40
 495.111328125 717 495.111328125 717 474.611328125 671 c 128,-1,41
 454.111328125 625 454.111328125 625 434.611328125 575 c 128,-1,42
 415.111328125 525 415.111328125 525 399.111328125 477.5 c 128,-1,43
 383.111328125 430 383.111328125 430 371.611328125 388 c 128,-1,44
 360.111328125 346 360.111328125 346 357.111328125 316 c 1,45,46
 406.111328125 316 406.111328125 316 451.111328125 316.5 c 128,-1,47
 496.111328125 317 496.111328125 317 541.111328125 321 c 1,48,49
 559.111328125 276 559.111328125 276 557.111328125 237.5 c 128,-1,50
 555.111328125 199 555.111328125 199 541.111328125 162 c 1,0,1
322.111328125 435 m 1,51,52
 337.111328125 485 337.111328125 485 353.111328125 529.5 c 128,-1,53
 369.111328125 574 369.111328125 574 388.111328125 615.5 c 128,-1,54
 407.111328125 657 407.111328125 657 428.611328125 698 c 128,-1,55
 450.111328125 739 450.111328125 739 477.111328125 784 c 1,56,57
 453.111328125 777 453.111328125 777 439.611328125 769 c 128,-1,58
 426.111328125 761 426.111328125 761 407.111328125 750 c 1,59,60
 382.111328125 752 382.111328125 752 362.111328125 752 c 256,61,62
 342.111328125 752 342.111328125 752 322.111328125 751.5 c 128,-1,63
 302.111328125 751 302.111328125 751 282.111328125 750.5 c 128,-1,64
 262.111328125 750 262.111328125 750 237.111328125 750 c 1,65,66
 233.111328125 758 233.111328125 758 222.111328125 767.5 c 128,-1,67
 211.111328125 777 211.111328125 777 192.111328125 784 c 1,68,69
 248.111328125 697 248.111328125 697 279.611328125 611 c 128,-1,70
 311.111328125 525 311.111328125 525 322.111328125 435 c 1,51,52
EndSplineSet
EndChar

StartChar: R
Encoding: 82 82 43
Width: 679
Flags: W
LayerCount: 2
Fore
SplineSet
70 674 m 1,0,1
 88 708 88 708 119.5 735 c 128,-1,2
 151 762 151 762 189.5 780.5 c 128,-1,3
 228 799 228 799 270.5 809 c 128,-1,4
 313 819 313 819 355 819 c 0,5,6
 403 819 403 819 449 809.5 c 128,-1,7
 495 800 495 800 530.5 780.5 c 128,-1,8
 566 761 566 761 587.5 730.5 c 128,-1,9
 609 700 609 700 609 659 c 1,10,11
 546 644 546 644 485.5 627 c 128,-1,12
 425 610 425 610 378 582.5 c 128,-1,13
 331 555 331 555 303 512.5 c 128,-1,14
 275 470 275 470 275 404 c 0,15,16
 275 356 275 356 277.5 297 c 128,-1,17
 280 238 280 238 286 176.5 c 128,-1,18
 292 115 292 115 301.5 56.5 c 128,-1,19
 311 -2 311 -2 324 -49 c 1,20,21
 306 -30 306 -30 287 9 c 128,-1,22
 268 48 268 48 251 96.5 c 128,-1,23
 234 145 234 145 219 199 c 128,-1,24
 204 253 204 253 193 302 c 128,-1,25
 182 351 182 351 176 391.5 c 128,-1,26
 170 432 170 432 170 455 c 0,27,28
 170 489 170 489 182 512.5 c 128,-1,29
 194 536 194 536 213.5 553 c 128,-1,30
 233 570 233 570 258 583 c 128,-1,31
 283 596 283 596 310 609 c 0,32,33
 351 627 351 627 389.5 647.5 c 128,-1,34
 428 668 428 668 454 679 c 1,35,36
 437 690 437 690 415.5 701 c 128,-1,37
 394 712 394 712 369 720.5 c 128,-1,38
 344 729 344 729 317 734 c 128,-1,39
 290 739 290 739 265 739 c 0,40,41
 229 739 229 739 200 733 c 128,-1,42
 171 727 171 727 146.5 718 c 128,-1,43
 122 709 122 709 103.5 697 c 128,-1,44
 85 685 85 685 70 674 c 1,0,1
EndSplineSet
EndChar

StartChar: S
Encoding: 83 83 44
Width: 615
Flags: W
LayerCount: 2
Fore
SplineSet
176 819 m 1,0,1
 269 827 269 827 342.5 827.5 c 128,-1,2
 416 828 416 828 484 824 c 1,3,4
 507 807 507 807 519.5 783.5 c 128,-1,5
 532 760 532 760 538 734.5 c 128,-1,6
 544 709 544 709 545 683.5 c 128,-1,7
 546 658 546 658 544 640 c 1,8,9
 533 653 533 653 523 669 c 128,-1,10
 513 685 513 685 501.5 701 c 128,-1,11
 490 717 490 717 475 731 c 128,-1,12
 460 745 460 745 440 755 c 1,13,14
 416 759 416 759 388.5 761.5 c 128,-1,15
 361 764 361 764 320 760 c 1,16,17
 359 728 359 728 386 688 c 128,-1,18
 413 648 413 648 426.5 607.5 c 128,-1,19
 440 567 440 567 440 528 c 0,20,21
 440 490 440 490 425 461 c 1,22,23
 395 491 395 491 353.5 518 c 128,-1,24
 312 545 312 545 260 560 c 1,25,26
 301 519 301 519 338.5 467.5 c 128,-1,27
 376 416 376 416 405.5 359 c 128,-1,28
 435 302 435 302 452.5 243.5 c 128,-1,29
 470 185 470 185 470 131 c 0,30,31
 470 97 470 97 453 62 c 128,-1,32
 436 27 436 27 411 -4.5 c 128,-1,33
 386 -36 386 -36 355.5 -60.5 c 128,-1,34
 325 -85 325 -85 300 -98 c 1,35,36
 323 -75 323 -75 345.5 -57.5 c 128,-1,37
 368 -40 368 -40 387 -17 c 128,-1,38
 406 6 406 6 418 40.5 c 128,-1,39
 430 75 430 75 430 131 c 0,40,41
 430 183 430 183 412 234 c 128,-1,42
 394 285 394 285 364 332 c 128,-1,43
 334 379 334 379 296.5 421.5 c 128,-1,44
 259 464 259 464 219 501.5 c 128,-1,45
 179 539 179 539 140 570 c 128,-1,46
 101 601 101 601 70 625 c 1,47,48
 146 625 146 625 225.5 615.5 c 128,-1,49
 305 606 305 606 379 580 c 1,50,51
 372 610 372 610 349.5 644 c 128,-1,52
 327 678 327 678 298 710.5 c 128,-1,53
 269 743 269 743 236.5 772 c 128,-1,54
 204 801 204 801 176 819 c 1,0,1
EndSplineSet
EndChar

StartChar: T
Encoding: 84 84 45
Width: 648
Flags: W
LayerCount: 2
Fore
SplineSet
309 117 m 1,0,1
 349 117 349 117 384 129.5 c 128,-1,2
 419 142 419 142 451.5 163.5 c 128,-1,3
 484 185 484 185 513 213.5 c 128,-1,4
 542 242 542 242 569 271 c 1,5,6
 549 229 549 229 518.5 183.5 c 128,-1,7
 488 138 488 138 452.5 99.5 c 128,-1,8
 417 61 417 61 377.5 36 c 128,-1,9
 338 11 338 11 300 11 c 0,10,11
 257 11 257 11 222 37 c 128,-1,12
 187 63 187 63 162 103 c 128,-1,13
 137 143 137 143 121 192 c 128,-1,14
 105 241 105 241 100 286 c 1,15,16
 118 256 118 256 135 230 c 128,-1,17
 152 204 152 204 169.5 183.5 c 128,-1,18
 187 163 187 163 206 148 c 128,-1,19
 225 133 225 133 249 126 c 1,20,21
 260 168 260 168 257.5 213 c 128,-1,22
 255 258 255 258 255 296 c 0,23,24
 255 375 255 375 238.5 451.5 c 128,-1,25
 222 528 222 528 196 597 c 128,-1,26
 170 666 170 666 137 723 c 128,-1,27
 104 780 104 780 70 819 c 1,28,-1
 463 829 l 1,29,30
 445 908 445 908 371 957.5 c 128,-1,31
 297 1007 297 1007 164 1043 c 1,32,33
 233 1043 233 1043 299 1029 c 128,-1,34
 365 1015 365 1015 420.5 986.5 c 128,-1,35
 476 958 476 958 517 917.5 c 128,-1,36
 558 877 558 877 578 824 c 1,37,38
 522 772 522 772 467.5 743.5 c 128,-1,39
 413 715 413 715 364 715 c 256,40,41
 315 715 315 715 272.5 733 c 128,-1,42
 230 751 230 751 185 784 c 1,43,44
 210 761 210 761 239 735 c 128,-1,45
 268 709 268 709 293.5 673.5 c 128,-1,46
 319 638 319 638 336.5 593.5 c 128,-1,47
 354 549 354 549 354 490 c 0,48,49
 354 403 354 403 335.5 310.5 c 128,-1,50
 317 218 317 218 294 117 c 1,51,-1
 309 117 l 1,52,-1
 309 117 l 1,0,1
EndSplineSet
EndChar

StartChar: U
Encoding: 85 85 46
Width: 630
Flags: W
LayerCount: 2
Fore
SplineSet
70 819 m 1,0,1
 191 812 191 812 305 812 c 256,2,3
 419 812 419 812 539 819 c 1,4,5
 505 808 505 808 480.5 794.5 c 128,-1,6
 456 781 456 781 445 755 c 0,7,8
 441 742 441 742 458.5 716.5 c 128,-1,9
 476 691 476 691 498.5 649.5 c 128,-1,10
 521 608 521 608 540.5 549 c 128,-1,11
 560 490 560 490 560 411 c 0,12,13
 560 314 560 314 541 238 c 128,-1,14
 522 162 522 162 488.5 109.5 c 128,-1,15
 455 57 455 57 409.5 29.5 c 128,-1,16
 364 2 364 2 310 2 c 0,17,18
 265 2 265 2 223.5 13.5 c 128,-1,19
 182 25 182 25 150 54.5 c 128,-1,20
 118 84 118 84 99 136 c 128,-1,21
 80 188 80 188 80 271 c 0,22,23
 80 323 80 323 82.5 365 c 128,-1,24
 85 407 85 407 90 440.5 c 128,-1,25
 95 474 95 474 103.5 500.5 c 128,-1,26
 112 527 112 527 125 550 c 1,27,28
 159 543 159 543 179 527.5 c 128,-1,29
 199 512 199 512 209 493 c 128,-1,30
 219 474 219 474 222 455 c 128,-1,31
 225 436 225 436 225 421 c 1,32,33
 211 439 211 439 195.5 454 c 128,-1,34
 180 469 180 469 150 480 c 1,35,36
 139 466 139 466 132 444.5 c 128,-1,37
 125 423 125 423 125 400 c 0,38,39
 125 348 125 348 141 290.5 c 128,-1,40
 157 233 157 233 185.5 185.5 c 128,-1,41
 214 138 214 138 251.5 107.5 c 128,-1,42
 289 77 289 77 334 77 c 0,43,44
 361 77 361 77 385.5 91 c 128,-1,45
 410 105 410 105 428.5 139 c 128,-1,46
 447 173 447 173 458.5 228.5 c 128,-1,47
 470 284 470 284 470 366 c 0,48,49
 470 445 470 445 437.5 518 c 128,-1,50
 405 591 405 591 350 651 c 128,-1,51
 295 711 295 711 223 755 c 128,-1,52
 151 799 151 799 70 819 c 1,0,1
295 386 m 0,53,54
 328 386 328 386 346.5 372 c 128,-1,55
 365 358 365 358 365 336 c 256,56,57
 365 313 365 313 345.5 302 c 128,-1,58
 326 291 326 291 300 291 c 256,59,60
 273 291 273 291 251.5 304 c 128,-1,61
 230 317 230 317 230 336 c 256,62,63
 230 354 230 354 249 370 c 128,-1,64
 268 386 268 386 295 386 c 0,53,54
EndSplineSet
EndChar

StartChar: V
Encoding: 86 86 47
Width: 614
Flags: W
LayerCount: 2
Fore
SplineSet
91 819 m 1,0,1
 150 823 150 823 201.5 824.5 c 128,-1,2
 253 826 253 826 301 826 c 0,3,4
 349 826 349 826 395 824.5 c 128,-1,5
 441 823 441 823 489 819 c 1,6,7
 466 811 466 811 445.5 796.5 c 128,-1,8
 425 782 425 782 425 760 c 0,9,10
 425 733 425 733 443.5 699.5 c 128,-1,11
 462 666 462 666 484 623 c 128,-1,12
 506 580 506 580 525 527 c 128,-1,13
 544 474 544 474 544 411 c 0,14,15
 544 319 544 319 522 245 c 128,-1,16
 500 171 500 171 466 118 c 128,-1,17
 432 65 432 65 390.5 33.5 c 128,-1,18
 349 2 349 2 310 -3 c 1,19,20
 340 20 340 20 369.5 51.5 c 128,-1,21
 399 83 399 83 422.5 121.5 c 128,-1,22
 446 160 446 160 460.5 203 c 128,-1,23
 475 246 475 246 475 291 c 0,24,25
 475 349 475 349 461 415.5 c 128,-1,26
 447 482 447 482 422.5 548.5 c 128,-1,27
 398 615 398 615 365 676 c 128,-1,28
 332 737 332 737 294 784 c 1,29,30
 264 750 264 750 239.5 697.5 c 128,-1,31
 215 645 215 645 197.5 588 c 128,-1,32
 180 531 180 531 170 477 c 128,-1,33
 160 423 160 423 160 386 c 0,34,35
 160 337 160 337 169 284 c 128,-1,36
 178 231 178 231 193.5 178.5 c 128,-1,37
 209 126 209 126 231 77 c 128,-1,38
 253 28 253 28 280 -13 c 1,39,40
 237 10 237 10 198.5 52.5 c 128,-1,41
 160 95 160 95 132 147 c 128,-1,42
 104 199 104 199 87 254 c 128,-1,43
 70 309 70 309 70 355 c 0,44,45
 70 434 70 434 82.5 491.5 c 128,-1,46
 95 549 95 549 110 593.5 c 128,-1,47
 125 638 125 638 137.5 673.5 c 128,-1,48
 150 709 150 709 150 744 c 0,49,50
 150 771 150 771 134 789.5 c 128,-1,51
 118 808 118 808 91 819 c 1,0,1
EndSplineSet
EndChar

StartChar: W
Encoding: 87 87 48
Width: 761
Flags: W
LayerCount: 2
Fore
SplineSet
345 161 m 1,0,1
 363 200 363 200 377.5 243 c 128,-1,2
 392 286 392 286 401 328 c 128,-1,3
 410 370 410 370 414.5 408.5 c 128,-1,4
 419 447 419 447 419 479 c 0,5,6
 419 515 419 515 407.5 560 c 128,-1,7
 396 605 396 605 379 645 c 128,-1,8
 362 685 362 685 341.5 712 c 128,-1,9
 321 739 321 739 305 739 c 0,10,11
 285 739 285 739 261.5 710.5 c 128,-1,12
 238 682 238 682 218.5 641 c 128,-1,13
 199 600 199 600 187 555.5 c 128,-1,14
 175 511 175 511 175 479 c 0,15,16
 175 438 175 438 190 393 c 128,-1,17
 205 348 205 348 230 305 c 128,-1,18
 255 262 255 262 285 224.5 c 128,-1,19
 315 187 315 187 345 161 c 1,0,1
668 924 m 1,20,21
 686 897 686 897 690 854 c 128,-1,22
 694 811 694 811 682.5 765 c 128,-1,23
 671 719 671 719 646 678 c 128,-1,24
 621 637 621 637 584 614 c 1,25,26
 587 623 587 623 593.5 636 c 128,-1,27
 600 649 600 649 605 664.5 c 128,-1,28
 610 680 610 680 613 698 c 128,-1,29
 616 716 616 716 614 734 c 1,30,31
 596 757 596 757 571.5 765.5 c 128,-1,32
 547 774 547 774 529 774 c 0,33,34
 514 774 514 774 499.5 768 c 128,-1,35
 485 762 485 762 473.5 751 c 128,-1,36
 462 740 462 740 455.5 725.5 c 128,-1,37
 449 711 449 711 449 694 c 0,38,39
 449 617 449 617 479 580 c 2,40,-1
 534 519 l 1,41,42
 526 458 526 458 509 386 c 128,-1,43
 492 314 492 314 467.5 243 c 128,-1,44
 443 172 443 172 413.5 107.5 c 128,-1,45
 384 43 384 43 350 -4 c 1,46,47
 323 0 323 0 277 -0.5 c 128,-1,48
 231 -1 231 -1 185 -9 c 1,49,50
 227 6 227 6 260.5 39 c 128,-1,51
 294 72 294 72 324 121 c 1,52,53
 292 141 292 141 250 179 c 128,-1,54
 208 217 208 217 170.5 262.5 c 128,-1,55
 133 308 133 308 106.5 357.5 c 128,-1,56
 80 407 80 407 80 450 c 0,57,58
 80 470 80 470 93.5 504.5 c 128,-1,59
 107 539 107 539 123 577.5 c 128,-1,60
 139 616 139 616 152 655 c 128,-1,61
 165 694 165 694 165 724 c 0,62,63
 165 744 165 744 156.5 760.5 c 128,-1,64
 148 777 148 777 134.5 788.5 c 128,-1,65
 121 800 121 800 104 807.5 c 128,-1,66
 87 815 87 815 70 819 c 1,67,68
 139 813 139 813 198 810.5 c 128,-1,69
 257 808 257 808 312.5 807.5 c 128,-1,70
 368 807 368 807 424.5 808.5 c 128,-1,71
 481 810 481 810 544 814 c 1,72,73
 593 825 593 825 621.5 855.5 c 128,-1,74
 650 886 650 886 668 924 c 1,20,21
EndSplineSet
EndChar

StartChar: X
Encoding: 88 88 49
Width: 757
Flags: W
LayerCount: 2
Fore
SplineSet
457 908 m 1,0,1
 520 875 520 875 564 828.5 c 128,-1,2
 608 782 608 782 635 724 c 128,-1,3
 662 666 662 666 674.5 596.5 c 128,-1,4
 687 527 687 527 687 449 c 0,5,6
 687 379 687 379 674.5 309.5 c 128,-1,7
 662 240 662 240 638.5 178.5 c 128,-1,8
 615 117 615 117 581 70 c 128,-1,9
 547 23 547 23 504 0 c 1,10,11
 477 2 477 2 440.5 4.5 c 128,-1,12
 404 7 404 7 362.5 9 c 128,-1,13
 321 11 321 11 278 10 c 128,-1,14
 235 9 235 9 195.5 3 c 128,-1,15
 156 -3 156 -3 123.5 -15 c 128,-1,16
 91 -27 91 -27 70 -47 c 1,17,18
 70 9 70 9 115.5 39.5 c 128,-1,19
 161 70 161 70 233 75 c 1,20,21
 187 136 187 136 160 215 c 128,-1,22
 133 294 133 294 133 387 c 0,23,24
 133 456 133 456 154.5 526.5 c 128,-1,25
 176 597 176 597 209.5 658 c 128,-1,26
 243 719 243 719 283.5 764 c 128,-1,27
 324 809 324 809 362 826 c 1,28,29
 345 800 345 800 320 765 c 128,-1,30
 295 730 295 730 272.5 683.5 c 128,-1,31
 250 637 250 637 235 580 c 128,-1,32
 220 523 220 523 220 455 c 0,33,34
 220 362 220 362 242 270 c 128,-1,35
 264 178 264 178 315 82 c 1,36,-1
 457 82 l 1,37,38
 477 99 477 99 501 135 c 128,-1,39
 525 171 525 171 545.5 225 c 128,-1,40
 566 279 566 279 579 351.5 c 128,-1,41
 592 424 592 424 592 516 c 0,42,43
 592 599 592 599 584.5 657.5 c 128,-1,44
 577 716 577 716 560 760 c 128,-1,45
 543 804 543 804 517.5 838 c 128,-1,46
 492 872 492 872 457 908 c 1,0,1
EndSplineSet
EndChar

StartChar: Y
Encoding: 89 89 50
Width: 619
Flags: W
LayerCount: 2
Fore
SplineSet
549 810 m 1,0,1
 495 758 495 758 457.5 678.5 c 128,-1,2
 420 599 420 599 395 503 c 128,-1,3
 370 407 370 407 356 297.5 c 128,-1,4
 342 188 342 188 334 77 c 1,5,6
 368 62 368 62 409 40.5 c 128,-1,7
 450 19 450 19 499 -3 c 1,8,9
 458 -3 458 -3 410 -1.5 c 128,-1,10
 362 0 362 0 314.5 5.5 c 128,-1,11
 267 11 267 11 223 21 c 128,-1,12
 179 31 179 31 145 48 c 128,-1,13
 111 65 111 65 90.5 89 c 128,-1,14
 70 113 70 113 70 146 c 0,15,16
 70 166 70 166 80 190 c 128,-1,17
 90 214 90 214 105.5 236.5 c 128,-1,18
 121 259 121 259 141.5 278.5 c 128,-1,19
 162 298 162 298 185 311 c 1,20,21
 171 292 171 292 160.5 271 c 128,-1,22
 150 250 150 250 150 231 c 0,23,24
 150 207 150 207 177.5 180.5 c 128,-1,25
 205 154 205 154 270 117 c 1,26,27
 283 244 283 244 277.5 356.5 c 128,-1,28
 272 469 272 469 251 560 c 128,-1,29
 230 651 230 651 195 717 c 128,-1,30
 160 783 160 783 115 819 c 1,31,32
 225 826 225 826 290 819 c 1,33,34
 301 810 301 810 302.5 795.5 c 128,-1,35
 304 781 304 781 302.5 766.5 c 128,-1,36
 301 752 301 752 301 738 c 0,37,38
 301 726 301 726 310 720 c 1,39,40
 355 731 355 731 412 751.5 c 128,-1,41
 469 772 469 772 549 810 c 1,0,1
EndSplineSet
EndChar

StartChar: Z
Encoding: 90 90 51
Width: 439
Flags: W
LayerCount: 2
Fore
SplineSet
70 784 m 1,0,1
 83 793 83 793 95 800 c 128,-1,2
 107 807 107 807 122 811 c 128,-1,3
 137 815 137 815 157 817 c 128,-1,4
 177 819 177 819 204 819 c 0,5,6
 236 819 236 819 263.5 812.5 c 128,-1,7
 291 806 291 806 311 795.5 c 128,-1,8
 331 785 331 785 342.5 773 c 128,-1,9
 354 761 354 761 354 750 c 0,10,11
 354 743 354 743 347 741.5 c 128,-1,12
 340 740 340 740 327.5 741 c 128,-1,13
 315 742 315 742 298 742.5 c 128,-1,14
 281 743 281 743 263 738.5 c 128,-1,15
 245 734 245 734 226 721.5 c 128,-1,16
 207 709 207 709 190 684 c 1,17,18
 215 684 215 684 235 684 c 256,19,20
 255 684 255 684 276 683 c 128,-1,21
 297 682 297 682 319.5 680 c 128,-1,22
 342 678 342 678 369 675 c 1,23,24
 341 644 341 644 322.5 594 c 128,-1,25
 304 544 304 544 291 481 c 128,-1,26
 278 418 278 418 271 345.5 c 128,-1,27
 264 273 264 273 260.5 197 c 128,-1,28
 257 121 257 121 256 44 c 128,-1,29
 255 -33 255 -33 255 -103 c 1,30,31
 235 19 235 19 219 124.5 c 128,-1,32
 203 230 203 230 186.5 325 c 128,-1,33
 170 420 170 420 148.5 506 c 128,-1,34
 127 592 127 592 95 675 c 1,35,36
 106 698 106 698 127 711.5 c 128,-1,37
 148 725 148 725 168.5 733 c 128,-1,38
 189 741 189 741 204.5 746 c 128,-1,39
 220 751 220 751 220 755 c 0,40,41
 220 760 220 760 207.5 766.5 c 128,-1,42
 195 773 195 773 174.5 778.5 c 128,-1,43
 154 784 154 784 127 786 c 128,-1,44
 100 788 100 788 70 784 c 1,0,1
EndSplineSet
EndChar

StartChar: quotedbl
Encoding: 34 34 52
Width: 338
Flags: W
LayerCount: 2
Fore
SplineSet
153 662 m 1,0,-1
 112 529 l 1,1,-1
 70 659 l 1,2,-1
 70 725 l 1,3,-1
 153 725 l 1,4,-1
 153 662 l 1,0,-1
268 664 m 1,5,-1
 227 532 l 1,6,-1
 185 662 l 1,7,-1
 185 728 l 1,8,-1
 268 728 l 1,9,-1
 268 664 l 1,5,-1
EndSplineSet
EndChar

StartChar: quotesingle
Encoding: 39 39 53
Width: 223
Flags: W
LayerCount: 2
Fore
SplineSet
153 671 m 1,0,-1
 115 539 l 1,1,-1
 70 668 l 1,2,-1
 70 734 l 1,3,-1
 153 734 l 1,4,-1
 153 671 l 1,0,-1
EndSplineSet
EndChar

StartChar: comma
Encoding: 44 44 54
Width: 243
Flags: W
LayerCount: 2
Fore
SplineSet
173 3 m 1,0,-1
 70 -129 l 1,1,-1
 91 0 l 1,2,-1
 91 67 l 1,3,-1
 173 67 l 1,4,-1
 173 3 l 1,0,-1
EndSplineSet
EndChar

StartChar: hyphen
Encoding: 45 45 55
AltUni2: 0000ad.ffffffff.0
Width: 398
Flags: W
LayerCount: 2
Fore
SplineSet
70 330 m 1,0,-1
 328 333 l 1,1,-1
 304 287 l 1,2,-1
 85 287 l 1,3,-1
 70 330 l 1,0,-1
EndSplineSet
EndChar

StartChar: colon
Encoding: 58 58 56
Width: 223
Flags: W
LayerCount: 2
Fore
SplineSet
153 85 m 1,0,-1
 113 61 l 1,1,-1
 70 83 l 1,2,-1
 70 148 l 1,3,-1
 153 148 l 1,4,-1
 153 85 l 1,0,-1
153 434 m 1,5,-1
 113 410 l 1,6,-1
 70 431 l 1,7,-1
 70 498 l 1,8,-1
 153 498 l 1,9,-1
 153 434 l 1,5,-1
EndSplineSet
EndChar

StartChar: semicolon
Encoding: 59 59 57
AltUni2: 00037e.ffffffff.0
Width: 243
Flags: W
LayerCount: 2
Fore
SplineSet
173 102 m 1,0,-1
 70 -30 l 1,1,-1
 91 99 l 1,2,-1
 91 166 l 1,3,-1
 173 166 l 1,4,-1
 173 102 l 1,0,-1
173 433 m 1,5,-1
 133 410 l 1,6,-1
 91 431 l 1,7,-1
 91 498 l 1,8,-1
 173 498 l 1,9,-1
 173 433 l 1,5,-1
EndSplineSet
EndChar

StartChar: quoteleft
Encoding: 8216 8216 58
Width: 243
Flags: W
LayerCount: 2
Fore
SplineSet
70 721 m 1,0,-1
 152 721 l 1,1,-1
 152 654 l 1,2,-1
 173 525 l 1,3,-1
 70 657 l 1,4,-1
 70 721 l 1,0,-1
EndSplineSet
EndChar

StartChar: quoteright
Encoding: 8217 8217 59
Width: 243
Flags: W
LayerCount: 2
Fore
SplineSet
173 654 m 1,0,-1
 70 522 l 1,1,-1
 91 651 l 1,2,-1
 91 718 l 1,3,-1
 173 718 l 1,4,-1
 173 654 l 1,0,-1
EndSplineSet
EndChar

StartChar: quotedblleft
Encoding: 8220 8220 60
Width: 357
Flags: W
LayerCount: 2
Fore
SplineSet
70 730 m 1,0,-1
 152 730 l 1,1,-1
 152 664 l 1,2,-1
 173 535 l 1,3,-1
 70 666 l 1,4,-1
 70 730 l 1,0,-1
185 727 m 1,5,-1
 267 727 l 1,6,-1
 267 662 l 1,7,-1
 287 531 l 1,8,-1
 185 664 l 1,9,-1
 185 727 l 1,5,-1
EndSplineSet
EndChar

StartChar: quotedblright
Encoding: 8221 8221 61
Width: 357
Flags: W
LayerCount: 2
Fore
SplineSet
173 658 m 1,0,-1
 70 526 l 1,1,-1
 91 656 l 1,2,-1
 91 722 l 1,3,-1
 173 722 l 1,4,-1
 173 658 l 1,0,-1
287 660 m 1,5,-1
 185 529 l 1,6,-1
 205 658 l 1,7,-1
 205 725 l 1,8,-1
 287 725 l 1,9,-1
 287 660 l 1,5,-1
EndSplineSet
EndChar

StartChar: period
Encoding: 46 46 62
Width: 223
Flags: W
LayerCount: 2
Fore
SplineSet
153 5 m 1,0,-1
 113 -18 l 1,1,-1
 70 2 l 1,2,-1
 70 69 l 1,3,-1
 153 69 l 1,4,-1
 153 5 l 1,0,-1
EndSplineSet
EndChar

StartChar: exclam
Encoding: 33 33 63
Width: 223
Flags: W
LayerCount: 2
Fore
SplineSet
153 3 m 1,0,-1
 113 -20 l 1,1,-1
 70 1 l 1,2,-1
 70 67 l 1,3,-1
 153 67 l 1,4,-1
 153 3 l 1,0,-1
153 550 m 1,5,-1
 113 136 l 1,6,-1
 70 547 l 1,7,-1
 70 613 l 1,8,-1
 153 613 l 1,9,-1
 153 550 l 1,5,-1
EndSplineSet
EndChar

StartChar: question
Encoding: 63 63 64
Width: 375
Flags: W
LayerCount: 2
Fore
SplineSet
237 67 m 1,0,-1
 154 67 l 1,1,-1
 154 1 l 1,2,-1
 197 -20 l 1,3,-1
 237 3 l 1,4,-1
 237 67 l 1,0,-1
305 525 m 0,5,6
 305 480 305 480 271 431 c 0,7,8
 256 411 256 411 240.5 391.5 c 128,-1,9
 225 372 225 372 208 351 c 0,10,11
 175 304 175 304 176 268 c 256,12,13
 176 232 176 232 196 211 c 128,-1,14
 216 190 216 190 248 190 c 0,15,16
 253 190 253 190 259 190.5 c 128,-1,17
 265 191 265 191 270 193 c 1,18,-1
 273 180 l 1,19,20
 246 157 246 157 189 133 c 1,21,22
 160 133 160 133 141 171 c 0,23,24
 123 203 123 203 122 233 c 0,25,26
 122 273 122 273 169 334 c 0,27,28
 186 357 186 357 197 373.5 c 128,-1,29
 208 390 208 390 216 401 c 0,30,31
 238 441 238 441 237 479 c 0,32,33
 237 551 237 551 165 551 c 0,34,35
 157 551 157 551 123 526 c 0,36,37
 112 518 112 518 101.5 510 c 128,-1,38
 91 502 91 502 79 494 c 1,39,-1
 70 509 l 1,40,41
 78 523 78 523 87.5 538.5 c 128,-1,42
 97 554 97 554 105 569 c 0,43,44
 119 594 119 594 138 602 c 0,45,46
 160 611 160 611 201 611 c 0,47,48
 245 611 245 611 274 591 c 0,49,50
 305 567 305 567 305 525 c 0,5,6
EndSplineSet
EndChar

StartChar: endash
Encoding: 8211 8211 65
Width: 463
Flags: W
LayerCount: 2
Fore
SplineSet
70 330 m 1,0,-1
 393 333 l 1,1,-1
 362 287 l 1,2,-1
 89 287 l 1,3,-1
 70 330 l 1,0,-1
EndSplineSet
EndChar

StartChar: emdash
Encoding: 8212 8212 66
Width: 527
Flags: W
LayerCount: 2
Fore
SplineSet
70 330 m 1,0,-1
 457 333 l 1,1,-1
 420 287 l 1,2,-1
 92 287 l 1,3,-1
 70 330 l 1,0,-1
EndSplineSet
EndChar

StartChar: one
Encoding: 49 49 67
Width: 2927
Flags: W
LayerCount: 2
Fore
SplineSet
865 234 m 0,0,1
 865 168 865 168 829.5 133 c 128,-1,2
 794 98 794 98 732 98 c 0,3,4
 677 98 677 98 641 133 c 128,-1,5
 605 168 605 168 605 229 c 0,6,7
 605 257 605 257 615 281.5 c 128,-1,8
 625 306 625 306 642 324.5 c 128,-1,9
 659 343 659 343 683 354 c 128,-1,10
 707 365 707 365 735 365 c 0,11,12
 793 365 793 365 829 328 c 128,-1,13
 865 291 865 291 865 234 c 0,0,1
735 348 m 0,14,15
 698 348 698 348 680.5 317.5 c 128,-1,16
 663 287 663 287 663 238 c 0,17,18
 663 220 663 220 666.5 198 c 128,-1,19
 670 176 670 176 678.5 157.5 c 128,-1,20
 687 139 687 139 702 127 c 128,-1,21
 717 115 717 115 740 115 c 0,22,23
 777 115 777 115 793 147 c 128,-1,24
 809 179 809 179 809 225 c 0,25,26
 809 251 809 251 804 273.5 c 128,-1,27
 799 296 799 296 789 312.5 c 128,-1,28
 779 329 779 329 765 338.5 c 128,-1,29
 751 348 751 348 735 348 c 0,14,15
903 294 m 2,30,31
 903 325 903 325 901 332.5 c 128,-1,32
 899 340 899 340 887 340 c 2,33,-1
 873 343 l 2,34,35
 871 343 871 343 871 347 c 0,36,37
 871 352 871 352 873 356 c 1,38,39
 896 356 896 356 918 357.5 c 128,-1,40
 940 359 940 359 969 359 c 0,41,42
 993 359 993 359 1011 356 c 128,-1,43
 1029 353 1029 353 1041 343 c 0,44,45
 1055 335 1055 335 1064 319.5 c 128,-1,46
 1073 304 1073 304 1073 287 c 0,47,48
 1073 262 1073 262 1059.5 249 c 128,-1,49
 1046 236 1046 236 1033 229 c 0,50,51
 1029 229 1029 229 1029 226 c 0,52,53
 1029 224 1029 224 1033 221 c 0,54,55
 1051 182 1051 182 1062.5 159.5 c 128,-1,56
 1074 137 1074 137 1090 128 c 1,57,58
 1097 118 1097 118 1102.5 116.5 c 128,-1,59
 1108 115 1108 115 1115 115 c 1,60,61
 1120 110 1120 110 1115 104 c 0,62,63
 1110 104 1110 104 1103 101 c 128,-1,64
 1096 98 1096 98 1085 98 c 0,65,66
 1060 98 1060 98 1042 109.5 c 128,-1,67
 1024 121 1024 121 1012 140 c 0,68,69
 1007 155 1007 155 998.5 170 c 128,-1,70
 990 185 990 185 985 202 c 0,71,72
 980 210 980 210 976.5 211.5 c 128,-1,73
 973 213 973 213 963 213 c 0,74,75
 955 213 955 213 953.5 212 c 128,-1,76
 952 211 952 211 952 205 c 2,77,-1
 952 161 l 2,78,79
 952 133 952 133 955.5 127 c 128,-1,80
 959 121 959 121 972 121 c 1,81,-1
 979 115 l 2,82,83
 984 115 984 115 984 110 c 256,84,85
 984 105 984 105 979 104 c 2,86,-1
 927 104 l 1,87,-1
 873 104 l 2,88,89
 871 104 871 104 871 110 c 256,90,91
 871 115 871 115 873 115 c 2,92,-1
 882 121 l 1,93,94
 894 121 894 121 898.5 127 c 128,-1,95
 903 133 903 133 903 161 c 2,96,-1
 903 294 l 2,30,31
952 246 m 2,97,98
 952 238 952 238 955 236 c 128,-1,99
 958 234 958 234 976 234 c 0,100,101
 985 234 985 234 991 236.5 c 128,-1,102
 997 239 997 239 1005 242 c 1,103,104
 1008 249 1008 249 1012.5 257.5 c 128,-1,105
 1017 266 1017 266 1017 284 c 0,106,107
 1017 311 1017 311 1003 325.5 c 128,-1,108
 989 340 989 340 969 340 c 0,109,110
 957 340 957 340 954.5 338 c 128,-1,111
 952 336 952 336 952 324 c 2,112,-1
 952 246 l 2,97,98
1171 294 m 2,113,114
 1171 325 1171 325 1167 332.5 c 128,-1,115
 1163 340 1163 340 1151 340 c 2,116,-1
 1142 343 l 2,117,118
 1140 343 1140 343 1140 347 c 0,119,120
 1140 352 1140 352 1142 356 c 1,121,122
 1165 356 1165 356 1186.5 357.5 c 128,-1,123
 1208 359 1208 359 1236 359 c 0,124,125
 1258 359 1258 359 1278 356 c 128,-1,126
 1298 353 1298 353 1311 343 c 0,127,128
 1325 335 1325 335 1333.5 319.5 c 128,-1,129
 1342 304 1342 304 1342 287 c 0,130,131
 1342 262 1342 262 1328 249 c 128,-1,132
 1314 236 1314 236 1302 229 c 0,133,134
 1299 229 1299 229 1298 226 c 0,135,136
 1298 224 1298 224 1302 221 c 0,137,138
 1316 182 1316 182 1329 159.5 c 128,-1,139
 1342 137 1342 137 1359 128 c 1,140,141
 1365 118 1365 118 1371 116.5 c 128,-1,142
 1377 115 1377 115 1383 115 c 1,143,144
 1388 110 1388 110 1383 104 c 0,145,146
 1379 104 1379 104 1371.5 101 c 128,-1,147
 1364 98 1364 98 1354 98 c 0,148,149
 1327 98 1327 98 1310 109.5 c 128,-1,150
 1293 121 1293 121 1281 140 c 0,151,152
 1272 155 1272 155 1266 170 c 128,-1,153
 1260 185 1260 185 1252 202 c 0,154,155
 1249 210 1249 210 1245.5 211.5 c 128,-1,156
 1242 213 1242 213 1232 213 c 0,157,158
 1224 213 1224 213 1222.5 212 c 128,-1,159
 1221 211 1221 211 1221 205 c 2,160,-1
 1221 161 l 2,161,162
 1221 133 1221 133 1223.5 127 c 128,-1,163
 1226 121 1226 121 1240 121 c 1,164,-1
 1248 115 l 2,165,166
 1251 115 1251 115 1251 110 c 256,167,168
 1251 105 1251 105 1248 104 c 2,169,-1
 1196 104 l 1,170,-1
 1139 104 l 1,171,-1
 1139 115 l 1,172,-1
 1151 121 l 1,173,174
 1163 121 1163 121 1167 127 c 128,-1,175
 1171 133 1171 133 1171 161 c 2,176,-1
 1171 294 l 2,113,114
1221 246 m 2,177,178
 1221 238 1221 238 1224 236 c 128,-1,179
 1227 234 1227 234 1245 234 c 0,180,181
 1259 234 1259 234 1272 242 c 0,182,183
 1277 249 1277 249 1281 257.5 c 128,-1,184
 1285 266 1285 266 1285 284 c 0,185,186
 1285 311 1285 311 1271 325.5 c 128,-1,187
 1257 340 1257 340 1236 340 c 0,188,189
 1225 340 1225 340 1223 338 c 128,-1,190
 1221 336 1221 336 1221 324 c 2,191,-1
 1221 246 l 2,177,178
1647 234 m 0,192,193
 1647 168 1647 168 1609.5 133 c 128,-1,194
 1572 98 1572 98 1513 98 c 128,-1,195
 1454 98 1454 98 1418.5 133 c 128,-1,196
 1383 168 1383 168 1383 229 c 0,197,198
 1383 257 1383 257 1393.5 281.5 c 128,-1,199
 1404 306 1404 306 1422 324.5 c 128,-1,200
 1440 343 1440 343 1464 354 c 128,-1,201
 1488 365 1488 365 1517 365 c 0,202,203
 1575 365 1575 365 1611 328 c 128,-1,204
 1647 291 1647 291 1647 234 c 0,192,193
1513 348 m 0,205,206
 1478 348 1478 348 1461 317.5 c 128,-1,207
 1444 287 1444 287 1444 238 c 0,208,209
 1444 220 1444 220 1447.5 198 c 128,-1,210
 1451 176 1451 176 1459 157.5 c 128,-1,211
 1467 139 1467 139 1481 127 c 128,-1,212
 1495 115 1495 115 1517 115 c 0,213,214
 1554 115 1554 115 1570.5 147 c 128,-1,215
 1587 179 1587 179 1587 225 c 0,216,217
 1587 251 1587 251 1582 273.5 c 128,-1,218
 1577 296 1577 296 1567.5 312.5 c 128,-1,219
 1558 329 1558 329 1543.5 338.5 c 128,-1,220
 1529 348 1529 348 1513 348 c 0,205,206
1989 343 m 2,221,222
 1984 341 1984 341 1980 340 c 128,-1,223
 1976 339 1976 339 1972 335 c 0,224,225
 1970 329 1970 329 1966 319 c 128,-1,226
 1962 309 1962 309 1953 291 c 0,227,228
 1947 274 1947 274 1936 249.5 c 128,-1,229
 1925 225 1925 225 1914 198 c 128,-1,230
 1903 171 1903 171 1892 145 c 128,-1,231
 1881 119 1881 119 1875 98 c 1,232,-1
 1864 98 l 1,233,-1
 1855 98 l 1,234,235
 1851 108 1851 108 1846 117.5 c 128,-1,236
 1841 127 1841 127 1839 137 c 2,237,-1
 1823 172 l 2,238,239
 1820 182 1820 182 1817 190 c 128,-1,240
 1814 198 1814 198 1809 202 c 1,241,242
 1807 196 1807 196 1804 189 c 128,-1,243
 1801 182 1801 182 1799 172 c 2,244,-1
 1783 137 l 2,245,246
 1776 127 1776 127 1772 118 c 128,-1,247
 1768 109 1768 109 1766 98 c 1,248,249
 1761 96 1761 96 1758.5 95.5 c 128,-1,250
 1756 95 1756 95 1753 95 c 0,251,252
 1751 95 1751 95 1748 95.5 c 128,-1,253
 1745 96 1745 96 1745 98 c 0,254,255
 1739 110 1739 110 1728 133 c 128,-1,256
 1717 156 1717 156 1709 180 c 2,257,-1
 1647 315 l 2,258,259
 1642 333 1642 333 1637.5 338 c 128,-1,260
 1633 343 1633 343 1623 343 c 2,261,-1
 1614 343 l 1,262,263
 1614 349 1614 349 1614.5 353 c 128,-1,264
 1615 357 1615 357 1620 359 c 0,265,266
 1628 359 1628 359 1639.5 357.5 c 128,-1,267
 1651 356 1651 356 1663 356 c 256,268,269
 1675 356 1675 356 1687 357.5 c 128,-1,270
 1699 359 1699 359 1709 359 c 0,271,272
 1711 357 1711 357 1711 352 c 256,273,274
 1711 347 1711 347 1709 343 c 1,275,-1
 1704 343 l 2,276,277
 1698 343 1698 343 1697 341.5 c 0,278,279
 1696 340 l 2,280,281
 1696 333 1696 333 1712 291 c 2,282,-1
 1750 205 l 2,283,284
 1758 187 1758 187 1762.5 178.5 c 128,-1,285
 1767 170 1767 170 1769 164 c 1,286,287
 1772 170 1772 170 1775.5 179.5 c 128,-1,288
 1779 189 1779 189 1786 202 c 2,289,-1
 1790 213 l 2,290,291
 1792 217 1792 217 1795.5 223 c 0,292,-1
 1799 229 l 2,293,294
 1799 233 1799 233 1798.5 236 c 128,-1,295
 1798 239 1798 239 1793 242 c 2,296,-1
 1757 324 l 2,297,298
 1752 336 1752 336 1749 339.5 c 128,-1,299
 1746 343 1746 343 1734 343 c 2,300,-1
 1729 343 l 1,301,302
 1726 347 1726 347 1728 352 c 128,-1,303
 1730 357 1730 357 1734 359 c 0,304,305
 1742 359 1742 359 1753 357.5 c 128,-1,306
 1764 356 1764 356 1777 356 c 0,307,308
 1794 356 1794 356 1802.5 357.5 c 128,-1,309
 1811 359 1811 359 1819 359 c 0,310,311
 1824 357 1824 357 1824.5 352 c 128,-1,312
 1825 347 1825 347 1823 343 c 1,313,-1
 1815 343 l 2,314,315
 1811 343 1811 343 1808.5 341.5 c 0,316,-1
 1806 340 l 2,317,318
 1806 336 1806 336 1806.5 333.5 c 128,-1,319
 1807 331 1807 331 1809 327 c 2,320,-1
 1819 300 l 2,321,322
 1822 295 1822 295 1824.5 289 c 128,-1,323
 1827 283 1827 283 1831 278 c 1,324,325
 1834 285 1834 285 1837 290.5 c 128,-1,326
 1840 296 1840 296 1842 303 c 2,327,-1
 1842 310 l 1,328,329
 1855 332 1855 332 1855 340 c 1,330,-1
 1847 343 l 1,331,-1
 1835 343 l 1,332,333
 1835 347 1835 347 1835.5 352 c 128,-1,334
 1836 357 1836 357 1839 359 c 0,335,336
 1845 359 1845 359 1856 357.5 c 128,-1,337
 1867 356 1867 356 1875 356 c 0,338,339
 1884 356 1884 356 1893.5 357.5 c 128,-1,340
 1903 359 1903 359 1913 359 c 0,341,342
 1915 357 1915 357 1915 352 c 256,343,344
 1915 347 1915 347 1913 343 c 1,345,-1
 1900 343 l 2,346,347
 1891 341 1891 341 1887 337.5 c 128,-1,348
 1883 334 1883 334 1872 315 c 0,349,350
 1866 304 1866 304 1860 292.5 c 128,-1,351
 1854 281 1854 281 1850 270 c 0,352,353
 1848 268 1848 268 1845 261 c 0,354,-1
 1842 254 l 2,355,356
 1842 252 1842 252 1842.5 250.5 c 128,-1,357
 1843 249 1843 249 1847 242 c 2,358,-1
 1864 205 l 2,359,360
 1870 187 1870 187 1873 178.5 c 128,-1,361
 1876 170 1876 170 1880 164 c 1,362,363
 1892 199 1892 199 1905 234 c 128,-1,364
 1918 269 1918 269 1932 303 c 0,365,366
 1932 308 1932 308 1935.5 321 c 128,-1,367
 1939 334 1939 334 1939 340 c 2,368,369
 1938 341.5 l 0,370,371
 1937 343 1937 343 1932 343 c 2,372,-1
 1929 343 l 1,373,374
 1924 347 1924 347 1924 352 c 256,375,376
 1924 357 1924 357 1929 359 c 0,377,378
 1937 359 1937 359 1946.5 357.5 c 128,-1,379
 1956 356 1956 356 1965 356 c 256,380,381
 1974 356 1974 356 1982.5 357.5 c 128,-1,382
 1991 359 1991 359 1998 359 c 0,383,384
 2001 357 2001 357 2001.5 352 c 128,-1,385
 2002 347 2002 347 2002 343 c 1,386,-1
 1989 343 l 2,221,222
2071 161 m 2,387,388
 2071 133 2071 133 2073 127 c 128,-1,389
 2075 121 2075 121 2086 121 c 1,390,-1
 2099 115 l 2,391,392
 2101 115 2101 115 2101 110 c 256,393,394
 2101 105 2101 105 2099 104 c 2,395,-1
 2043 104 l 1,396,-1
 1986 104 l 1,397,-1
 1986 115 l 1,398,-1
 1998 121 l 1,399,400
 2009 121 2009 121 2013.5 127 c 128,-1,401
 2018 133 2018 133 2018 161 c 2,402,-1
 2018 303 l 2,403,404
 2018 331 2018 331 2013.5 336 c 128,-1,405
 2009 341 2009 341 1998 343 c 2,406,-1
 1986 343 l 1,407,-1
 1986 359 l 1,408,409
 2000 359 2000 359 2015.5 357.5 c 128,-1,410
 2031 356 2031 356 2043 356 c 256,411,412
 2055 356 2055 356 2069.5 357.5 c 128,-1,413
 2084 359 2084 359 2099 359 c 0,414,415
 2101 357 2101 357 2101 352 c 256,416,417
 2101 347 2101 347 2099 343 c 1,418,-1
 2086 343 l 2,419,420
 2075 341 2075 341 2073 336 c 128,-1,421
 2071 331 2071 331 2071 303 c 2,422,-1
 2071 161 l 2,387,388
2396 169 m 1,423,-1
 2396 108 l 2,424,425
 2393 106 2393 106 2385.5 102 c 128,-1,426
 2378 98 2378 98 2372 98 c 1,427,-1
 2361 112 l 0,428,429
 2350 126 2350 126 2336 140 c 2,430,-1
 2238 251 l 2,431,432
 2219 271 2219 271 2209 283 c 128,-1,433
 2199 295 2199 295 2192 300 c 1,434,435
 2190 295 2190 295 2189.5 291 c 128,-1,436
 2189 287 2189 287 2189 274 c 2,437,-1
 2189 202 l 2,438,439
 2189 177 2189 177 2191 157 c 128,-1,440
 2193 137 2193 137 2198 128 c 0,441,442
 2200 125 2200 125 2206 122.5 c 128,-1,443
 2212 120 2212 120 2222 115 c 1,444,-1
 2233 115 l 2,445,446
 2237 113 2237 113 2235 108.5 c 0,447,-1
 2233 104 l 1,448,-1
 2176 104 l 1,449,-1
 2128 104 l 1,450,-1
 2128 115 l 1,451,-1
 2135 115 l 1,452,453
 2145 120 2145 120 2151.5 122.5 c 128,-1,454
 2158 125 2158 125 2161 128 c 0,455,456
 2164 137 2164 137 2164.5 157 c 128,-1,457
 2165 177 2165 177 2165 202 c 2,458,-1
 2165 300 l 2,459,460
 2165 314 2165 314 2164.5 321 c 128,-1,461
 2164 328 2164 328 2161 332 c 0,462,463
 2161 338 2161 338 2154.5 339.5 c 128,-1,464
 2148 341 2148 341 2140 343 c 2,465,-1
 2128 343 l 1,466,467
 2126 347 2126 347 2126 352 c 256,468,469
 2126 357 2126 357 2128 359 c 0,470,471
 2143 359 2143 359 2157.5 357.5 c 128,-1,472
 2172 356 2172 356 2184 356 c 256,473,474
 2196 356 2196 356 2205.5 357.5 c 128,-1,475
 2215 359 2215 359 2222 359 c 1,476,477
 2224 347 2224 347 2244 323.5 c 128,-1,478
 2264 300 2264 300 2291 270 c 2,479,-1
 2328 234 l 2,480,481
 2342 218 2342 218 2352 208.5 c 128,-1,482
 2362 199 2362 199 2369 188 c 1,483,484
 2371 192 2371 192 2371.5 198 c 128,-1,485
 2372 204 2372 204 2372 210 c 2,486,-1
 2372 261 l 2,487,488
 2372 286 2372 286 2369.5 306 c 128,-1,489
 2367 326 2367 326 2363 332 c 0,490,491
 2359 343 2359 343 2339 343 c 2,492,-1
 2328 343 l 1,493,494
 2325 347 2325 347 2326.5 352 c 128,-1,495
 2328 357 2328 357 2328 359 c 1,496,497
 2346 359 2346 359 2359.5 357.5 c 128,-1,498
 2373 356 2373 356 2385 356 c 256,499,500
 2397 356 2397 356 2409.5 357.5 c 128,-1,501
 2422 359 2422 359 2434 359 c 1,502,-1
 2434 343 l 1,503,-1
 2425 343 l 2,504,505
 2406 343 2406 343 2401 332 c 0,506,507
 2397 326 2397 326 2396.5 306 c 128,-1,508
 2396 286 2396 286 2396 261 c 2,509,-1
 2396 169 l 1,423,-1
92 348 m 2,510,511
 90 350 90 350 90 358 c 0,512,513
 90 367 90 367 92 368 c 2,514,-1
 165 368 l 1,515,-1
 222 368 l 1,516,517
 222 341 222 341 236 314 c 128,-1,518
 250 287 250 287 268 246 c 2,519,-1
 308 169 l 2,520,521
 309 164 309 164 312.5 156 c 128,-1,522
 316 148 316 148 320.5 139.5 c 128,-1,523
 325 131 325 131 329.5 122.5 c 128,-1,524
 334 114 334 114 337 108 c 1,525,526
 342 120 342 120 349.5 134 c 128,-1,527
 357 148 357 148 370 172 c 2,528,-1
 401 234 l 2,529,530
 410 257 410 257 417.5 274 c 128,-1,531
 425 291 425 291 431 306 c 128,-1,532
 437 321 437 321 443 335 c 128,-1,533
 449 349 449 349 455 368 c 1,534,-1
 516 368 l 1,535,-1
 581 368 l 1,536,537
 595 363 595 363 581 348 c 1,538,-1
 564 343 l 2,539,540
 546 341 546 341 539 334 c 128,-1,541
 532 327 532 327 532 303 c 0,542,543
 532 260 532 260 532 226 c 256,544,545
 532 192 532 192 533 163.5 c 128,-1,546
 534 135 534 135 534.5 109.5 c 128,-1,547
 535 84 535 84 537 58 c 0,548,549
 537 38 537 38 541 27 c 128,-1,550
 545 16 545 16 561 14 c 2,551,-1
 581 14 l 1,552,553
 584 10 584 10 584 3 c 0,554,555
 584 -3 584 -3 581 -6 c 2,556,-1
 500 -6 l 1,557,-1
 415 -6 l 2,558,559
 409 -3 409 -3 408.5 3.5 c 128,-1,560
 408 10 408 10 410 14 c 1,561,-1
 431 14 l 2,562,563
 448 16 448 16 451.5 25 c 128,-1,564
 455 34 455 34 455 58 c 2,565,-1
 455 205 l 1,566,-1
 455 270 l 1,567,568
 421 202 421 202 388 132.5 c 128,-1,569
 355 63 355 63 325 -10 c 1,570,-1
 322 -12.5 l 0,571,572
 319 -15 319 -15 317 -15 c 0,573,574
 310 -15 310 -15 306.5 -12.5 c 128,-1,575
 303 -10 303 -10 301 -10 c 0,576,577
 292 16 292 16 275.5 52.5 c 128,-1,578
 259 89 259 89 241 128 c 128,-1,579
 223 167 223 167 205.5 205 c 128,-1,580
 188 243 188 243 178 270 c 1,581,-1
 174 270 l 1,582,583
 174 243 174 243 172.5 224 c 128,-1,584
 171 205 171 205 171 180 c 2,585,-1
 171 55 l 2,586,587
 171 32 171 32 175 24.5 c 128,-1,588
 179 17 179 17 195 17 c 2,589,-1
 219 14 l 2,590,591
 221 10 221 10 221 3 c 0,592,593
 221 -3 221 -3 219 -6 c 2,594,-1
 148 -6 l 1,595,-1
 84 -6 l 2,596,597
 78 -3 78 -3 77.5 3.5 c 128,-1,598
 77 10 77 10 81 14 c 1,599,-1
 92 14 l 2,600,601
 115 16 115 16 120 24 c 128,-1,602
 125 32 125 32 125 58 c 0,603,604
 128 81 128 81 130.5 115.5 c 128,-1,605
 133 150 133 150 138 188 c 0,606,607
 138 216 138 216 139.5 247.5 c 128,-1,608
 141 279 141 279 141 303 c 128,-1,609
 141 327 141 327 132 334.5 c 128,-1,610
 123 342 123 342 105 348 c 1,611,-1
 92 348 l 2,510,511
2502 274 m 2,612,613
 2502 293 2502 293 2501.5 305 c 128,-1,614
 2501 317 2501 317 2499 324.5 c 128,-1,615
 2497 332 2497 332 2491.5 335 c 128,-1,616
 2486 338 2486 338 2477 340 c 2,617,-1
 2466 340 l 2,618,619
 2462 342 2462 342 2462.5 349.5 c 128,-1,620
 2463 357 2463 357 2470 359 c 0,621,622
 2504 359 2504 359 2538.5 362 c 128,-1,623
 2573 365 2573 365 2616 365 c 0,624,625
 2650 365 2650 365 2682.5 360 c 128,-1,626
 2715 355 2715 355 2743 343 c 0,627,628
 2771 334 2771 334 2792 318 c 128,-1,629
 2813 302 2813 302 2827.5 281.5 c 128,-1,630
 2842 261 2842 261 2849.5 237 c 128,-1,631
 2857 213 2857 213 2857 188 c 0,632,633
 2857 133 2857 133 2831 91.5 c 128,-1,634
 2805 50 2805 50 2760 26 c 1,635,636
 2728 14 2728 14 2693.5 7.5 c 128,-1,637
 2659 1 2659 1 2616 1 c 0,638,639
 2597 1 2597 1 2578 3.5 c 128,-1,640
 2559 6 2559 6 2543 6 c 0,641,642
 2525 6 2525 6 2503.5 5.5 c 128,-1,643
 2482 5 2482 5 2458 1 c 1,644,645
 2455 5 2455 5 2455 11 c 0,646,647
 2455 18 2455 18 2458 23 c 2,648,-1
 2474 26 l 2,649,650
 2484 28 2484 28 2489.5 30 c 128,-1,651
 2495 32 2495 32 2498 37.5 c 128,-1,652
 2501 43 2501 43 2501.5 54 c 128,-1,653
 2502 65 2502 65 2502 83 c 2,654,-1
 2502 274 l 2,612,613
2584 104 m 2,655,656
 2584 79 2584 79 2585.5 65.5 c 128,-1,657
 2587 52 2587 52 2597 42 c 0,658,659
 2602 34 2602 34 2614 30 c 128,-1,660
 2626 26 2626 26 2640 26 c 0,661,662
 2675 26 2675 26 2699.5 40 c 128,-1,663
 2724 54 2724 54 2739 77 c 128,-1,664
 2754 100 2754 100 2760.5 129 c 128,-1,665
 2767 158 2767 158 2767 185 c 0,666,667
 2767 259 2767 259 2728.5 299.5 c 128,-1,668
 2690 340 2690 340 2616 340 c 0,669,670
 2604 340 2604 340 2596 337 c 128,-1,671
 2588 334 2588 334 2588 332 c 0,672,673
 2585 328 2585 328 2584.5 319.5 c 128,-1,674
 2584 311 2584 311 2584 300 c 2,675,-1
 2584 104 l 2,655,656
51 424 m 1,676,-1
 2876 424 l 1,677,-1
 51 424 l 1,676,-1
702 609 m 0,678,679
 700 609 700 609 697 606 c 128,-1,680
 694 603 694 603 691 603 c 0,681,682
 687 601 687 601 681.5 600.5 c 128,-1,683
 676 600 676 600 667 600 c 0,684,685
 662 600 662 600 656 599.5 c 128,-1,686
 650 599 650 599 650 596 c 2,687,-1
 650 489 l 2,688,689
 650 487 650 487 653 486.5 c 128,-1,690
 656 486 656 486 667 486 c 2,691,-1
 679 486 l 1,692,-1
 683 482 l 1,693,-1
 683 478 l 1,694,-1
 634 478 l 2,695,696
 631 478 631 478 624.5 477.5 c 128,-1,697
 618 477 618 477 613 473 c 1,698,-1
 601 473 l 2,699,700
 594 473 594 473 594 478 c 1,701,-1
 627 486 l 2,702,703
 629 486 629 486 629.5 494 c 128,-1,704
 630 502 630 502 630 514 c 2,705,-1
 630 577 l 1,706,-1
 630 596 l 2,707,708
 628 599 628 599 627 599.5 c 128,-1,709
 626 600 626 600 621 600 c 2,710,-1
 613 600 l 1,711,-1
 610 600 l 1,712,-1
 601 600 l 2,713,714
 581 600 581 600 578 596 c 1,715,716
 573 596 573 596 572 587 c 2,717,-1
 572 584 l 2,718,719
 570 584 570 584 567 585 c 128,-1,720
 564 586 564 586 564 593 c 0,721,722
 564 595 564 595 564.5 598.5 c 128,-1,723
 565 602 565 602 569 609 c 0,724,725
 571 611 571 611 577.5 613.5 c 128,-1,726
 584 616 584 616 594 616 c 2,727,-1
 630 616 l 2,728,729
 642 613 642 613 653.5 612.5 c 128,-1,730
 665 612 665 612 670 612 c 0,731,732
 686 612 686 612 692.5 614 c 0,733,-1
 699 616 l 1,734,-1
 699 620 l 1,735,-1
 695 626 l 1,736,-1
 695 629 l 1,737,738
 700 632 700 632 704 632.5 c 0,739,-1
 708 633 l 257,740,741
 709.5 632.5 l 0,742,743
 711 632 711 632 711 629 c 1,744,745
 716 629 716 629 716 626 c 0,746,747
 716 621 716 621 712 617.5 c 128,-1,748
 708 614 708 614 702 609 c 0,678,679
783 489 m 1,749,750
 788 489 788 489 791 492.5 c 128,-1,751
 794 496 794 496 797 498 c 2,752,-1
 800 495 l 2,753,754
 800 490 800 490 797 486 c 0,755,756
 793 486 793 486 790 482 c 1,757,758
 785 482 785 482 782.5 480 c 0,759,-1
 780 478 l 2,760,761
 777 474 777 474 776 473.5 c 128,-1,762
 775 473 775 473 773 473 c 2,763,-1
 768 478 l 1,764,-1
 768 486 l 1,765,-1
 768 495 l 1,766,-1
 768 498 l 2,767,768
 768 510 768 510 767.5 519 c 128,-1,769
 767 528 767 528 764 530 c 0,770,771
 764 540 764 540 759.5 543.5 c 128,-1,772
 755 547 755 547 748 547 c 2,773,-1
 745 546.5 l 0,774,775
 742 546 742 546 740 544 c 0,776,777
 732 544 732 544 732 539 c 2,778,-1
 732 530 l 1,779,-1
 732 511 l 1,780,-1
 732 489 l 1,781,-1
 732 478 l 1,782,783
 728 478 728 478 722.5 475 c 128,-1,784
 717 472 717 472 711 470 c 1,785,-1
 711 482 l 1,786,-1
 711 522 l 1,787,-1
 711 571 l 1,788,-1
 711 580 l 2,789,790
 711 585 711 585 710.5 591 c 128,-1,791
 710 597 710 597 708 600 c 2,792,-1
 704.5 602 l 0,793,794
 701 604 701 604 699 609 c 0,795,796
 696 609 696 609 695.5 610.5 c 0,797,-1
 695 612 l 1,798,-1
 699 612 l 1,799,-1
 702 614 l 0,800,801
 705 616 705 616 711 616 c 0,802,803
 717 618 717 618 720.5 619 c 0,804,-1
 724 620 l 2,805,806
 726 620 726 620 727 619 c 128,-1,807
 728 618 728 618 732 616 c 1,808,809
 732 606 732 606 729.5 598 c 128,-1,810
 727 590 727 590 727 580 c 0,811,812
 727 566 727 566 729.5 558.5 c 0,813,-1
 732 551 l 1,814,815
 738 554 738 554 744 557 c 128,-1,816
 750 560 750 560 757 560 c 0,817,818
 759 560 759 560 764.5 559 c 128,-1,819
 770 558 770 558 776 551 c 0,820,821
 779 548 779 548 781 535 c 128,-1,822
 783 522 783 522 783 498 c 2,823,-1
 783 489 l 1,749,750
865 544 m 2,824,-1
 864.5 541.5 l 0,825,826
 864 539 864 539 862 539 c 0,827,828
 854 533 854 533 833 527 c 1,829,830
 823 516 823 516 822 511 c 0,831,832
 822 507 822 507 822.5 502 c 128,-1,833
 823 497 823 497 825 495 c 0,834,835
 828 489 828 489 834 487.5 c 128,-1,836
 840 486 840 486 846 486 c 0,837,838
 848 486 848 486 851.5 486.5 c 128,-1,839
 855 487 855 487 858 489 c 0,840,841
 861 493 861 493 863 494 c 0,842,-1
 865 495 l 257,843,-1
 867.5 494.5 l 0,844,845
 870 494 870 494 870 489 c 2,846,-1
 866.5 486.5 l 0,847,848
 863 484 863 484 858 478 c 0,849,850
 851 474 851 474 844 472 c 128,-1,851
 837 470 837 470 833 470 c 0,852,853
 828 470 828 470 821 472.5 c 128,-1,854
 814 475 814 475 809 482 c 0,855,856
 802 485 802 485 801 493 c 128,-1,857
 800 501 800 501 800 511 c 2,858,-1
 800 514 l 2,859,860
 800 560 800 560 838 560 c 0,861,862
 844 560 844 560 847 557 c 128,-1,863
 850 554 850 554 854 551 c 0,864,865
 857 551 857 551 859.5 549 c 0,866,-1
 862 547 l 1,867,-1
 865 547 l 2,868,869
 865 550 865 550 867.5 550.5 c 0,870,-1
 870 551 l 2,871,872
 873 551 873 551 873 547 c 2,873,-1
 871 545.5 l 0,874,875
 869 544 869 544 865 544 c 2,824,-1
833 547 m 2,876,877
 831 547 831 547 826.5 543.5 c 128,-1,878
 822 540 822 540 822 527 c 1,879,-1
 826 528.5 l 0,880,881
 830 530 830 530 833 530 c 0,882,883
 840 534 840 534 841 536.5 c 0,884,-1
 842 539 l 1,885,-1
 838 544 l 1,886,-1
 833 547 l 2,876,877
1294 544 m 2,887,-1
 1293.5 541.5 l 0,888,889
 1293 539 1293 539 1288 539 c 0,890,891
 1286 537 1286 537 1278 533 c 128,-1,892
 1270 529 1270 529 1262 527 c 0,893,894
 1249 515 1249 515 1248 511 c 256,895,896
 1248 507 1248 507 1248.5 502 c 128,-1,897
 1249 497 1249 497 1252 495 c 0,898,899
 1255 489 1255 489 1261 487.5 c 128,-1,900
 1267 486 1267 486 1272 486 c 0,901,902
 1281 486 1281 486 1285 489 c 0,903,904
 1287 493 1287 493 1290.5 494 c 0,905,-1
 1294 495 l 257,906,-1
 1295.5 494.5 l 0,907,908
 1297 494 1297 494 1297 489 c 2,909,-1
 1294.5 486.5 l 0,910,911
 1292 484 1292 484 1285 478 c 0,912,913
 1280 474 1280 474 1272 472 c 128,-1,914
 1264 470 1264 470 1262 470 c 0,915,916
 1249 470 1249 470 1236 482 c 0,917,918
 1231 485 1231 485 1230 493 c 128,-1,919
 1229 501 1229 501 1229 511 c 2,920,-1
 1229 514 l 2,921,922
 1229 560 1229 560 1265 560 c 0,923,924
 1270 560 1270 560 1274.5 557 c 128,-1,925
 1279 554 1279 554 1281 551 c 0,926,927
 1284 551 1284 551 1286 549 c 0,928,-1
 1288 547 l 1,929,-1
 1294 547 l 2,930,931
 1294 550 1294 550 1295.5 550.5 c 0,932,-1
 1297 551 l 2,933,934
 1301 551 1301 551 1302 547 c 2,935,-1
 1299 545.5 l 0,936,937
 1296 544 1296 544 1294 544 c 2,887,-1
1262 547 m 2,938,939
 1258 547 1258 547 1253 543.5 c 128,-1,940
 1248 540 1248 540 1248 527 c 1,941,-1
 1252.5 528.5 l 0,942,943
 1257 530 1257 530 1262 530 c 0,944,945
 1267 534 1267 534 1268 536.5 c 0,946,-1
 1269 539 l 1,947,-1
 1265 544 l 1,948,-1
 1262 547 l 2,938,939
1050 498 m 1,949,-1
 1050 454 l 1,950,-1
 1044 454 l 1,951,-1
 1036 454 l 1,952,-1
 1036 486 l 1,953,954
 1004 473 1004 473 988 473 c 2,955,-1
 985 473 l 2,956,957
 973 473 973 473 961.5 479 c 128,-1,958
 950 485 950 485 943 495 c 0,959,960
 938 501 938 501 934 510 c 128,-1,961
 930 519 930 519 927 536 c 2,962,-1
 927 544 l 2,963,964
 927 552 927 552 929.5 561 c 128,-1,965
 932 570 932 570 936 580 c 0,966,967
 940 597 940 597 946 603 c 0,968,969
 951 608 951 608 954 610.5 c 128,-1,970
 957 613 957 613 963 616 c 0,971,972
 973 618 973 618 981.5 619 c 128,-1,973
 990 620 990 620 995 620 c 0,974,975
 999 620 999 620 1007.5 616.5 c 128,-1,976
 1016 613 1016 613 1028 603 c 0,977,978
 1028 600 1028 600 1033 600 c 1,979,980
 1037 616 1037 616 1044 616 c 2,981,-1
 1050 616 l 2,982,983
 1050 613 1050 613 1047 610.5 c 128,-1,984
 1044 608 1044 608 1044 603 c 0,985,986
 1028 574 1028 574 1028 567 c 1,987,-1
 1033 567 l 1,988,-1
 1053 567 l 1,989,-1
 1052.5 558 l 0,990,991
 1052 549 1052 549 1050 530 c 2,992,-1
 1050 498 l 1,949,-1
979 609 m 0,993,994
 974 609 974 609 970.5 604 c 128,-1,995
 967 599 967 599 959 596 c 1,996,997
 956 587 956 587 954 580.5 c 128,-1,998
 952 574 952 574 952 567 c 2,999,-1
 952 563 l 1,1000,-1
 959 563 l 2,1001,1002
 984 563 984 563 999 563.5 c 128,-1,1003
 1014 564 1014 564 1021 567 c 0,1004,1005
 1021 570 1021 570 1015.5 576.5 c 128,-1,1006
 1010 583 1010 583 1005 593 c 1,1007,1008
 998 598 998 598 992 603.5 c 128,-1,1009
 986 609 986 609 979 609 c 0,993,994
1021 547 m 2,1010,1011
 952 547 952 547 952 539 c 0,1012,1013
 954 527 954 527 958.5 518 c 128,-1,1014
 963 509 963 509 972 503 c 0,1015,1016
 982 497 982 497 990.5 493 c 128,-1,1017
 999 489 999 489 1012 489 c 0,1018,1019
 1019 489 1019 489 1024.5 489.5 c 128,-1,1020
 1030 490 1030 490 1036 495 c 0,1021,1022
 1036 497 1036 497 1038.5 503 c 128,-1,1023
 1041 509 1041 509 1041 519 c 2,1024,-1
 1041 547 l 1,1025,-1
 1033 547 l 1,1026,-1
 1021 547 l 2,1010,1011
1109 486 m 0,1027,1028
 1104 483 1104 483 1095 480 c 128,-1,1029
 1086 477 1086 477 1077 473 c 1,1030,-1
 1077 506 l 1,1031,-1
 1077 593 l 2,1032,1033
 1077 595 1077 595 1066 609 c 1,1034,-1
 1066 612 l 1,1035,-1
 1068.5 612.5 l 0,1036,1037
 1071 613 1071 613 1077 616 c 0,1038,1039
 1083 618 1083 618 1087 619 c 128,-1,1040
 1091 620 1091 620 1094 620 c 2,1041,-1
 1099 620 l 1,1042,-1
 1099 587 l 1,1043,-1
 1099 580 l 1,1044,-1
 1099 489 l 2,1045,1046
 1101 493 1101 493 1104 494 c 128,-1,1047
 1107 495 1107 495 1109 495 c 2,1048,-1
 1115 495 l 1,1049,1050
 1115 491 1115 491 1112 489.5 c 128,-1,1051
 1109 488 1109 488 1109 486 c 0,1027,1028
1212 486 m 2,1052,-1
 1209 484 l 0,1053,1054
 1206 482 1206 482 1204 482 c 2,1055,-1
 1204 478 l 1,1056,-1
 1196 478 l 1,1057,-1
 1188 470 l 2,1058,1059
 1185 470 1185 470 1184.5 475 c 128,-1,1060
 1184 480 1184 480 1184 486 c 1,1061,-1
 1181 485 l 0,1062,1063
 1178 484 1178 484 1171 478 c 0,1064,1065
 1168 474 1168 474 1162 472 c 128,-1,1066
 1156 470 1156 470 1151 470 c 0,1067,1068
 1149 470 1149 470 1143.5 472.5 c 128,-1,1069
 1138 475 1138 475 1135 482 c 0,1070,1071
 1128 487 1128 487 1125 496.5 c 128,-1,1072
 1122 506 1122 506 1122 514 c 2,1073,-1
 1122 519 l 2,1074,1075
 1122 560 1122 560 1163 560 c 1,1076,-1
 1184 551 l 1,1077,-1
 1184 563 l 2,1078,1079
 1181 580 1181 580 1180.5 590.5 c 128,-1,1080
 1180 601 1180 601 1180 603 c 2,1081,-1
 1177 606 l 0,1082,1083
 1174 609 1174 609 1171 609 c 0,1084,1085
 1168 611 1168 611 1165.5 613.5 c 0,1086,-1
 1163 616 l 257,1087,-1
 1167.5 618 l 0,1088,1089
 1172 620 1172 620 1175 620 c 0,1090,1091
 1182 620 1182 620 1187 623 c 128,-1,1092
 1192 626 1192 626 1196 626 c 0,1093,1094
 1198 626 1198 626 1201 622 c 128,-1,1095
 1204 618 1204 618 1204 616 c 2,1096,-1
 1204 612 l 1,1097,-1
 1204 495 l 1,1098,-1
 1204 489 l 2,1099,1100
 1206 493 1206 493 1209 494 c 0,1101,-1
 1212 495 l 2,1102,1103
 1215 495 1215 495 1215 489 c 0,1104,1105
 1215 486 1215 486 1212 486 c 2,1052,-1
1184 530 m 2,1106,1107
 1184 534 1184 534 1181.5 537 c 128,-1,1108
 1179 540 1179 540 1175 544 c 0,1109,1110
 1170 546 1170 546 1168 548.5 c 128,-1,1111
 1166 551 1166 551 1163 551 c 0,1112,1113
 1157 551 1157 551 1153.5 548.5 c 128,-1,1114
 1150 546 1150 546 1148 544 c 0,1115,1116
 1143 540 1143 540 1142.5 534 c 128,-1,1117
 1142 528 1142 528 1142 522 c 256,1118,1119
 1142 516 1142 516 1142.5 510 c 128,-1,1120
 1143 504 1143 504 1148 498 c 0,1121,1122
 1150 492 1150 492 1154.5 489 c 128,-1,1123
 1159 486 1159 486 1163 486 c 0,1124,1125
 1166 486 1166 486 1169 487 c 128,-1,1126
 1172 488 1172 488 1175 495 c 1,1127,1128
 1184 500 1184 500 1184 506 c 2,1129,-1
 1184 530 l 2,1106,1107
1386 539 m 2,1130,1131
 1384 539 1384 539 1383 539.5 c 128,-1,1132
 1382 540 1382 540 1378 544 c 1,1133,-1
 1370 544 l 1,1134,-1
 1368 543.5 l 0,1135,1136
 1366 543 1366 543 1362 539 c 0,1137,1138
 1360 537 1360 537 1357 536.5 c 0,1139,-1
 1354 536 l 1,1140,-1
 1354 482 l 1,1141,-1
 1352 480 l 0,1142,1143
 1350 478 1350 478 1347 478 c 0,1144,1145
 1344 474 1344 474 1340 473.5 c 128,-1,1146
 1336 473 1336 473 1334 473 c 2,1147,-1
 1332 477 l 0,1148,1149
 1330 481 1330 481 1330 489 c 2,1150,-1
 1330 511 l 1,1151,-1
 1330 527 l 1,1152,-1
 1330 536 l 2,1153,1154
 1330 542 1330 542 1327.5 543.5 c 128,-1,1155
 1325 545 1325 545 1321 547 c 0,1156,1157
 1319 547 1319 547 1318.5 549 c 0,1158,-1
 1318 551 l 1,1159,-1
 1321 555 l 1,1160,-1
 1330 555 l 2,1161,1162
 1333 555 1333 555 1335.5 555.5 c 128,-1,1163
 1338 556 1338 556 1342 560 c 1,1164,-1
 1351 560 l 2,1165,1166
 1353 560 1353 560 1353.5 557.5 c 0,1167,-1
 1354 555 l 1,1168,-1
 1354 551 l 1,1169,-1
 1354 547 l 1,1170,-1
 1357.5 547.5 l 0,1171,1172
 1361 548 1361 548 1367 551 c 0,1173,1174
 1373 558 1373 558 1375.5 559 c 0,1175,-1
 1378 560 l 1,1176,-1
 1386 560 l 1,1177,1178
 1390 556 1390 556 1392.5 555.5 c 0,1179,-1
 1395 555 l 2,1180,1181
 1395 552 1395 552 1393.5 549.5 c 0,1182,-1
 1392 547 l 2,1183,1184
 1388 545 1388 545 1387.5 543.5 c 0,1185,-1
 1386 539 l 2,1130,1131
1493 466 m 0,1186,1187
 1484 466 1484 466 1473 466.5 c 128,-1,1188
 1462 467 1462 467 1448 470 c 1,1189,-1
 1444 473 l 2,1190,1191
 1442 473 1442 473 1441 470 c 128,-1,1192
 1440 467 1440 467 1435 457 c 2,1193,-1
 1434.5 455 l 0,1194,1195
 1434 453 1434 453 1432 450 c 0,1196,1197
 1432 448 1432 448 1431.5 444 c 128,-1,1198
 1431 440 1431 440 1427 440 c 2,1199,-1
 1427 446 l 2,1200,1201
 1424 446 1424 446 1424 450 c 0,1202,1203
 1429 457 1429 457 1435 482 c 0,1204,1205
 1435 493 1435 493 1438.5 498 c 128,-1,1206
 1442 503 1442 503 1444 503 c 2,1207,-1
 1449 499.5 l 0,1208,1209
 1454 496 1454 496 1464 489 c 0,1210,1211
 1476 484 1476 484 1486 481 c 128,-1,1212
 1496 478 1496 478 1505 478 c 2,1213,-1
 1513 478 l 2,1214,1215
 1519 481 1519 481 1522.5 485 c 128,-1,1216
 1526 489 1526 489 1530 498 c 0,1217,1218
 1530 504 1530 504 1531.5 509.5 c 128,-1,1219
 1533 515 1533 515 1533 519 c 0,1220,1221
 1533 525 1533 525 1531.5 528.5 c 128,-1,1222
 1530 532 1530 532 1530 539 c 1,1223,1224
 1526 543 1526 543 1523 543.5 c 128,-1,1225
 1520 544 1520 544 1513 544 c 0,1226,1227
 1510 544 1510 544 1503 543.5 c 128,-1,1228
 1496 543 1496 543 1484 539 c 0,1229,1230
 1472 533 1472 533 1464 531.5 c 128,-1,1231
 1456 530 1456 530 1451 530 c 256,1232,1233
 1446 530 1446 530 1443 533.5 c 128,-1,1234
 1440 537 1440 537 1435 539 c 0,1235,1236
 1433 543 1433 543 1432.5 548 c 128,-1,1237
 1432 553 1432 553 1432 560 c 0,1238,1239
 1432 572 1432 572 1434.5 583.5 c 128,-1,1240
 1437 595 1437 595 1444 603 c 0,1241,1242
 1449 613 1449 613 1458.5 619.5 c 128,-1,1243
 1468 626 1468 626 1481 626 c 0,1244,1245
 1487 626 1487 626 1491.5 621.5 c 128,-1,1246
 1496 617 1496 617 1505 612 c 0,1247,1248
 1513 605 1513 605 1517.5 602.5 c 0,1249,-1
 1522 600 l 1,1250,-1
 1525 609 l 2,1251,1252
 1529 611 1529 611 1531 613.5 c 0,1253,-1
 1533 616 l 2,1254,1255
 1538 616 1538 616 1538 612 c 1,1256,-1
 1541 612 l 2,1257,1258
 1539 610 1539 610 1535.5 605.5 c 128,-1,1259
 1532 601 1532 601 1530 596 c 0,1260,1261
 1524 587 1524 587 1520.5 580.5 c 128,-1,1262
 1517 574 1517 574 1517 567 c 1,1263,-1
 1522 567 l 2,1264,1265
 1538 567 1538 567 1546 555 c 0,1266,1267
 1548 552 1548 552 1551 546.5 c 128,-1,1268
 1554 541 1554 541 1554 530 c 0,1269,1270
 1554 518 1554 518 1550 506.5 c 128,-1,1271
 1546 495 1546 495 1538 486 c 0,1272,1273
 1526 466 1526 466 1493 466 c 0,1186,1187
1467 609 m 0,1274,1275
 1465 609 1465 609 1462 605.5 c 128,-1,1276
 1459 602 1459 602 1457 600 c 0,1277,1278
 1452 595 1452 595 1451.5 588.5 c 128,-1,1279
 1451 582 1451 582 1451 577 c 0,1280,1281
 1451 570 1451 570 1451.5 566 c 128,-1,1282
 1452 562 1452 562 1457 560 c 1,1283,1284
 1457 555 1457 555 1464 555 c 256,1285,1286
 1471 555 1471 555 1475.5 555.5 c 128,-1,1287
 1480 556 1480 556 1489 560 c 0,1288,1289
 1497 562 1497 562 1503 564.5 c 0,1290,-1
 1509 567 l 1,1291,1292
 1479 609 1479 609 1467 609 c 0,1274,1275
1604 473 m 0,1293,1294
 1594 473 1594 473 1585.5 476.5 c 128,-1,1295
 1577 480 1577 480 1574 486 c 1,1296,1297
 1568 488 1568 488 1567 494.5 c 128,-1,1298
 1566 501 1566 501 1566 511 c 0,1299,1300
 1566 519 1566 519 1567 528.5 c 128,-1,1301
 1568 538 1568 538 1574 544 c 0,1302,1303
 1580 552 1580 552 1587 556 c 128,-1,1304
 1594 560 1594 560 1607 560 c 0,1305,1306
 1610 560 1610 560 1613 559.5 c 128,-1,1307
 1616 559 1616 559 1623 555 c 0,1308,1309
 1628 552 1628 552 1632 550.5 c 128,-1,1310
 1636 549 1636 549 1636 544 c 1,1311,-1
 1632 541 l 0,1312,1313
 1628 538 1628 538 1623 536 c 2,1314,-1
 1620 536 l 1,1315,1316
 1608 551 1608 551 1597 551 c 0,1317,1318
 1591 551 1591 551 1587 539 c 1,1319,-1
 1587 522 l 2,1320,1321
 1587 514 1587 514 1587.5 508 c 128,-1,1322
 1588 502 1588 502 1590 498 c 0,1323,1324
 1600 487 1600 487 1614 486 c 0,1325,1326
 1619 486 1619 486 1621.5 487 c 128,-1,1327
 1624 488 1624 488 1627 495 c 0,1328,1329
 1629 497 1629 497 1630 497.5 c 128,-1,1330
 1631 498 1631 498 1636 498 c 2,1331,-1
 1639 495 l 1,1332,-1
 1636.5 491 l 0,1333,1334
 1634 487 1634 487 1627 482 c 0,1335,1336
 1622 479 1622 479 1615.5 476 c 128,-1,1337
 1609 473 1609 473 1604 473 c 0,1293,1294
1704 539 m 257,1338,-1
 1702 539.5 l 0,1339,1340
 1700 540 1700 540 1696 544 c 1,1341,-1
 1688 544 l 1,1342,-1
 1679 539 l 2,1343,1344
 1677 537 1677 537 1674.5 536.5 c 0,1345,-1
 1672 536 l 1,1346,-1
 1672 482 l 1,1347,-1
 1671.5 480 l 0,1348,1349
 1671 478 1671 478 1668 478 c 0,1350,1351
 1662 474 1662 474 1658.5 473.5 c 128,-1,1352
 1655 473 1655 473 1652 473 c 2,1353,-1
 1652 489 l 1,1354,-1
 1652 511 l 1,1355,-1
 1652 527 l 1,1356,-1
 1652 536 l 2,1357,1358
 1652 542 1652 542 1649 543.5 c 128,-1,1359
 1646 545 1646 545 1644 547 c 0,1360,1361
 1641 547 1641 547 1638.5 549 c 0,1362,-1
 1636 551 l 257,1363,-1
 1637.5 551.5 l 0,1364,1365
 1639 552 1639 552 1639 555 c 2,1366,-1
 1647 555 l 2,1367,1368
 1651 555 1651 555 1654.5 555.5 c 128,-1,1369
 1658 556 1658 556 1663 560 c 1,1370,-1
 1672 560 l 1,1371,-1
 1672 555 l 1,1372,-1
 1672 551 l 1,1373,-1
 1672 547 l 1,1374,-1
 1676 547 l 1,1375,-1
 1678 547.5 l 0,1376,1377
 1680 548 1680 548 1684 551 c 0,1378,1379
 1690 558 1690 558 1693.5 559 c 128,-1,1380
 1697 560 1697 560 1701 560 c 2,1381,-1
 1709 560 l 1,1382,-1
 1712 555 l 1,1383,1384
 1712 547 1712 547 1709 547 c 1,1385,1386
 1709 545 1709 545 1707.5 543.5 c 0,1387,-1
 1704 539 l 257,1338,-1
1786 503 m 0,1388,1389
 1786 497 1786 497 1780.5 492 c 128,-1,1390
 1775 487 1775 487 1769 482 c 0,1391,1392
 1762 479 1762 479 1756.5 476 c 128,-1,1393
 1751 473 1751 473 1745 473 c 0,1394,1395
 1733 473 1733 473 1725.5 479 c 128,-1,1396
 1718 485 1718 485 1712 495 c 0,1397,1398
 1709 498 1709 498 1709 511 c 2,1399,-1
 1709 527 l 2,1400,1401
 1709 535 1709 535 1714 540.5 c 128,-1,1402
 1719 546 1719 546 1724 551 c 0,1403,1404
 1727 554 1727 554 1735.5 555 c 128,-1,1405
 1744 556 1744 556 1753 560 c 0,1406,1407
 1753 562 1753 562 1755 562.5 c 0,1408,-1
 1757 563 l 2,1409,1410
 1772 563 1772 563 1777 551 c 1,1411,1412
 1790 541 1790 541 1790 522 c 0,1413,1414
 1790 516 1790 516 1789.5 512.5 c 128,-1,1415
 1789 509 1789 509 1786 503 c 0,1388,1389
1745 551 m 256,1416,1417
 1741 551 1741 551 1741 547 c 1,1418,1419
 1737 547 1737 547 1729 539 c 0,1420,1421
 1729 537 1729 537 1726.5 532.5 c 128,-1,1422
 1724 528 1724 528 1724 522 c 256,1423,1424
 1724 516 1724 516 1727 512.5 c 128,-1,1425
 1730 509 1730 509 1734 503 c 0,1426,1427
 1738 492 1738 492 1757 486 c 0,1428,1429
 1764 486 1764 486 1769 495 c 1,1430,-1
 1769 519 l 2,1431,1432
 1769 533 1769 533 1760 539 c 0,1433,1434
 1755 545 1755 545 1752 548 c 128,-1,1435
 1749 551 1749 551 1745 551 c 256,1416,1417
1847 486 m 1,1436,1437
 1838 483 1838 483 1830.5 480 c 128,-1,1438
 1823 477 1823 477 1815 473 c 1,1439,-1
 1815 506 l 1,1440,-1
 1815 593 l 2,1441,1442
 1815 595 1815 595 1811 598.5 c 128,-1,1443
 1807 602 1807 602 1802 609 c 1,1444,-1
 1802 612 l 1,1445,-1
 1805 612.5 l 0,1446,1447
 1808 613 1808 613 1815 616 c 0,1448,1449
 1821 618 1821 618 1824 619 c 128,-1,1450
 1827 620 1827 620 1831 620 c 2,1451,-1
 1835 620 l 1,1452,-1
 1835 587 l 1,1453,-1
 1835 580 l 1,1454,-1
 1835 489 l 2,1455,1456
 1838 493 1838 493 1840.5 494 c 128,-1,1457
 1843 495 1843 495 1847 495 c 1,1458,-1
 1847 486 l 1,1436,1437
1900 486 m 0,1459,1460
 1894 483 1894 483 1887 480 c 128,-1,1461
 1880 477 1880 477 1872 473 c 0,1462,1463
 1868 473 1868 473 1867.5 482.5 c 128,-1,1464
 1867 492 1867 492 1867 506 c 2,1465,-1
 1867 593 l 2,1466,1467
 1867 595 1867 595 1859 609 c 1,1468,-1
 1857 609.5 l 0,1469,1470
 1855 610 1855 610 1855 612 c 1,1471,1472
 1857 612 1857 612 1861.5 612.5 c 128,-1,1473
 1866 613 1866 613 1872 616 c 0,1474,1475
 1878 618 1878 618 1881 619 c 128,-1,1476
 1884 620 1884 620 1887 620 c 1,1477,1478
 1887 618 1887 618 1889 608.5 c 128,-1,1479
 1891 599 1891 599 1891 587 c 2,1480,-1
 1891 580 l 1,1481,-1
 1887 489 l 1,1482,1483
 1894 493 1894 493 1897 494 c 0,1484,-1
 1900 495 l 1,1485,-1
 1904 495 l 1,1486,1487
 1904 489 1904 489 1900 486 c 0,1459,1460
1986 495 m 1,1488,1489
 1981 488 1981 488 1969 482 c 1,1490,1491
 1964 475 1964 475 1957.5 474 c 128,-1,1492
 1951 473 1951 473 1946 473 c 2,1493,-1
 1932 473 l 1,1494,1495
 1920 480 1920 480 1920 489 c 0,1496,1497
 1920 495 1920 495 1932 503 c 1,1498,1499
 1943 483 1943 483 1956 482 c 0,1500,1501
 1961 482 1961 482 1963 484 c 0,1502,-1
 1965 486 l 2,1503,1504
 1968 488 1968 488 1968.5 492 c 128,-1,1505
 1969 496 1969 496 1969 498 c 0,1506,1507
 1969 502 1969 502 1968.5 504.5 c 128,-1,1508
 1968 507 1968 507 1965 511 c 0,1509,1510
 1963 511 1963 511 1959.5 512.5 c 0,1511,-1
 1956 514 l 1,1512,-1
 1946 514 l 1,1513,-1
 1932 514 l 2,1514,1515
 1930 514 1930 514 1925 517.5 c 128,-1,1516
 1920 521 1920 521 1920 527 c 1,1517,1518
 1916 527 1916 527 1916 536 c 0,1519,1520
 1916 550 1916 550 1932 555 c 1,1521,1522
 1937 561 1937 561 1946.5 562 c 128,-1,1523
 1956 563 1956 563 1965 563 c 2,1524,-1
 1972 563 l 2,1525,1526
 1976 561 1976 561 1976.5 560 c 128,-1,1527
 1977 559 1977 559 1977 555 c 0,1528,1529
 1977 552 1977 552 1976.5 549 c 128,-1,1530
 1976 546 1976 546 1972 544 c 2,1531,-1
 1969 544 l 2,1532,1533
 1962 544 1962 544 1962 551 c 1,1534,1535
 1957 551 1957 551 1956 553 c 128,-1,1536
 1955 555 1955 555 1953 555 c 2,1537,-1
 1949 555 l 2,1538,1539
 1937 555 1937 555 1936 547 c 2,1540,-1
 1936 544 l 2,1541,1542
 1936 536 1936 536 1949 536 c 0,1543,1544
 1952 536 1952 536 1954.5 533 c 128,-1,1545
 1957 530 1957 530 1962 530 c 2,1546,-1
 1972 530 l 2,1547,1548
 1976 528 1976 528 1978.5 527 c 128,-1,1549
 1981 526 1981 526 1981 522 c 0,1550,1551
 1984 520 1984 520 1985 516.5 c 128,-1,1552
 1986 513 1986 513 1986 511 c 2,1553,-1
 1986 495 l 1,1488,1489
2140 473 m 0,1554,1555
 2131 477 2131 477 2127.5 477.5 c 128,-1,1556
 2124 478 2124 478 2119 478 c 2,1557,-1
 2108 478 l 1,1558,-1
 2054 473 l 1,1559,-1
 2054 478 l 1,1560,1561
 2060 481 2060 481 2063.5 481.5 c 128,-1,1562
 2067 482 2067 482 2071 482 c 0,1563,1564
 2083 482 2083 482 2086 486 c 2,1565,-1
 2086 503 l 1,1566,-1
 2086 580 l 1,1567,-1
 2086 600 l 2,1568,1569
 2086 602 2086 602 2084.5 603 c 128,-1,1570
 2083 604 2083 604 2083 609 c 1,1571,-1
 2062 609 l 2,1572,1573
 2056 609 2056 609 2051 610.5 c 0,1574,-1
 2046 612 l 2,1575,1576
 2046 616 2046 616 2050 616 c 1,1577,1578
 2050 619 2050 619 2054 620 c 256,1579,1580
 2058 620 2058 620 2066 618 c 128,-1,1581
 2074 616 2074 616 2083 616 c 2,1582,-1
 2095 616 l 2,1583,1584
 2105 616 2105 616 2109 616.5 c 128,-1,1585
 2113 617 2113 617 2116 620 c 2,1586,-1
 2116 626 l 2,1587,1588
 2116 629 2116 629 2119 629 c 2,1589,-1
 2122 627 l 0,1590,1591
 2125 625 2125 625 2125 620 c 2,1592,-1
 2125 616 l 2,1593,1594
 2128 616 2128 616 2132 620 c 2,1595,-1
 2140 620 l 1,1596,-1
 2140 616 l 2,1597,1598
 2140 613 2140 613 2137 612.5 c 128,-1,1599
 2134 612 2134 612 2132 612 c 2,1600,-1
 2128 612 l 2,1601,1602
 2126 612 2126 612 2125.5 610.5 c 0,1603,-1
 2125 609 l 1,1604,-1
 2125 489 l 2,1605,1606
 2125 487 2125 487 2126 486 c 128,-1,1607
 2127 485 2127 485 2132 482 c 0,1608,1609
 2144 482 2144 482 2144 478 c 2,1610,-1
 2143.5 475.5 l 0,1611,1612
 2143 473 2143 473 2140 473 c 0,1554,1555
2116 609 m 2,1613,1614
 2113 609 2113 609 2111.5 606 c 128,-1,1615
 2110 603 2110 603 2108 603 c 2,1616,-1
 2108 486 l 1,1617,-1
 2116 486 l 1,1618,-1
 2116 609 l 2,1613,1614
2222 473 m 0,1619,1620
 2212 477 2212 477 2208.5 477.5 c 128,-1,1621
 2205 478 2205 478 2201 478 c 2,1622,-1
 2189 478 l 1,1623,-1
 2135 473 l 1,1624,-1
 2135 478 l 1,1625,1626
 2142 481 2142 481 2145.5 481.5 c 128,-1,1627
 2149 482 2149 482 2151 482 c 0,1628,1629
 2164 482 2164 482 2168 486 c 2,1630,-1
 2168 503 l 1,1631,-1
 2168 580 l 1,1632,-1
 2168 600 l 2,1633,1634
 2168 602 2168 602 2166.5 603 c 128,-1,1635
 2165 604 2165 604 2165 609 c 1,1636,-1
 2144 609 l 2,1637,1638
 2135 609 2135 609 2131.5 610.5 c 0,1639,-1
 2128 612 l 2,1640,1641
 2128 616 2128 616 2132 616 c 1,1642,-1
 2132 620 l 1,1643,1644
 2138 620 2138 620 2145 618 c 128,-1,1645
 2152 616 2152 616 2165 616 c 2,1646,-1
 2176 616 l 2,1647,1648
 2186 616 2186 616 2189.5 616.5 c 128,-1,1649
 2193 617 2193 617 2198 620 c 1,1650,-1
 2198 626 l 2,1651,1652
 2198 629 2198 629 2201 629 c 2,1653,-1
 2203.5 627 l 0,1654,1655
 2206 625 2206 625 2206 620 c 2,1656,-1
 2206 616 l 1,1657,-1
 2208 616.5 l 0,1658,1659
 2210 617 2210 617 2213 620 c 2,1660,-1
 2222 620 l 1,1661,-1
 2222 616 l 2,1662,1663
 2222 613 2222 613 2219 612.5 c 128,-1,1664
 2216 612 2216 612 2213 612 c 2,1665,-1
 2209 612 l 2,1666,1667
 2207 612 2207 612 2204 610.5 c 0,1668,-1
 2201 609 l 1,1669,-1
 2201 489 l 2,1670,1671
 2201 487 2201 487 2204.5 486 c 128,-1,1672
 2208 485 2208 485 2213 482 c 0,1673,1674
 2225 482 2225 482 2225 478 c 2,1675,-1
 2224.5 475.5 l 0,1676,1677
 2224 473 2224 473 2222 473 c 0,1619,1620
2198 609 m 1,1678,1679
 2194 609 2194 609 2191.5 606 c 0,1680,-1
 2189 603 l 1,1681,-1
 2189 486 l 1,1682,-1
 2198 486 l 1,1683,-1
 2198 609 l 1,1678,1679
2303 473 m 0,1684,1685
 2294 477 2294 477 2290.5 477.5 c 128,-1,1686
 2287 478 2287 478 2281 478 c 2,1687,-1
 2271 478 l 1,1688,-1
 2217 473 l 1,1689,-1
 2217 478 l 1,1690,1691
 2223 481 2223 481 2226.5 481.5 c 128,-1,1692
 2230 482 2230 482 2233 482 c 0,1693,1694
 2245 482 2245 482 2246 486 c 0,1695,1696
 2249 489 2249 489 2249 503 c 2,1697,-1
 2249 580 l 1,1698,-1
 2249 600 l 2,1699,1700
 2247 602 2247 602 2246.5 603 c 128,-1,1701
 2246 604 2246 604 2246 609 c 1,1702,-1
 2225 609 l 2,1703,1704
 2216 609 2216 609 2212.5 610.5 c 0,1705,-1
 2209 612 l 2,1706,1707
 2209 616 2209 616 2213 616 c 1,1708,-1
 2213 620 l 1,1709,1710
 2220 620 2220 620 2226.5 618 c 128,-1,1711
 2233 616 2233 616 2246 616 c 2,1712,-1
 2258 616 l 2,1713,1714
 2268 616 2268 616 2271 616.5 c 128,-1,1715
 2274 617 2274 617 2274 620 c 2,1716,-1
 2278 626 l 2,1717,1718
 2278 629 2278 629 2281 629 c 2,1719,-1
 2284.5 627 l 0,1720,1721
 2288 625 2288 625 2288 620 c 2,1722,-1
 2288 616 l 1,1723,-1
 2290 616.5 l 0,1724,1725
 2292 617 2292 617 2295 620 c 2,1726,-1
 2303 620 l 1,1727,-1
 2303 616 l 2,1728,1729
 2303 613 2303 613 2300 612.5 c 128,-1,1730
 2297 612 2297 612 2295 612 c 2,1731,-1
 2291 612 l 2,1732,1733
 2289 612 2289 612 2285 610.5 c 0,1734,-1
 2281 609 l 1,1735,-1
 2281 489 l 2,1736,1737
 2281 487 2281 487 2285.5 486 c 128,-1,1738
 2290 485 2290 485 2295 482 c 0,1739,1740
 2307 482 2307 482 2307 478 c 2,1741,-1
 2306.5 475.5 l 0,1742,1743
 2306 473 2306 473 2303 473 c 0,1684,1685
2274 609 m 1,1744,-1
 2271 603 l 1,1745,-1
 2271 486 l 1,1746,-1
 2274 486 l 1,1747,-1
 2274 609 l 1,1744,-1
51 437 m 1,1748,-1
 51 417 l 1,1749,-1
 2876 417 l 1,1750,-1
 2876 437 l 1,1751,-1
 51 437 l 1,1748,-1
EndSplineSet
Validated: 524421
EndChar

StartChar: two
Encoding: 50 50 68
Width: 2521
Flags: W
LayerCount: 2
Fore
SplineSet
550 607 m 0,0,1
 546 603 546 603 542 603 c 0,2,3
 537 601 537 601 530.5 600.5 c 128,-1,4
 524 600 524 600 518 600 c 0,5,6
 510 600 510 600 506.5 597.5 c 0,7,-1
 503 595 l 1,8,-1
 503 495 l 2,9,10
 503 488 503 488 515 487 c 2,11,-1
 526 487 l 2,12,13
 530 487 530 487 530 483 c 1,14,-1
 487 483 l 2,15,16
 482 483 482 483 476 482.5 c 128,-1,17
 470 482 470 482 464 479 c 2,18,-1
 454 479 l 2,19,20
 449 479 449 479 449 483 c 2,21,-1
 476 492 l 2,22,23
 480 492 480 492 480 518 c 2,24,-1
 480 577 l 1,25,-1
 480 595 l 1,26,27
 477.5 597.5 l 0,28,29
 475 600 475 600 472 600 c 2,30,-1
 464 600 l 1,31,-1
 461 600 l 1,32,-1
 454 600 l 2,33,34
 434 600 434 600 433 595 c 1,35,36
 426 595 426 595 426 588 c 2,37,-1
 426 580 l 1,38,39
 422 580 422 580 422 592 c 0,40,41
 422 594 422 594 422.5 597.5 c 128,-1,42
 423 601 423 601 426 603 c 0,43,44
 426 609 426 609 433 612 c 128,-1,45
 440 615 440 615 449 615 c 2,46,-1
 480 615 l 2,47,48
 494 612 494 612 503.5 611.5 c 128,-1,49
 513 611 513 611 518 611 c 0,50,51
 533 611 533 611 539.5 613 c 0,52,-1
 546 615 l 1,53,-1
 546 618 l 1,54,-1
 546 623 l 1,55,-1
 554 631 l 2,56,57
 556 631 556 631 557 630.5 c 128,-1,58
 558 630 558 630 562 627 c 1,59,-1
 562 623 l 2,60,61
 562 620 562 620 558.5 616.5 c 128,-1,62
 555 613 555 613 550 607 c 0,0,1
632 495 m 1,63,-1
 634.5 496 l 0,64,65
 637 497 637 497 642 503 c 1,66,-1
 642 495 l 1,67,-1
 639 492 l 1,68,-1
 636.5 489.5 l 0,69,70
 634 487 634 487 632 487 c 0,71,72
 628 484 628 484 627 483.5 c 128,-1,73
 626 483 626 483 624 483 c 1,74,75
 624 479 624 479 615 479 c 0,76,77
 612 482 612 482 611.5 483.5 c 128,-1,78
 611 485 611 485 611 492 c 2,79,-1
 611 499 l 1,80,-1
 611 503 l 1,81,-1
 611 534 l 2,82,83
 609 539 609 539 605.5 544 c 128,-1,84
 602 549 602 549 596 549 c 0,85,86
 594 549 594 549 590.5 548.5 c 128,-1,87
 587 548 587 548 585 546 c 0,88,89
 582 546 582 546 581 543.5 c 128,-1,90
 580 541 580 541 578 541 c 2,91,-1
 578 534 l 1,92,-1
 578 515 l 1,93,-1
 578 495 l 1,94,-1
 578 483 l 1,95,96
 574 483 574 483 570 480.5 c 128,-1,97
 566 478 566 478 557 476 c 1,98,-1
 557 487 l 1,99,-1
 557 525 l 1,100,-1
 557 572 l 1,101,-1
 557 577 l 1,102,-1
 557 600 l 1,103,-1
 554.5 602 l 0,104,105
 552 604 552 604 546 607 c 1,106,-1
 546 611 l 2,107,108
 549 611 549 611 552.5 613 c 128,-1,109
 556 615 556 615 562 615 c 0,110,111
 564 615 564 615 567 616.5 c 128,-1,112
 570 618 570 618 572 618 c 2,113,-1
 578 615 l 1,114,-1
 578 580 l 1,115,-1
 578 549 l 1,116,-1
 578 553 l 1,117,118
 583 556 583 556 589 558.5 c 128,-1,119
 595 561 595 561 600 561 c 0,120,121
 606 561 606 561 609.5 560 c 128,-1,122
 613 559 613 559 620 553 c 0,123,124
 625 550 625 550 628.5 538 c 128,-1,125
 632 526 632 526 632 503 c 2,126,-1
 632 495 l 1,63,-1
709 541 m 1,127,-1
 701 541 l 2,128,129
 697 539 697 539 691.5 535 c 128,-1,130
 686 531 686 531 678 525 c 0,131,132
 669 523 669 523 666 520 c 128,-1,133
 663 517 663 517 663 515 c 0,134,135
 663 506 663 506 670 499 c 0,136,137
 673 494 673 494 676.5 493 c 128,-1,138
 680 492 680 492 685 492 c 0,139,140
 693 492 693 492 696 495 c 0,141,142
 702 498 702 498 704 498.5 c 128,-1,143
 706 499 706 499 709 499 c 2,144,-1
 709 495 l 1,145,-1
 706 492 l 0,146,147
 703 489 703 489 701 483 c 1,148,149
 692 480 692 480 685.5 478 c 128,-1,150
 679 476 679 476 674 476 c 0,151,152
 668 476 668 476 662 478.5 c 128,-1,153
 656 481 656 481 654 487 c 1,154,155
 642 494 642 494 642 515 c 2,156,-1
 642 518 l 2,157,158
 642 538 642 538 653 549.5 c 128,-1,159
 664 561 664 561 681 561 c 0,160,161
 684 561 684 561 689 558.5 c 128,-1,162
 694 556 694 556 696 553 c 0,163,164
 700 550 700 550 701 549.5 c 128,-1,165
 702 549 702 549 705 549 c 2,166,-1
 709 553 l 2,167,168
 711 553 711 553 711.5 551 c 0,169,-1
 712 549 l 2,170,171
 712 547 712 547 711.5 546 c 128,-1,172
 711 545 711 545 709 541 c 1,127,-1
674 549 m 2,173,174
 671 549 671 549 668 544 c 128,-1,175
 665 539 665 539 663 530 c 1,176,177
 665 530 665 530 668 532 c 128,-1,178
 671 534 671 534 674 534 c 0,179,180
 679 537 679 537 682 537.5 c 0,181,-1
 685 538 l 2,182,183
 685 540 685 540 683 541 c 128,-1,184
 681 542 681 542 681 546 c 0,185,186
 679 548 679 548 677.5 548 c 0,187,-1
 674 549 l 2,173,174
1115 541 m 1,188,-1
 1107 541 l 2,189,190
 1105 539 1105 539 1099 535 c 128,-1,191
 1093 531 1093 531 1083 525 c 0,192,193
 1068 521 1068 521 1068 515 c 0,194,195
 1068 511 1068 511 1070.5 506.5 c 128,-1,196
 1073 502 1073 502 1076 499 c 0,197,198
 1079 494 1079 494 1082 493 c 128,-1,199
 1085 492 1085 492 1092 492 c 0,200,201
 1095 492 1095 492 1097.5 492.5 c 128,-1,202
 1100 493 1100 493 1104 495 c 0,203,204
 1109 498 1109 498 1110.5 498.5 c 128,-1,205
 1112 499 1112 499 1115 499 c 2,206,-1
 1115 495 l 1,207,-1
 1112.5 492 l 0,208,209
 1110 489 1110 489 1107 483 c 1,210,211
 1099 480 1099 480 1092.5 478 c 128,-1,212
 1086 476 1086 476 1080 476 c 0,213,214
 1066 476 1066 476 1061 487 c 1,215,216
 1055 490 1055 490 1052.5 498 c 128,-1,217
 1050 506 1050 506 1050 515 c 2,218,-1
 1050 518 l 2,219,220
 1050 538 1050 538 1060.5 549.5 c 128,-1,221
 1071 561 1071 561 1089 561 c 0,222,223
 1091 561 1091 561 1095.5 558.5 c 128,-1,224
 1100 556 1100 556 1104 553 c 0,225,226
 1107 549 1107 549 1111 549 c 2,227,-1
 1115 553 l 2,228,229
 1118 553 1118 553 1118.5 551 c 0,230,-1
 1119 549 l 2,231,232
 1119 547 1119 547 1118.5 546 c 128,-1,233
 1118 545 1118 545 1115 541 c 1,188,-1
1080 549 m 2,234,235
 1077 549 1077 549 1074 544 c 128,-1,236
 1071 539 1071 539 1068 530 c 1,237,238
 1071 530 1071 530 1074 532 c 128,-1,239
 1077 534 1077 534 1080 534 c 0,240,241
 1086 537 1086 537 1089 537.5 c 0,242,-1
 1092 538 l 2,243,244
 1092 540 1092 540 1090.5 541 c 128,-1,245
 1089 542 1089 542 1089 546 c 0,246,247
 1085 548 1085 548 1083.5 548 c 0,248,-1
 1080 549 l 2,234,235
879 499 m 1,249,-1
 879 461 l 1,250,-1
 874 461 l 1,251,-1
 871 456 l 1,252,-1
 871 492 l 1,253,254
 840 480 840 480 825 479 c 2,255,-1
 820 479 l 2,256,257
 806 479 806 479 796 484.5 c 128,-1,258
 786 490 786 490 778 499 c 0,259,260
 775 505 775 505 772.5 514 c 128,-1,261
 770 523 770 523 766 538 c 0,262,263
 763 538 763 538 763 546 c 0,264,265
 763 561 763 561 771 580 c 0,266,267
 775 597 775 597 781 603 c 0,268,269
 785 606 785 606 790.5 607.5 c 128,-1,270
 796 609 796 609 802 615 c 1,271,272
 810 617 810 617 816 617.5 c 128,-1,273
 822 618 822 618 828 618 c 0,274,275
 831 618 831 618 839.5 615 c 128,-1,276
 848 612 848 612 859 603 c 0,277,278
 859 601 859 601 861 600.5 c 0,279,-1
 863 600 l 1,280,281
 869 605 869 605 871.5 610 c 0,282,-1
 874 615 l 1,283,-1
 879 615 l 2,284,285
 879 612 879 612 878.5 609 c 128,-1,286
 878 606 878 606 874 603 c 0,287,288
 869 589 869 589 864 580 c 128,-1,289
 859 571 859 571 859 568 c 2,290,-1
 867 568 l 1,291,-1
 883 568 l 1,292,-1
 883 534 l 2,293,294
 880 517 880 517 879.5 512 c 0,295,-1
 879 499 l 1,249,-1
813 603 m 0,296,297
 810 603 810 603 805.5 600.5 c 128,-1,298
 801 598 801 598 798 592 c 0,299,300
 787 582 787 582 786 568 c 0,301,302
 786 564 786 564 790 564 c 2,303,-1
 794 564 l 1,304,-1
 856 564 l 1,305,306
 852 570 852 570 847 576.5 c 128,-1,307
 842 583 842 583 836 592 c 0,308,309
 825 603 825 603 813 603 c 0,296,297
851 549 m 2,310,311
 786 549 786 549 786 541 c 0,312,313
 788 530 788 530 794 521.5 c 128,-1,314
 800 513 800 513 805 507 c 0,315,316
 823 495 823 495 844 495 c 0,317,318
 849 495 849 495 857 495.5 c 128,-1,319
 865 496 865 496 871 499 c 1,320,-1
 871 522 l 1,321,-1
 871 549 l 1,322,-1
 867 549 l 1,323,-1
 851 549 l 2,310,311
937 492 m 2,324,325
 931 489 931 489 922.5 485.5 c 128,-1,326
 914 482 914 482 905 479 c 1,327,-1
 905 510 l 1,328,-1
 905 592 l 2,329,330
 905 598 905 598 898 603 c 2,331,-1
 895 607 l 2,332,333
 897 610 897 610 900.5 611 c 128,-1,334
 904 612 904 612 910 615 c 0,335,336
 912 617 912 617 917 617.5 c 0,337,-1
 922 618 l 1,338,-1
 926 618 l 1,339,-1
 926 588 l 1,340,-1
 926 577 l 1,341,-1
 926 495 l 1,342,343
 931 498 931 498 934 498.5 c 0,344,-1
 937 499 l 2,345,346
 941 499 941 499 941 495 c 2,347,-1
 937 492 l 2,324,325
1034 492 m 1,348,349
 1034 489 1034 489 1031.5 487.5 c 128,-1,350
 1029 486 1029 486 1029 483 c 2,351,-1
 1026 483 l 1,352,-1
 1022 479 l 1,353,354
 1016 479 1016 479 1015 477.5 c 0,355,-1
 1014 476 l 2,356,357
 1012 476 1012 476 1009.5 480.5 c 128,-1,358
 1007 485 1007 485 1007 492 c 1,359,-1
 998 483 l 2,360,361
 986 476 986 476 980 476 c 0,362,363
 967 476 967 476 959 487 c 0,364,365
 954 492 954 492 951.5 501 c 128,-1,366
 949 510 949 510 949 518 c 2,367,-1
 949 522 l 2,368,369
 949 542 949 542 959.5 551.5 c 128,-1,370
 970 561 970 561 987 561 c 1,371,-1
 1007 553 l 1,372,-1
 1007 561 l 2,373,374
 1007 600 1007 600 1002 603 c 2,375,-1
 999.5 603.5 l 0,376,377
 997 604 997 604 995 607 c 0,378,379
 991 611 991 611 991 615 c 2,380,-1
 994 615.5 l 0,381,382
 997 616 997 616 1002 618 c 2,383,-1
 1022 618 l 2,384,385
 1026 618 1026 618 1026 615 c 2,386,-1
 1026 611 l 1,387,-1
 1026 607 l 1,388,-1
 1026 499 l 1,389,-1
 1026 495 l 1,390,391
 1032 495 1032 495 1033 497 c 0,392,-1
 1034 499 l 2,393,394
 1036 499 1036 499 1038.5 497 c 0,395,-1
 1041 495 l 2,396,397
 1041 492 1041 492 1034 492 c 1,348,349
1007 534 m 2,398,399
 1007 537 1007 537 1004 539.5 c 128,-1,400
 1001 542 1001 542 998 546 c 2,401,-1
 991 553 l 1,402,403
 985 553 985 553 979.5 550.5 c 128,-1,404
 974 548 974 548 972 546 c 0,405,406
 969 540 969 540 968.5 535.5 c 128,-1,407
 968 531 968 531 968 525 c 0,408,409
 968 517 968 517 969 511.5 c 128,-1,410
 970 506 970 506 975 503 c 0,411,412
 979 497 979 497 982 494.5 c 128,-1,413
 985 492 985 492 991 492 c 2,414,-1
 993.5 492.5 l 0,415,416
 996 493 996 493 998 495 c 0,417,418
 1001 498 1001 498 1004 502.5 c 0,419,-1
 1007 507 l 1,420,-1
 1007 534 l 2,398,399
1200 541 m 1,421,-1
 1192 541 l 1,422,423
 1192 546 1192 546 1185 546 c 2,424,-1
 1182.5 545.5 l 0,425,426
 1180 545 1180 545 1177 541 c 0,427,428
 1175 539 1175 539 1171.5 538.5 c 0,429,-1
 1168 538 l 1,430,-1
 1168 487 l 1,431,-1
 1167.5 485 l 0,432,433
 1167 483 1167 483 1165 483 c 0,434,435
 1160 480 1160 480 1156 479.5 c 128,-1,436
 1152 479 1152 479 1150 479 c 2,437,-1
 1150 495 l 1,438,-1
 1150 515 l 1,439,-1
 1150 530 l 1,440,-1
 1150 538 l 2,441,442
 1150 544 1150 544 1138 549 c 2,443,-1
 1136.5 549.5 l 0,444,445
 1135 550 1135 550 1135 553 c 2,446,-1
 1138 553 l 2,447,448
 1143 553 1143 553 1146 557 c 1,449,-1
 1161 557 l 1,450,-1
 1165 561 l 2,451,452
 1167 561 1167 561 1167.5 559 c 0,453,-1
 1168 557 l 1,454,-1
 1168 553 l 1,455,-1
 1168 549 l 1,456,-1
 1174 546 l 1,457,-1
 1181 553 l 2,458,459
 1187 556 1187 556 1190 558.5 c 128,-1,460
 1193 561 1193 561 1196 561 c 2,461,-1
 1204 561 l 1,462,463
 1207 557 1207 557 1207 553 c 2,464,-1
 1206.5 551 l 0,465,466
 1206 549 1206 549 1204 549 c 1,467,468
 1204 543 1204 543 1203 542.5 c 0,469,-1
 1200 541 l 1,421,-1
1305 471 m 2,470,-1
 1300 471 l 2,471,472
 1294 471 1294 471 1283.5 471.5 c 128,-1,473
 1273 472 1273 472 1262 476 c 0,474,475
 1260 478 1260 478 1257 478.5 c 0,476,-1
 1254 479 l 2,477,478
 1251 479 1251 479 1250 474 c 128,-1,479
 1249 469 1249 469 1246 464 c 2,480,-1
 1246 456 l 2,481,482
 1244 454 1244 454 1243.5 451.5 c 0,483,-1
 1243 449 l 1,484,485
 1238 449 1238 449 1238 453 c 1,486,-1
 1235 453 l 1,487,488
 1237 459 1237 459 1240.5 467 c 128,-1,489
 1244 475 1244 475 1246 487 c 0,490,491
 1249 498 1249 498 1250 502.5 c 128,-1,492
 1251 507 1251 507 1254 507 c 256,493,494
 1257 507 1257 507 1261 502.5 c 128,-1,495
 1265 498 1265 498 1274 495 c 0,496,497
 1288 490 1288 490 1297.5 484.5 c 128,-1,498
 1307 479 1307 479 1313 479 c 0,499,500
 1315 479 1315 479 1317.5 481 c 0,501,-1
 1320 483 l 2,502,503
 1326 486 1326 486 1329 490.5 c 128,-1,504
 1332 495 1332 495 1336 503 c 0,505,506
 1338 508 1338 508 1338.5 512.5 c 128,-1,507
 1339 517 1339 517 1339 522 c 0,508,509
 1339 533 1339 533 1336 538 c 0,510,511
 1332 540 1332 540 1329.5 543 c 128,-1,512
 1327 546 1327 546 1324 546 c 256,513,514
 1321 546 1321 546 1313 543 c 128,-1,515
 1305 540 1305 540 1292 538 c 0,516,517
 1281 535 1281 535 1275 534.5 c 128,-1,518
 1269 534 1269 534 1266 534 c 0,519,520
 1261 534 1261 534 1255 535 c 128,-1,521
 1249 536 1249 536 1246 541 c 0,522,523
 1246 545 1246 545 1244.5 550 c 128,-1,524
 1243 555 1243 555 1243 561 c 0,525,526
 1243 572 1243 572 1245.5 583.5 c 128,-1,527
 1248 595 1248 595 1254 603 c 0,528,529
 1262 612 1262 612 1271 615 c 128,-1,530
 1280 618 1280 618 1289 618 c 0,531,532
 1300 618 1300 618 1316 607 c 0,533,534
 1322 604 1322 604 1325 599.5 c 0,535,-1
 1328 595 l 257,536,-1
 1330 598.5 l 0,537,538
 1332 602 1332 602 1336 607 c 0,539,540
 1338 610 1338 610 1339 612.5 c 128,-1,541
 1340 615 1340 615 1343 615 c 2,542,-1
 1347 611 l 1,543,-1
 1347 607 l 1,544,-1
 1344 603.5 l 0,545,546
 1341 600 1341 600 1336 592 c 0,547,548
 1328 581 1328 581 1328 568 c 1,549,-1
 1331 568 l 2,550,551
 1337 565 1337 565 1343 562.5 c 128,-1,552
 1349 560 1349 560 1355 557 c 0,553,554
 1358 554 1358 554 1358.5 548.5 c 128,-1,555
 1359 543 1359 543 1359 534 c 0,556,557
 1359 508 1359 508 1347 492 c 0,558,559
 1339 483 1339 483 1327.5 477 c 128,-1,560
 1316 471 1316 471 1305 471 c 2,470,-1
1282 607 m 0,561,562
 1272 607 1272 607 1266 595 c 0,563,564
 1263 593 1263 593 1262.5 588 c 128,-1,565
 1262 583 1262 583 1262 577 c 0,566,567
 1262 565 1262 565 1266 561 c 0,568,569
 1269 558 1269 558 1272 557.5 c 128,-1,570
 1275 557 1275 557 1277 557 c 0,571,572
 1281 557 1281 557 1286.5 557.5 c 128,-1,573
 1292 558 1292 558 1300 561 c 0,574,575
 1306 563 1306 563 1311.5 564 c 128,-1,576
 1317 565 1317 565 1320 568 c 1,577,578
 1291 607 1291 607 1282 607 c 0,561,562
1406 479 m 0,579,580
 1397 479 1397 479 1390 481.5 c 128,-1,581
 1383 484 1383 484 1378 487 c 0,582,583
 1375 492 1375 492 1372.5 499 c 128,-1,584
 1370 506 1370 506 1370 515 c 0,585,586
 1370 523 1370 523 1372.5 531.5 c 128,-1,587
 1375 540 1375 540 1378 546 c 0,588,589
 1383 554 1383 554 1392 557.5 c 128,-1,590
 1401 561 1401 561 1409 561 c 0,591,592
 1412 561 1412 561 1417 560.5 c 128,-1,593
 1422 560 1422 560 1424 557 c 0,594,595
 1436 550 1436 550 1437 546 c 2,596,-1
 1436 543 l 0,597,598
 1435 540 1435 540 1428 538 c 2,599,-1
 1424 538 l 1,600,601
 1416 546 1416 546 1411.5 549.5 c 128,-1,602
 1407 553 1407 553 1401 553 c 0,603,604
 1399 553 1399 553 1398 550 c 128,-1,605
 1397 547 1397 547 1394 541 c 0,606,607
 1391 539 1391 539 1390.5 533.5 c 128,-1,608
 1390 528 1390 528 1390 522 c 0,609,610
 1390 517 1390 517 1391 511 c 128,-1,611
 1392 505 1392 505 1398 499 c 0,612,613
 1403 492 1403 492 1416 492 c 0,614,615
 1424 492 1424 492 1428 495 c 0,616,617
 1430 501 1430 501 1433.5 502 c 0,618,-1
 1437 503 l 1,619,-1
 1440 503 l 1,620,-1
 1440 499 l 1,621,-1
 1437.5 496 l 0,622,623
 1435 493 1435 493 1428 487 c 0,624,625
 1423 484 1423 484 1417 481.5 c 128,-1,626
 1411 479 1411 479 1406 479 c 0,579,580
1506 541 m 1,627,-1
 1498 541 l 1,628,629
 1495 545 1495 545 1493 545.5 c 0,630,-1
 1491 546 l 257,631,-1
 1488 545.5 l 0,632,633
 1485 545 1485 545 1483 541 c 0,634,635
 1480 539 1480 539 1478 538.5 c 0,636,-1
 1476 538 l 1,637,-1
 1476 487 l 1,638,-1
 1472.5 485 l 0,639,640
 1469 483 1469 483 1467 483 c 0,641,642
 1463 479 1463 479 1455 479 c 0,643,644
 1452 479 1452 479 1452 495 c 2,645,-1
 1452 515 l 1,646,-1
 1452 530 l 1,647,-1
 1452 538 l 2,648,649
 1452 543 1452 543 1444 549 c 0,650,651
 1440 549 1440 549 1440 553 c 1,652,-1
 1444 553 l 1,653,-1
 1446.5 553.5 l 0,654,655
 1449 554 1449 554 1452 557 c 2,656,-1
 1463 557 l 2,657,658
 1466 560 1466 560 1467 560.5 c 128,-1,659
 1468 561 1468 561 1470 561 c 2,660,-1
 1476 557 l 1,661,-1
 1476 553 l 1,662,-1
 1476 549 l 1,663,-1
 1476 546 l 1,664,-1
 1478.5 548 l 0,665,666
 1481 550 1481 550 1486 553 c 0,667,668
 1490 556 1490 556 1492.5 558.5 c 128,-1,669
 1495 561 1495 561 1498 561 c 2,670,-1
 1506 561 l 2,671,672
 1508 558 1508 558 1510.5 557 c 128,-1,673
 1513 556 1513 556 1513 553 c 1,674,675
 1510 553 1510 553 1509.5 551 c 0,676,-1
 1509 549 l 1,677,-1
 1506 541 l 1,627,-1
1583 507 m 0,678,679
 1580 501 1580 501 1576.5 497 c 128,-1,680
 1573 493 1573 493 1564 487 c 0,681,682
 1558 481 1558 481 1552.5 480 c 128,-1,683
 1547 479 1547 479 1545 479 c 0,684,685
 1534 479 1534 479 1525 483 c 128,-1,686
 1516 487 1516 487 1509 499 c 1,687,-1
 1509 515 l 1,688,-1
 1509 530 l 2,689,690
 1509 542 1509 542 1525 553 c 0,691,692
 1529 553 1529 553 1534.5 555.5 c 128,-1,693
 1540 558 1540 558 1548 561 c 2,694,-1
 1552 561 l 2,695,696
 1558 561 1558 561 1564 560 c 128,-1,697
 1570 559 1570 559 1576 553 c 0,698,699
 1578 548 1578 548 1582.5 539.5 c 128,-1,700
 1587 531 1587 531 1587 525 c 0,701,702
 1587 520 1587 520 1585 514.5 c 128,-1,703
 1583 509 1583 509 1583 507 c 0,678,679
1540 549 m 2,704,-1
 1537 549 l 2,705,706
 1530 549 1530 549 1530 541 c 1,707,708
 1526 539 1526 539 1525.5 535 c 128,-1,709
 1525 531 1525 531 1525 525 c 0,710,711
 1525 520 1525 520 1525.5 516.5 c 128,-1,712
 1526 513 1526 513 1530 507 c 0,713,714
 1532 501 1532 501 1539.5 497.5 c 128,-1,715
 1547 494 1547 494 1552 492 c 0,716,717
 1563 492 1563 492 1564 499 c 2,718,-1
 1564 522 l 2,719,720
 1564 528 1564 528 1563 533.5 c 128,-1,721
 1562 539 1562 539 1555 541 c 1,722,723
 1553 547 1553 547 1548.5 548 c 128,-1,724
 1544 549 1544 549 1540 549 c 2,704,-1
1637 492 m 2,725,726
 1632 489 1632 489 1623.5 485.5 c 128,-1,727
 1615 482 1615 482 1607 479 c 1,728,-1
 1607 510 l 1,729,-1
 1607 592 l 2,730,731
 1607 594 1607 594 1604.5 597.5 c 128,-1,732
 1602 601 1602 601 1599 603 c 2,733,-1
 1594 607 l 1,734,735
 1598 610 1598 610 1601.5 611 c 128,-1,736
 1605 612 1605 612 1610 615 c 0,737,738
 1614 617 1614 617 1618 617.5 c 0,739,-1
 1622 618 l 1,740,-1
 1625 618 l 1,741,-1
 1625 588 l 1,742,-1
 1625 577 l 1,743,-1
 1625 495 l 1,744,745
 1631 498 1631 498 1634 498.5 c 0,746,-1
 1637 499 l 2,747,748
 1641 499 1641 499 1641 495 c 2,749,-1
 1637 492 l 2,725,726
1692 492 m 0,750,751
 1687 489 1687 489 1678 485.5 c 128,-1,752
 1669 482 1669 482 1661 479 c 1,753,-1
 1661 510 l 1,754,-1
 1661 592 l 2,755,756
 1661 598 1661 598 1649 603 c 1,757,-1
 1649 607 l 2,758,759
 1649 610 1649 610 1652 611 c 128,-1,760
 1655 612 1655 612 1661 615 c 0,761,762
 1667 617 1667 617 1670 617.5 c 128,-1,763
 1673 618 1673 618 1676 618 c 2,764,-1
 1679 618 l 1,765,-1
 1679 588 l 1,766,-1
 1679 577 l 1,767,-1
 1679 495 l 1,768,769
 1683 498 1683 498 1686 498.5 c 128,-1,770
 1689 499 1689 499 1692 499 c 2,771,-1
 1694 498.5 l 0,772,773
 1696 498 1696 498 1696 495 c 2,774,-1
 1694 494.5 l 0,775,776
 1692 494 1692 494 1692 492 c 0,750,751
1769 499 m 0,777,778
 1766 496 1766 496 1762.5 491 c 128,-1,779
 1759 486 1759 486 1754 483 c 0,780,781
 1748 480 1748 480 1742.5 479.5 c 128,-1,782
 1737 479 1737 479 1731 479 c 2,783,-1
 1723 479 l 2,784,785
 1714 479 1714 479 1710.5 484 c 128,-1,786
 1707 489 1707 489 1707 495 c 128,-1,787
 1707 501 1707 501 1718 507 c 1,788,789
 1724 498 1724 498 1730.5 492.5 c 128,-1,790
 1737 487 1737 487 1746 487 c 2,791,792
 1748 487.5 l 0,793,794
 1750 488 1750 488 1754 492 c 1,795,-1
 1754 499 l 2,796,797
 1754 505 1754 505 1753.5 506.5 c 128,-1,798
 1753 508 1753 508 1749 510 c 1,799,800
 1749 518 1749 518 1742 518 c 2,801,-1
 1734 518 l 1,802,-1
 1723 518 l 2,803,804
 1717 518 1717 518 1713.5 520.5 c 128,-1,805
 1710 523 1710 523 1707 525 c 2,806,-1
 1707 538 l 2,807,808
 1707 551 1707 551 1718 557 c 0,809,810
 1732 564 1732 564 1749 564 c 2,811,-1
 1761 564 l 2,812,813
 1761 562 1761 562 1763 559.5 c 0,814,-1
 1765 557 l 2,815,816
 1765 552 1765 552 1757 546 c 1,817,-1
 1754 546 l 2,818,819
 1749 546 1749 546 1746 549 c 0,820,821
 1746 552 1746 552 1744 554.5 c 0,822,-1
 1742 557 l 1,823,-1
 1739 557 l 2,824,825
 1733 557 1733 557 1728 554.5 c 128,-1,826
 1723 552 1723 552 1723 549 c 2,827,-1
 1723 546 l 2,828,829
 1723 540 1723 540 1734 534 c 1,830,-1
 1749 534 l 1,831,-1
 1761 534 l 2,832,833
 1764 532 1764 532 1765 530.5 c 128,-1,834
 1766 529 1766 529 1769 525 c 0,835,836
 1769 523 1769 523 1771 520 c 128,-1,837
 1773 517 1773 517 1773 515 c 0,838,839
 1773 511 1773 511 1772 506.5 c 128,-1,840
 1771 502 1771 502 1769 499 c 0,777,778
1920 479 m 1,841,842
 1912 482 1912 482 1906 482.5 c 128,-1,843
 1900 483 1900 483 1896 483 c 2,844,-1
 1885 483 l 1,845,-1
 1835 479 l 1,846,-1
 1835 483 l 1,847,848
 1840 483 1840 483 1845.5 483.5 c 128,-1,849
 1851 484 1851 484 1854 487 c 0,850,851
 1856 487 1856 487 1860 487.5 c 128,-1,852
 1864 488 1864 488 1866 492 c 0,853,854
 1870 495 1870 495 1870 507 c 2,855,-1
 1870 580 l 1,856,-1
 1866 600 l 2,857,858
 1866 603 1866 603 1863 607 c 1,859,-1
 1846 607 l 2,860,861
 1838 607 1838 607 1834.5 609 c 0,862,-1
 1831 611 l 1,863,-1
 1831 615 l 2,864,865
 1831 617 1831 617 1833 617.5 c 0,866,-1
 1835 618 l 2,867,868
 1838 618 1838 618 1846 616.5 c 128,-1,869
 1854 615 1854 615 1866 615 c 2,870,-1
 1878 615 l 2,871,872
 1883 615 1883 615 1888 615.5 c 128,-1,873
 1893 616 1893 616 1893 618 c 2,874,-1
 1893 623 l 1,875,-1
 1896 627 l 2,876,877
 1900 627 1900 627 1901 618 c 2,878,-1
 1901.5 616.5 l 0,879,880
 1902 615 1902 615 1905 615 c 2,881,-1
 1907.5 615.5 l 0,882,883
 1910 616 1910 616 1912 618 c 2,884,-1
 1917 618 l 1,885,-1
 1917 615 l 2,886,887
 1917 612 1917 612 1916 609.5 c 128,-1,888
 1915 607 1915 607 1909 607 c 2,889,-1
 1901 607 l 1,890,-1
 1901 492 l 1,891,-1
 1904 489.5 l 0,892,893
 1907 487 1907 487 1912 487 c 0,894,895
 1916 487 1916 487 1920 486.5 c 128,-1,896
 1924 486 1924 486 1924 483 c 256,897,898
 1924 480 1924 480 1923 480 c 0,899,-1
 1920 479 l 1,841,842
1893 607 m 1,900,901
 1889 603 1889 603 1885 603 c 1,902,-1
 1885 492 l 1,903,-1
 1893 492 l 1,904,-1
 1893 607 l 1,900,901
1997 479 m 1,905,906
 1989 482 1989 482 1983 482.5 c 128,-1,907
 1977 483 1977 483 1974 483 c 2,908,-1
 1963 483 l 1,909,-1
 1912 479 l 1,910,-1
 1912 483 l 1,911,912
 1918 483 1918 483 1923 483.5 c 128,-1,913
 1928 484 1928 484 1932 487 c 0,914,915
 1939 487 1939 487 1943 492 c 0,916,917
 1943 494 1943 494 1945.5 497.5 c 128,-1,918
 1948 501 1948 501 1948 507 c 2,919,-1
 1948 580 l 1,920,-1
 1943 600 l 2,921,922
 1943 603 1943 603 1939 607 c 1,923,-1
 1924 607 l 2,924,925
 1915 607 1915 607 1912 609 c 0,926,-1
 1909 611 l 1,927,-1
 1909 615 l 2,928,929
 1909 617 1909 617 1910.5 617.5 c 0,930,-1
 1912 618 l 2,931,932
 1916 618 1916 618 1923.5 616.5 c 128,-1,933
 1931 615 1931 615 1943 615 c 2,934,-1
 1955 615 l 2,935,936
 1961 615 1961 615 1965.5 615.5 c 128,-1,937
 1970 616 1970 616 1970 618 c 2,938,-1
 1970 623 l 1,939,-1
 1970.5 625 l 0,940,941
 1971 627 1971 627 1974 627 c 0,942,943
 1978 627 1978 627 1978 618 c 2,944,-1
 1978.5 616.5 l 0,945,946
 1979 615 1979 615 1981 615 c 2,947,-1
 1984.5 615.5 l 0,948,949
 1988 616 1988 616 1990 618 c 2,950,-1
 1994 618 l 1,951,-1
 1994 615 l 2,952,953
 1994 612 1994 612 1993 609.5 c 128,-1,954
 1992 607 1992 607 1987 607 c 2,955,-1
 1981 607 l 1,956,-1
 1978 607 l 1,957,-1
 1978 492 l 1,958,-1
 1980.5 489.5 l 0,959,960
 1983 487 1983 487 1990 487 c 128,-1,961
 1997 487 1997 487 1997 483 c 2,962,-1
 1997 479 l 1,905,906
1970 607 m 1,963,964
 1966 603 1966 603 1963 603 c 2,965,-1
 1963 492 l 1,966,-1
 1970 492 l 1,967,-1
 1970 607 l 1,963,964
2075 479 m 1,968,969
 2067 482 2067 482 2061 482.5 c 128,-1,970
 2055 483 2055 483 2051 483 c 2,971,-1
 2040 483 l 1,972,-1
 1990 479 l 1,973,-1
 1990 483 l 1,974,975
 1995 483 1995 483 2000.5 483.5 c 128,-1,976
 2006 484 2006 484 2009 487 c 0,977,978
 2011 487 2011 487 2014.5 487.5 c 128,-1,979
 2018 488 2018 488 2020 492 c 0,980,981
 2020 494 2020 494 2022 497.5 c 128,-1,982
 2024 501 2024 501 2024 507 c 2,983,-1
 2024 580 l 1,984,-1
 2020 600 l 2,985,986
 2020 602 2020 602 2018.5 603 c 128,-1,987
 2017 604 2017 604 2017 607 c 2,988,-1
 1997 607 l 2,989,990
 1992 607 1992 607 1986.5 609 c 0,991,-1
 1981 611 l 2,992,993
 1981 614 1981 614 1984 614.5 c 0,994,-1
 1987 615 l 2,995,996
 1987 617 1987 617 1988.5 617.5 c 0,997,-1
 1990 618 l 2,998,999
 1993 618 1993 618 2001 616.5 c 128,-1,1000
 2009 615 2009 615 2020 615 c 2,1001,-1
 2033 615 l 2,1002,1003
 2038 615 2038 615 2043 615.5 c 128,-1,1004
 2048 616 2048 616 2048 618 c 2,1005,-1
 2048 623 l 1,1006,1007
 2048.5 625 l 0,1008,1009
 2049 627 2049 627 2051 627 c 0,1010,1011
 2056 627 2056 627 2056 618 c 2,1012,-1
 2056.5 616.5 l 0,1013,1014
 2057 615 2057 615 2059 615 c 2,1015,-1
 2061.5 615.5 l 0,1016,1017
 2064 616 2064 616 2066 618 c 2,1018,-1
 2072 618 l 1,1019,-1
 2072 615 l 2,1020,1021
 2072 612 2072 612 2071 609.5 c 128,-1,1022
 2070 607 2070 607 2063 607 c 2,1023,-1
 2059 607 l 1,1024,-1
 2056 607 l 1,1025,-1
 2056 492 l 1,1026,-1
 2058 489.5 l 0,1027,1028
 2060 487 2060 487 2063 487 c 0,1029,1030
 2074 487 2074 487 2075 483 c 2,1031,-1
 2075 479 l 1,968,969
2048 607 m 1,1032,1033
 2044 603 2044 603 2040 603 c 1,1034,-1
 2040 492 l 1,1035,-1
 2048 492 l 1,1036,-1
 2048 607 l 1,1032,1033
51 445 m 1,1037,-1
 51 425 l 1,1038,-1
 2470 425 l 1,1039,-1
 2470 445 l 1,1040,-1
 51 445 l 1,1037,-1
515 298 m 2,1041,1042
 515 313 515 313 514.5 322.5 c 128,-1,1043
 514 332 514 332 512.5 337 c 128,-1,1044
 511 342 511 342 507 344 c 128,-1,1045
 503 346 503 346 496 347 c 2,1046,-1
 484 347 l 1,1047,1048
 477 356 477 356 484 364 c 1,1049,1050
 510 364 510 364 537 366 c 128,-1,1051
 564 368 564 368 596 368 c 0,1052,1053
 623 368 623 368 646.5 362.5 c 128,-1,1054
 670 357 670 357 681 352 c 0,1055,1056
 701 341 701 341 710.5 326 c 128,-1,1057
 720 311 720 311 720 294 c 0,1058,1059
 720 264 720 264 704 251 c 128,-1,1060
 688 238 688 238 674 231 c 0,1061,1062
 670 228 670 228 670 224 c 0,1063,1064
 694 183 694 183 709.5 158.5 c 128,-1,1065
 725 134 725 134 739 123 c 0,1066,1067
 756 112 756 112 771 112 c 1,1068,1069
 775 106 775 106 771 100 c 0,1070,1071
 767 100 767 100 756.5 98 c 128,-1,1072
 746 96 746 96 735 96 c 0,1073,1074
 705 96 705 96 685 107 c 128,-1,1075
 665 118 665 118 650 138 c 0,1076,1077
 639 155 639 155 631.5 170.5 c 128,-1,1078
 624 186 624 186 615 201 c 0,1079,1080
 612 210 612 210 606.5 213 c 128,-1,1081
 601 216 601 216 593 216 c 0,1082,1083
 582 216 582 216 580 215 c 128,-1,1084
 578 214 578 214 578 208 c 2,1085,-1
 578 159 l 2,1086,1087
 578 145 578 145 579 136.5 c 128,-1,1088
 580 128 580 128 582 124 c 128,-1,1089
 584 120 584 120 588.5 118.5 c 128,-1,1090
 593 117 593 117 600 116 c 2,1091,-1
 611 112 l 1,1092,-1
 611 100 l 1,1093,-1
 546 100 l 1,1094,-1
 480 100 l 2,1095,1096
 477 100 477 100 477 105 c 0,1097,1098
 477 111 477 111 480 112 c 2,1099,-1
 492 116 l 2,1100,1101
 499 117 499 117 503.5 118.5 c 128,-1,1102
 508 120 508 120 510.5 124 c 128,-1,1103
 513 128 513 128 514 136 c 128,-1,1104
 515 144 515 144 515 159 c 2,1105,-1
 515 298 l 2,1041,1042
578 247 m 2,1106,1107
 578 239 578 239 581 235 c 128,-1,1108
 584 231 584 231 604 231 c 0,1109,1110
 615 231 615 231 622.5 234.5 c 128,-1,1111
 630 238 630 238 639 244 c 0,1112,1113
 641 250 641 250 647.5 259.5 c 128,-1,1114
 654 269 654 269 654 290 c 0,1115,1116
 654 317 654 317 638.5 332 c 128,-1,1117
 623 347 623 347 596 347 c 0,1118,1119
 582 347 582 347 580 345 c 128,-1,1120
 578 343 578 343 578 329 c 2,1121,-1
 578 247 l 2,1106,1107
883 159 m 2,1122,1123
 883 145 883 145 884 136.5 c 128,-1,1124
 885 128 885 128 887.5 124 c 128,-1,1125
 890 120 890 120 894 118.5 c 128,-1,1126
 898 117 898 117 905 116 c 2,1127,-1
 918 112 l 2,1128,1129
 921 109 921 109 921 104 c 256,1130,1131
 921 100 921 100 918 100 c 2,1132,-1
 851 100 l 1,1133,-1
 781 100 l 2,1134,1135
 779 100 779 100 779 104 c 256,1136,1137
 779 108 779 108 781 112 c 2,1138,-1
 798 116 l 2,1139,1140
 805 117 805 117 809.5 118.5 c 128,-1,1141
 814 120 814 120 816 124 c 128,-1,1142
 818 128 818 128 819 136 c 128,-1,1143
 820 144 820 144 820 159 c 2,1144,-1
 820 305 l 2,1145,1146
 820 334 820 334 816 340.5 c 128,-1,1147
 812 347 812 347 798 347 c 1,1148,-1
 781 352 l 2,1149,1150
 779 354 779 354 779 359 c 256,1151,1152
 779 364 779 364 781 368 c 0,1153,1154
 801 365 801 365 817.5 364.5 c 128,-1,1155
 834 364 834 364 851 364 c 0,1156,1157
 866 364 866 364 883 364.5 c 128,-1,1158
 900 365 900 365 918 368 c 0,1159,1160
 921 365 921 365 921 359 c 256,1161,1162
 921 354 921 354 918 352 c 2,1163,-1
 905 347 l 1,1164,1165
 891 347 891 347 887 341 c 128,-1,1166
 883 335 883 335 883 305 c 2,1167,-1
 883 159 l 2,1122,1123
975 298 m 2,1168,1169
 975 313 975 313 974.5 322.5 c 128,-1,1170
 974 332 974 332 972.5 337 c 128,-1,1171
 971 342 971 342 967.5 344 c 128,-1,1172
 964 346 964 346 956 347 c 2,1173,-1
 944 347 l 2,1174,1175
 942 347 942 347 942 355 c 256,1176,1177
 942 363 942 363 944 364 c 0,1178,1179
 971 364 971 364 996.5 366 c 128,-1,1180
 1022 368 1022 368 1057 368 c 0,1181,1182
 1089 368 1089 368 1110.5 364 c 128,-1,1183
 1132 360 1132 360 1146 352 c 0,1184,1185
 1160 343 1160 343 1168.5 330.5 c 128,-1,1186
 1177 318 1177 318 1177 301 c 0,1187,1188
 1177 289 1177 289 1171.5 279.5 c 128,-1,1189
 1166 270 1166 270 1159 264 c 128,-1,1190
 1152 258 1152 258 1144.5 255 c 128,-1,1191
 1137 252 1137 252 1130 252 c 0,1192,1193
 1127 252 1127 252 1124.5 249 c 128,-1,1194
 1122 246 1122 246 1122 244 c 2,1195,-1
 1130 244 l 1,1196,1197
 1157 238 1157 238 1176.5 222 c 128,-1,1198
 1196 206 1196 206 1196 174 c 0,1199,1200
 1196 147 1196 147 1181 130.5 c 128,-1,1201
 1166 114 1166 114 1143 108 c 0,1202,1203
 1123 103 1123 103 1099.5 101.5 c 128,-1,1204
 1076 100 1076 100 1053 100 c 2,1205,-1
 1011 100 l 1,1206,-1
 941 100 l 2,1207,1208
 938 100 938 100 938 105 c 0,1209,1210
 938 111 938 111 941 112 c 2,1211,-1
 952 116 l 2,1212,1213
 959 117 959 117 964 118.5 c 128,-1,1214
 969 120 969 120 971 124 c 128,-1,1215
 973 128 973 128 974 136 c 128,-1,1216
 975 144 975 144 975 159 c 2,1217,-1
 975 298 l 2,1168,1169
1037 259 m 2,1218,1219
 1037 254 1037 254 1040 253 c 128,-1,1220
 1043 252 1043 252 1061 252 c 0,1221,1222
 1090 252 1090 252 1102.5 264 c 128,-1,1223
 1115 276 1115 276 1115 294 c 0,1224,1225
 1115 321 1115 321 1097.5 334 c 128,-1,1226
 1080 347 1080 347 1057 347 c 0,1227,1228
 1043 347 1043 347 1040 343 c 128,-1,1229
 1037 339 1037 339 1037 325 c 2,1230,-1
 1037 259 l 2,1218,1219
1037 166 m 2,1231,1232
 1037 142 1037 142 1043.5 129 c 128,-1,1233
 1050 116 1050 116 1076 116 c 256,1234,1235
 1103 116 1103 116 1114.5 131.5 c 128,-1,1236
 1126 147 1126 147 1126 174 c 0,1237,1238
 1126 200 1126 200 1110 215.5 c 128,-1,1239
 1094 231 1094 231 1061 231 c 0,1240,1241
 1044 231 1044 231 1040.5 229 c 128,-1,1242
 1037 227 1037 227 1037 216 c 2,1243,-1
 1037 166 l 2,1231,1232
1238 305 m 2,1244,1245
 1238 319 1238 319 1237 328 c 128,-1,1246
 1236 337 1236 337 1234 341.5 c 128,-1,1247
 1232 346 1232 346 1227.5 348 c 128,-1,1248
 1223 350 1223 350 1215 352 c 2,1249,-1
 1204 352 l 2,1250,1251
 1201 354 1201 354 1201 359 c 256,1252,1253
 1201 364 1201 364 1204 368 c 0,1254,1255
 1221 365 1221 365 1238 364.5 c 128,-1,1256
 1255 364 1255 364 1270 364 c 0,1257,1258
 1287 364 1287 364 1303 364.5 c 128,-1,1259
 1319 365 1319 365 1336 368 c 0,1260,1261
 1338 365 1338 365 1338 359 c 256,1262,1263
 1338 354 1338 354 1336 352 c 2,1264,-1
 1324 352 l 2,1265,1266
 1317 350 1317 350 1312.5 348 c 128,-1,1267
 1308 346 1308 346 1305.5 341.5 c 128,-1,1268
 1303 337 1303 337 1301.5 328 c 128,-1,1269
 1300 319 1300 319 1300 305 c 2,1270,-1
 1300 213 l 2,1271,1272
 1300 196 1300 196 1302.5 178.5 c 128,-1,1273
 1305 161 1305 161 1312.5 147 c 128,-1,1274
 1320 133 1320 133 1335 124.5 c 128,-1,1275
 1350 116 1350 116 1374 116 c 0,1276,1277
 1417 116 1417 116 1432.5 144.5 c 128,-1,1278
 1448 173 1448 173 1448 216 c 2,1279,-1
 1448 262 l 2,1280,1281
 1448 289 1448 289 1447.5 310 c 128,-1,1282
 1447 331 1447 331 1444 337 c 0,1283,1284
 1441 342 1441 342 1433 345 c 128,-1,1285
 1425 348 1425 348 1416 352 c 1,1286,-1
 1406 352 l 2,1287,1288
 1402 354 1402 354 1402 359 c 256,1289,1290
 1402 364 1402 364 1406 368 c 0,1291,1292
 1423 365 1423 365 1437.5 364.5 c 128,-1,1293
 1452 364 1452 364 1463 364 c 0,1294,1295
 1477 364 1477 364 1489.5 364.5 c 128,-1,1296
 1502 365 1502 365 1513 368 c 0,1297,1298
 1516 365 1516 365 1517 359 c 256,1299,1300
 1517 354 1517 354 1513 352 c 2,1301,-1
 1506 352 l 1,1302,1303
 1497 348 1497 348 1491 345 c 128,-1,1304
 1485 342 1485 342 1483 337 c 0,1305,1306
 1480 331 1480 331 1478 310 c 128,-1,1307
 1476 289 1476 289 1476 262 c 2,1308,-1
 1476 220 l 2,1309,1310
 1476 190 1476 190 1470.5 165 c 128,-1,1311
 1465 140 1465 140 1448 123 c 0,1312,1313
 1434 109 1434 109 1409.5 100.5 c 128,-1,1314
 1385 92 1385 92 1359 92 c 0,1315,1316
 1305 92 1305 92 1270 116 c 0,1317,1318
 1253 127 1253 127 1245.5 150 c 128,-1,1319
 1238 173 1238 173 1238 208 c 2,1320,-1
 1238 305 l 2,1244,1245
1819 170 m 1,1321,-1
 1819 104 l 2,1322,1323
 1817 101 1817 101 1809 96.5 c 128,-1,1324
 1801 92 1801 92 1793 92 c 1,1325,-1
 1782.5 106.5 l 0,1326,1327
 1772 121 1772 121 1757 138 c 2,1328,-1
 1653 252 l 2,1329,1330
 1636 276 1636 276 1624.5 288 c 128,-1,1331
 1613 300 1613 300 1607 305 c 1,1332,1333
 1603 301 1603 301 1603 278 c 2,1334,-1
 1603 201 l 2,1335,1336
 1603 177 1603 177 1605.5 156.5 c 128,-1,1337
 1608 136 1608 136 1610 128 c 0,1338,1339
 1617 116 1617 116 1637 116 c 1,1340,-1
 1649 112 l 2,1341,1342
 1652 109 1652 109 1650.5 104.5 c 0,1343,-1
 1649 100 l 1,1344,-1
 1587 100 l 1,1345,-1
 1537 100 l 1,1346,-1
 1535.5 104.5 l 0,1347,1348
 1534 109 1534 109 1537 112 c 2,1349,-1
 1545 116 l 1,1350,1351
 1565 116 1565 116 1572 128 c 0,1352,1353
 1575 136 1575 136 1575.5 156.5 c 128,-1,1354
 1576 177 1576 177 1576 201 c 2,1355,-1
 1576 301 l 1,1356,-1
 1576 337 l 2,1357,1358
 1573 342 1573 342 1566.5 345 c 128,-1,1359
 1560 348 1560 348 1548 352 c 1,1360,-1
 1537 352 l 2,1361,1362
 1534 354 1534 354 1534 359 c 256,1363,1364
 1534 364 1534 364 1537 368 c 0,1365,1366
 1554 365 1554 365 1569 364.5 c 128,-1,1367
 1584 364 1584 364 1599 364 c 0,1368,1369
 1610 364 1610 364 1619 364.5 c 128,-1,1370
 1628 365 1628 365 1637 368 c 1,1371,1372
 1640 353 1640 353 1659.5 329.5 c 128,-1,1373
 1679 306 1679 306 1711 274 c 2,1374,-1
 1746 236 l 2,1375,1376
 1760 219 1760 219 1771.5 208.5 c 128,-1,1377
 1783 198 1783 198 1788 189 c 1,1378,1379
 1792 191 1792 191 1792.5 197 c 128,-1,1380
 1793 203 1793 203 1793 208 c 2,1381,-1
 1793 262 l 2,1382,1383
 1793 289 1793 289 1790 308.5 c 128,-1,1384
 1787 328 1787 328 1785 337 c 0,1385,1386
 1782 342 1782 342 1775 345 c 128,-1,1387
 1768 348 1768 348 1757 352 c 1,1388,-1
 1746 352 l 1,1389,-1
 1746 368 l 1,1390,1391
 1766 365 1766 365 1779.5 364.5 c 128,-1,1392
 1793 364 1793 364 1808 364 c 0,1393,1394
 1819 364 1819 364 1831 364.5 c 128,-1,1395
 1843 365 1843 365 1858 368 c 1,1396,1397
 1858 365 1858 365 1860 359.5 c 128,-1,1398
 1862 354 1862 354 1858 352 c 2,1399,-1
 1850 352 l 1,1400,1401
 1839 348 1839 348 1832.5 345 c 128,-1,1402
 1826 342 1826 342 1824 337 c 0,1403,1404
 1820 328 1820 328 1819.5 308.5 c 128,-1,1405
 1819 289 1819 289 1819 262 c 2,1406,-1
 1819 170 l 1,1321,-1
1948 189 m 2,1407,1408
 1939 189 1939 189 1936.5 188 c 128,-1,1409
 1934 187 1934 187 1932 181 c 2,1410,-1
 1917 135 l 2,1411,1412
 1913 130 1913 130 1912.5 126 c 128,-1,1413
 1912 122 1912 122 1912 120 c 2,1414,-1
 1915.5 118 l 0,1415,1416
 1919 116 1919 116 1927 116 c 2,1417,-1
 1939 112 l 2,1418,1419
 1941 109 1941 109 1942 104 c 256,1420,1421
 1942 100 1942 100 1939 100 c 2,1422,-1
 1889 100 l 1,1423,-1
 1842 100 l 2,1424,1425
 1840 100 1840 100 1840 104 c 256,1426,1427
 1840 108 1840 108 1842 112 c 2,1428,-1
 1854 116 l 2,1429,1430
 1860 116 1860 116 1867.5 120 c 128,-1,1431
 1875 124 1875 124 1881 135 c 256,1432,1433
 1887 146 1887 146 1893.5 161.5 c 128,-1,1434
 1900 177 1900 177 1909 198 c 2,1435,-1
 1948 298 l 2,1436,1437
 1956 315 1956 315 1961 327 c 128,-1,1438
 1966 339 1966 339 1966 347 c 1,1439,1440
 1981 351 1981 351 1993 361 c 0,1441,-1
 2005 371 l 2,1442,1443
 2008 371 2008 371 2010 370 c 128,-1,1444
 2012 369 2012 369 2012 364 c 0,1445,1446
 2016 356 2016 356 2022 343 c 128,-1,1447
 2028 330 2028 330 2036 309 c 2,1448,-1
 2094 151 l 2,1449,1450
 2102 134 2102 134 2108.5 126.5 c 128,-1,1451
 2115 119 2115 119 2126 116 c 2,1452,-1
 2141 112 l 2,1453,1454
 2143 112 2143 112 2143 105 c 0,1455,1456
 2143 100 2143 100 2141 100 c 2,1457,-1
 2072 100 l 1,1458,-1
 2012 100 l 2,1459,1460
 2010 100 2010 100 2008.5 104.5 c 128,-1,1461
 2007 109 2007 109 2012 112 c 2,1462,-1
 2024 116 l 2,1463,1464
 2032 116 2032 116 2034 118 c 0,1465,-1
 2036 120 l 2,1466,1467
 2036 122 2036 122 2035 130 c 128,-1,1468
 2034 138 2034 138 2029 146 c 2,1469,-1
 2017 181 l 2,1470,1471
 2017 187 2017 187 2012.5 188 c 128,-1,1472
 2008 189 2008 189 1997 189 c 2,1473,-1
 1948 189 l 2,1407,1408
1994 213 m 2,1474,1475
 2002 213 2002 213 2003 214.5 c 128,-1,1476
 2004 216 2004 216 2002 224 c 2,1477,-1
 1990 255 l 2,1478,1479
 1988 269 1988 269 1982.5 280.5 c 128,-1,1480
 1977 292 1977 292 1974 298 c 1,1481,1482
 1971 292 1971 292 1966 279 c 128,-1,1483
 1961 266 1961 266 1955 255 c 2,1484,-1
 1948 224 l 1,1485,1486
 1942 216 1942 216 1944 214.5 c 128,-1,1487
 1946 213 1946 213 1955 213 c 2,1488,-1
 1994 213 l 2,1474,1475
232 316 m 2,1489,1490
 232 327 232 327 230 329.5 c 128,-1,1491
 228 332 228 332 217 332 c 2,1492,-1
 182 332 l 2,1493,1494
 147 332 147 332 133.5 317.5 c 128,-1,1495
 120 303 120 303 109 270 c 1,1496,1497
 103 270 103 270 95.5 271 c 128,-1,1498
 88 272 88 272 85 278 c 1,1499,1500
 94 305 94 305 97.5 329 c 128,-1,1501
 101 353 101 353 104 371 c 1,1502,-1
 113 371 l 1,1503,-1
 121 371 l 1,1504,1505
 122 367 122 367 123.5 364 c 128,-1,1506
 125 361 125 361 129.5 360 c 128,-1,1507
 134 359 134 359 143 359 c 256,1508,1509
 152 359 152 359 170 359 c 2,1510,-1
 394 359 l 2,1511,1512
 424 359 424 359 435 360.5 c 128,-1,1513
 446 362 446 362 449 371 c 1,1514,-1
 457 371 l 2,1515,1516
 464 371 464 371 464 368 c 0,1517,1518
 463 362 463 362 461.5 351 c 128,-1,1519
 460 340 460 340 459 326.5 c 128,-1,1520
 458 313 458 313 457.5 299.5 c 128,-1,1521
 457 286 457 286 457 274 c 0,1522,1523
 455 271 455 271 445 271 c 0,1524,1525
 437 271 437 271 433 274 c 0,1526,1527
 428 301 428 301 416 316.5 c 128,-1,1528
 404 332 404 332 372 332 c 2,1529,-1
 333 332 l 2,1530,1531
 325 332 325 332 321 330 c 128,-1,1532
 317 328 317 328 317 316 c 2,1533,-1
 317 77 l 2,1534,1535
 317 59 317 59 318 47.5 c 128,-1,1536
 319 36 319 36 322.5 30.5 c 128,-1,1537
 326 25 326 25 332 22.5 c 128,-1,1538
 338 20 338 20 348 19 c 2,1539,-1
 372 14 l 2,1540,1541
 377 12 377 12 377 5 c 256,1542,1543
 377 -2 377 -2 372 -4 c 0,1544,1545
 342 -4 342 -4 320.5 -2.5 c 128,-1,1546
 299 -1 299 -1 279 -1 c 0,1547,1548
 255 -1 255 -1 231 -2.5 c 128,-1,1549
 207 -4 207 -4 175 -4 c 0,1550,1551
 171 -2 171 -2 171 5 c 256,1552,1553
 171 12 171 12 175 14 c 2,1554,-1
 201 19 l 2,1555,1556
 211 20 211 20 217 22.5 c 128,-1,1557
 223 25 223 25 226.5 30.5 c 128,-1,1558
 230 36 230 36 231 47 c 128,-1,1559
 232 58 232 58 232 77 c 2,1560,-1
 232 316 l 2,1489,1490
2272 104 m 2,1561,1562
 2272 84 2272 84 2275 71.5 c 128,-1,1563
 2278 59 2278 59 2284 53 c 0,1564,1565
 2290 45 2290 45 2302 41.5 c 128,-1,1566
 2314 38 2314 38 2346 38 c 0,1567,1568
 2364 38 2364 38 2378 39.5 c 128,-1,1569
 2392 41 2392 41 2404 47.5 c 128,-1,1570
 2416 54 2416 54 2426.5 67.5 c 128,-1,1571
 2437 81 2437 81 2450 104 c 0,1572,1573
 2452 106 2452 106 2459.5 105.5 c 128,-1,1574
 2467 105 2467 105 2470 100 c 0,1575,1576
 2470 90 2470 90 2467.5 77.5 c 128,-1,1577
 2465 65 2465 65 2461 52 c 128,-1,1578
 2457 39 2457 39 2453 28 c 128,-1,1579
 2449 17 2449 17 2446 11 c 1,1580,1581
 2422 13 2422 13 2384 13.5 c 128,-1,1582
 2346 14 2346 14 2311 14 c 2,1583,-1
 2233 14 l 2,1584,1585
 2213 14 2213 14 2190 13.5 c 128,-1,1586
 2167 13 2167 13 2141 11 c 0,1587,1588
 2135 13 2135 13 2134.5 20.5 c 128,-1,1589
 2134 28 2134 28 2136 31 c 2,1590,-1
 2160 35 l 2,1591,1592
 2170 36 2170 36 2176 38 c 128,-1,1593
 2182 40 2182 40 2185 45.5 c 128,-1,1594
 2188 51 2188 51 2189 62.5 c 128,-1,1595
 2190 74 2190 74 2190 92 c 2,1596,-1
 2190 290 l 2,1597,1598
 2190 308 2190 308 2189 319.5 c 128,-1,1599
 2188 331 2188 331 2185 336.5 c 128,-1,1600
 2182 342 2182 342 2176 344 c 128,-1,1601
 2170 346 2170 346 2160 347 c 2,1602,-1
 2141 352 l 2,1603,1604
 2137 354 2137 354 2137.5 361.5 c 128,-1,1605
 2138 369 2138 369 2144 371 c 0,1606,1607
 2168 369 2168 369 2189 368.5 c 128,-1,1608
 2210 368 2210 368 2233 368 c 0,1609,1610
 2253 368 2253 368 2274.5 368.5 c 128,-1,1611
 2296 369 2296 369 2319 371 c 0,1612,1613
 2321 369 2321 369 2321 361 c 256,1614,1615
 2321 354 2321 354 2319 352 c 2,1616,-1
 2304 347 l 2,1617,1618
 2294 346 2294 346 2287.5 344 c 128,-1,1619
 2281 342 2281 342 2277.5 336.5 c 128,-1,1620
 2274 331 2274 331 2273 319.5 c 128,-1,1621
 2272 308 2272 308 2272 290 c 2,1622,-1
 2272 104 l 2,1561,1562
EndSplineSet
Validated: 524421
EndChar

